NotoSerifTamilSlanted-Condensed.ufo
<glyph name="exclam" format="2">
  <advance width="295.9"/>
  <unicode hex="0021"/>
  <outline>
    <contour>
      <point x="115.0" y="204.5" type="line"/>
      <point x="163.4" y="204.5" type="line"/>
      <point x="303.4" y="714.0" type="line"/>
      <point x="194.4" y="714.0" type="line"/>
    </contour>
    <contour>
      <point x="108.3" y="-8.0" type="curve" smooth="yes"/>
      <point x="139.7" y="-8.0"/>
      <point x="171.9" y="14.2"/>
      <point x="171.9" y="72.5" type="curve" smooth="yes"/>
      <point x="171.9" y="108.6"/>
      <point x="150.3" y="127.6"/>
      <point x="119.4" y="127.6" type="curve" smooth="yes"/>
      <point x="84.3" y="127.6"/>
      <point x="55.1" y="97.7"/>
      <point x="55.1" y="47.7" type="curve" smooth="yes"/>
      <point x="55.1" y="11.3"/>
      <point x="76.7" y="-8.0"/>
    </contour>
  </outline>
</glyph>
<glyph name="quotedbl" format="2">
  <advance width="359.0"/>
  <unicode hex="0022"/>
  <outline>
    <contour>
      <point x="124.0" y="481.8" type="line"/>
      <point x="166.5" y="481.8" type="line"/>
      <point x="247.2" y="714.0" type="line"/>
      <point x="148.2" y="714.0" type="line"/>
    </contour>
    <contour>
      <point x="289.6" y="481.8" type="line"/>
      <point x="332.1" y="481.8" type="line"/>
      <point x="412.8" y="714.0" type="line"/>
      <point x="314.5" y="714.0" type="line"/>
    </contour>
  </outline>
</glyph>
<glyph name="numbersign" format="2">
  <advance width="480.6"/>
  <unicode hex="0023"/>
  <outline>
    <contour>
      <point x="46.2" y="0.0" type="line"/>
      <point x="99.9" y="0.0" type="line"/>
      <point x="156.8" y="203.0" type="line"/>
      <point x="276.2" y="203.0" type="line"/>
      <point x="220.0" y="0.0" type="line"/>
      <point x="273.0" y="0.0" type="line"/>
      <point x="329.2" y="203.0" type="line"/>
      <point x="432.7" y="203.0" type="line"/>
      <point x="440.4" y="262.0" type="line"/>
      <point x="348.2" y="262.0" type="line"/>
      <point x="402.4" y="458.7" type="line"/>
      <point x="490.0" y="458.7" type="line"/>
      <point x="497.4" y="517.0" type="line"/>
      <point x="419.4" y="517.0" type="line"/>
      <point x="474.6" y="714.0" type="line"/>
      <point x="420.9" y="714.0" type="line"/>
      <point x="365.7" y="517.0" type="line"/>
      <point x="246.3" y="517.0" type="line"/>
      <point x="301.5" y="714.0" type="line"/>
      <point x="247.5" y="714.0" type="line"/>
      <point x="193.3" y="517.0" type="line"/>
      <point x="91.5" y="517.0" type="line"/>
      <point x="84.8" y="458.7" type="line"/>
      <point x="176.3" y="458.7" type="line"/>
      <point x="121.1" y="262.0" type="line"/>
      <point x="34.2" y="262.0" type="line"/>
      <point x="26.5" y="203.0" type="line"/>
      <point x="103.8" y="203.0" type="line"/>
    </contour>
    <contour>
      <point x="174.4" y="262.0" type="line"/>
      <point x="229.3" y="458.7" type="line"/>
      <point x="348.7" y="458.7" type="line"/>
      <point x="294.5" y="262.0" type="line"/>
    </contour>
  </outline>
</glyph>
<glyph name="percent" format="2">
  <advance width="777.7"/>
  <unicode hex="0025"/>
  <outline>
    <contour>
      <point x="148.1" y="0.0" type="line"/>
      <point x="213.0" y="0.0" type="line"/>
      <point x="662.0" y="714.0" type="line"/>
      <point x="601.1" y="714.0" type="line"/>
    </contour>
    <contour>
      <point x="178.2" y="281.0" type="curve" smooth="yes"/>
      <point x="311.8" y="281.0"/>
      <point x="374.7" y="467.7"/>
      <point x="374.7" y="573.1" type="curve" smooth="yes"/>
      <point x="374.7" y="663.2"/>
      <point x="341.0" y="723.0"/>
      <point x="262.7" y="723.0" type="curve" smooth="yes"/>
      <point x="131.4" y="723.0"/>
      <point x="70.2" y="543.3"/>
      <point x="70.2" y="430.9" type="curve"/>
      <point x="70.2" y="329.2"/>
      <point x="111.8" y="281.0"/>
    </contour>
    <contour>
      <point x="184.3" y="321.3" type="curve" smooth="yes"/>
      <point x="153.4" y="321.3"/>
      <point x="142.2" y="355.1"/>
      <point x="142.2" y="412.4" type="curve" smooth="yes"/>
      <point x="142.2" y="504.6"/>
      <point x="184.5" y="683.7"/>
      <point x="258.0" y="683.7" type="curve" smooth="yes"/>
      <point x="288.9" y="683.7"/>
      <point x="300.1" y="650.6"/>
      <point x="300.1" y="592.6" type="curve" smooth="yes"/>
      <point x="300.1" y="500.4"/>
      <point x="257.8" y="321.3"/>
    </contour>
    <contour>
      <point x="553.0" y="-8.0" type="curve" smooth="yes"/>
      <point x="686.6" y="-8.0"/>
      <point x="748.8" y="179.4"/>
      <point x="748.8" y="284.1" type="curve" smooth="yes"/>
      <point x="748.8" y="374.2"/>
      <point x="715.1" y="434.0"/>
      <point x="636.8" y="434.0" type="curve" smooth="yes"/>
      <point x="505.5" y="434.0"/>
      <point x="445.0" y="254.3"/>
      <point x="445.0" y="141.9" type="curve"/>
      <point x="445.0" y="40.2"/>
      <point x="486.6" y="-8.0"/>
    </contour>
    <contour>
      <point x="559.1" y="32.3" type="curve" smooth="yes"/>
      <point x="527.5" y="32.3"/>
      <point x="516.3" y="66.1"/>
      <point x="516.3" y="124.8" type="curve" smooth="yes"/>
      <point x="516.3" y="215.6"/>
      <point x="559.3" y="394.7"/>
      <point x="632.1" y="394.7" type="curve" smooth="yes"/>
      <point x="663.7" y="394.7"/>
      <point x="674.9" y="360.9"/>
      <point x="674.9" y="303.6" type="curve" smooth="yes"/>
      <point x="674.9" y="211.4"/>
      <point x="632.6" y="32.3"/>
    </contour>
  </outline>
</glyph>
<glyph name="quotesingle" format="2">
  <advance width="196.2"/>
  <unicode hex="0027"/>
  <outline>
    <contour>
      <point x="123.5" y="481.8" type="line"/>
      <point x="166.0" y="481.8" type="line"/>
      <point x="245.3" y="714.0" type="line"/>
      <point x="147.0" y="714.0" type="line"/>
    </contour>
  </outline>
</glyph>
<glyph name="parenleft" format="2">
  <advance width="305.4"/>
  <unicode hex="0028"/>
  <outline>
    <contour>
      <point x="191.7" y="-127.3" type="curve"/>
      <point x="202.4" y="-82.7" type="line"/>
      <point x="147.8" y="-37.2"/>
      <point x="129.7" y="57.5"/>
      <point x="129.7" y="139.0" type="curve" smooth="yes"/>
      <point x="129.7" y="271.4"/>
      <point x="180.0" y="596.8"/>
      <point x="371.4" y="715.7" type="curve"/>
      <point x="380.7" y="758.6" type="line"/>
      <point x="154.0" y="685.9"/>
      <point x="40.6" y="408.0"/>
      <point x="40.6" y="169.9" type="curve" smooth="yes"/>
      <point x="40.6" y="38.6"/>
      <point x="85.6" y="-76.1"/>
    </contour>
  </outline>
</glyph>
<glyph name="parenright" format="2">
  <advance width="305.4"/>
  <unicode hex="0029"/>
  <outline>
    <contour>
      <point x="-45.5" y="-136.0" type="line"/>
      <point x="181.9" y="-62.6"/>
      <point x="293.9" y="215.3"/>
      <point x="293.9" y="453.4" type="curve" smooth="yes"/>
      <point x="293.9" y="584.7"/>
      <point x="250.3" y="698.7"/>
      <point x="143.5" y="749.9" type="curve"/>
      <point x="133.5" y="706.0" type="line"/>
      <point x="187.4" y="660.5"/>
      <point x="205.5" y="565.8"/>
      <point x="205.5" y="484.3" type="curve" smooth="yes"/>
      <point x="205.5" y="352.6"/>
      <point x="155.9" y="27.2"/>
      <point x="-35.5" y="-92.4" type="curve"/>
    </contour>
  </outline>
</glyph>
<glyph name="asterisk" format="2">
  <advance width="438.4"/>
  <unicode hex="002A"/>
  <outline>
    <contour>
      <point x="297.4" y="374.4" type="line"/>
      <point x="305.5" y="533.7" type="line"/>
      <point x="415.1" y="412.1" type="line"/>
      <point x="461.6" y="478.0" type="line"/>
      <point x="333.2" y="561.7" type="line"/>
      <point x="482.6" y="575.4" type="line"/>
      <point x="468.8" y="658.0" type="line"/>
      <point x="320.2" y="598.7" type="line"/>
      <point x="377.4" y="747.0" type="line"/>
      <point x="301.5" y="765.0" type="line"/>
      <point x="290.7" y="604.0" type="line"/>
      <point x="183.1" y="731.0" type="line"/>
      <point x="135.6" y="662.4" type="line"/>
      <point x="264.4" y="577.0" type="line"/>
      <point x="115.3" y="562.3" type="line"/>
      <point x="129.1" y="480.4" type="line"/>
      <point x="276.7" y="540.7" type="line"/>
      <point x="220.8" y="391.7" type="line"/>
    </contour>
  </outline>
</glyph>
<glyph name="plus" format="2">
  <advance width="465.2"/>
  <unicode hex="002B"/>
  <outline>
    <contour>
      <point x="213.3" y="143.0" type="line"/>
      <point x="271.9" y="143.0" type="line"/>
      <point x="271.9" y="328.7" type="line"/>
      <point x="426.1" y="328.7" type="line"/>
      <point x="426.1" y="386.3" type="line"/>
      <point x="271.9" y="386.3" type="line"/>
      <point x="271.9" y="572.0" type="line"/>
      <point x="213.3" y="572.0" type="line"/>
      <point x="213.3" y="386.3" type="line"/>
      <point x="60.1" y="386.3" type="line"/>
      <point x="60.1" y="328.7" type="line"/>
      <point x="213.3" y="328.7" type="line"/>
    </contour>
  </outline>
</glyph>
<glyph name="comma" format="2">
  <advance width="222.7"/>
  <unicode hex="002C"/>
  <outline>
    <contour>
      <point x="-26.6" y="-146.0" type="line"/>
      <point x="86.9" y="-121.0"/>
      <point x="140.4" y="-45.7"/>
      <point x="140.4" y="43.2" type="curve" smooth="yes"/>
      <point x="140.4" y="95.9"/>
      <point x="110.0" y="125.9"/>
      <point x="74.3" y="125.9" type="curve" smooth="yes"/>
      <point x="43.1" y="125.9"/>
      <point x="17.9" y="105.2"/>
      <point x="17.9" y="66.2" type="curve" smooth="yes"/>
      <point x="17.9" y="16.0"/>
      <point x="68.9" y="14.6"/>
      <point x="68.9" y="-19.3" type="curve" smooth="yes"/>
      <point x="68.9" y="-60.0"/>
      <point x="38.8" y="-89.0"/>
      <point x="-21.2" y="-104.7" type="curve"/>
    </contour>
  </outline>
</glyph>
<glyph name="hyphen" format="2">
  <advance width="266.6"/>
  <unicode hex="002D"/>
  <outline>
    <contour>
      <point x="18.9" y="236.4" type="line"/>
      <point x="242.5" y="236.4" type="line"/>
      <point x="259.2" y="308.6" type="line"/>
      <point x="35.6" y="308.6" type="line"/>
    </contour>
  </outline>
</glyph>
<glyph name="period" format="2">
  <advance width="222.7"/>
  <unicode hex="002E"/>
  <outline>
    <contour>
      <point x="77.8" y="-8.0" type="curve" smooth="yes"/>
      <point x="109.2" y="-8.0"/>
      <point x="142.1" y="14.2"/>
      <point x="142.1" y="73.7" type="curve" smooth="yes"/>
      <point x="142.1" y="108.6"/>
      <point x="119.8" y="127.6"/>
      <point x="88.9" y="127.6" type="curve" smooth="yes"/>
      <point x="53.8" y="127.6"/>
      <point x="24.6" y="97.7"/>
      <point x="24.6" y="46.5" type="curve" smooth="yes"/>
      <point x="24.6" y="11.3"/>
      <point x="46.2" y="-8.0"/>
    </contour>
  </outline>
</glyph>
<glyph name="slash" format="2">
  <advance width="248.1"/>
  <unicode hex="002F"/>
  <outline>
    <contour>
      <point x="-85.3" y="-121.0" type="line"/>
      <point x="-29.3" y="-121.0" type="line"/>
      <point x="353.7" y="760.0" type="line"/>
      <point x="296.3" y="760.0" type="line"/>
    </contour>
  </outline>
</glyph>
<glyph name="zero" format="2">
  <advance width="490.4"/>
  <unicode hex="0030"/>
  <outline>
    <contour>
      <point x="205.0" y="-11.0" type="curve" smooth="yes"/>
      <point x="397.3" y="-11.0"/>
      <point x="480.3" y="315.0"/>
      <point x="480.3" y="509.3" type="curve" smooth="yes"/>
      <point x="480.3" y="658.5"/>
      <point x="410.3" y="724.3"/>
      <point x="320.4" y="724.3" type="curve" smooth="yes"/>
      <point x="129.8" y="724.3"/>
      <point x="44.2" y="418.4"/>
      <point x="44.2" y="216.3" type="curve" smooth="yes"/>
      <point x="44.2" y="68.8"/>
      <point x="108.2" y="-11.0"/>
    </contour>
    <contour>
      <point x="213.0" y="43.3" type="curve" smooth="yes"/>
      <point x="163.0" y="43.3"/>
      <point x="133.5" y="91.0"/>
      <point x="133.5" y="192.9" type="curve" smooth="yes"/>
      <point x="133.5" y="359.5"/>
      <point x="191.0" y="671.0"/>
      <point x="311.8" y="671.0" type="curve" smooth="yes"/>
      <point x="363.8" y="671.0"/>
      <point x="391.7" y="623.3"/>
      <point x="391.7" y="524.1" type="curve" smooth="yes"/>
      <point x="391.7" y="357.9"/>
      <point x="336.2" y="43.3"/>
    </contour>
  </outline>
</glyph>
<glyph name="one" format="2">
  <advance width="490.4"/>
  <unicode hex="0031"/>
  <outline>
    <contour>
      <point x="36.6" y="0.0" type="line"/>
      <point x="361.0" y="0.0" type="line"/>
      <point x="370.0" y="41.3" type="line"/>
      <point x="324.4" y="41.3" type="line" smooth="yes"/>
      <point x="289.4" y="41.3"/>
      <point x="263.6" y="47.3"/>
      <point x="263.6" y="79.9" type="curve" smooth="yes"/>
      <point x="263.6" y="86.6"/>
      <point x="265.6" y="99.9"/>
      <point x="269.7" y="118.4" type="curve" smooth="yes"/>
      <point x="396.6" y="718.0" type="line"/>
      <point x="335.4" y="718.0" type="line"/>
      <point x="264.9" y="666.0" type="line" smooth="yes"/>
      <point x="198.0" y="617.0"/>
      <point x="160.2" y="601.0"/>
      <point x="120.5" y="589.0" type="curve"/>
      <point x="119.8" y="559.4"/>
      <point x="131.1" y="537.1"/>
      <point x="154.9" y="537.1" type="curve" smooth="yes"/>
      <point x="191.6" y="537.1"/>
      <point x="228.4" y="575.4"/>
      <point x="288.4" y="641.1" type="curve"/>
      <point x="291.0" y="641.1" type="line"/>
      <point x="280.1" y="603.8"/>
      <point x="268.5" y="552.2"/>
      <point x="254.7" y="485.5" type="curve" smooth="yes"/>
      <point x="176.0" y="113.3" type="line" smooth="yes"/>
      <point x="162.3" y="49.6"/>
      <point x="130.0" y="41.3"/>
      <point x="91.3" y="41.3" type="curve" smooth="yes"/>
      <point x="44.6" y="41.3" type="line"/>
    </contour>
  </outline>
</glyph>
<glyph name="two" format="2">
  <advance width="490.4"/>
  <unicode hex="0032"/>
  <outline>
    <contour>
      <point x="-9.3" y="0.0" type="line"/>
      <point x="368.4" y="0.0" type="line"/>
      <point x="409.8" y="167.5" type="line"/>
      <point x="370.6" y="167.5" type="line"/>
      <point x="364.3" y="152.2" type="line" smooth="yes"/>
      <point x="348.0" y="114.2"/>
      <point x="329.1" y="77.2"/>
      <point x="276.5" y="77.2" type="curve" smooth="yes"/>
      <point x="77.4" y="77.2" type="line"/>
      <point x="266.0" y="268.7" type="line" smooth="yes"/>
      <point x="407.3" y="402.6"/>
      <point x="467.7" y="482.2"/>
      <point x="467.7" y="582.9" type="curve" smooth="yes"/>
      <point x="467.7" y="669.4"/>
      <point x="412.8" y="724.0"/>
      <point x="306.0" y="724.0" type="curve" smooth="yes"/>
      <point x="182.4" y="724.0"/>
      <point x="111.8" y="653.9"/>
      <point x="111.8" y="585.6" type="curve" smooth="yes"/>
      <point x="111.8" y="543.4"/>
      <point x="140.4" y="525.8"/>
      <point x="180.0" y="525.8" type="curve"/>
      <point x="191.6" y="604.4"/>
      <point x="229.7" y="675.4"/>
      <point x="299.6" y="675.4" type="curve" smooth="yes"/>
      <point x="346.0" y="675.4"/>
      <point x="372.0" y="636.5"/>
      <point x="372.0" y="579.3" type="curve" smooth="yes"/>
      <point x="372.0" y="494.0"/>
      <point x="346.0" y="423.8"/>
      <point x="220.1" y="294.4" type="curve" smooth="yes"/>
      <point x="9.6" y="78.9" type="line"/>
    </contour>
  </outline>
</glyph>
<glyph name="three" format="2">
  <advance width="490.4"/>
  <unicode hex="0033"/>
  <outline>
    <contour>
      <point x="168.6" y="-10.0" type="curve" smooth="yes"/>
      <point x="279.3" y="-10.0"/>
      <point x="416.3" y="50.1"/>
      <point x="416.3" y="230.6" type="curve" smooth="yes"/>
      <point x="416.3" y="312.4"/>
      <point x="368.1" y="365.3"/>
      <point x="291.5" y="374.6" type="curve"/>
      <point x="410.1" y="399.3"/>
      <point x="470.8" y="490.8"/>
      <point x="470.8" y="585.2" type="curve" smooth="yes"/>
      <point x="470.8" y="673.4"/>
      <point x="405.9" y="724.0"/>
      <point x="311.3" y="724.0" type="curve" smooth="yes"/>
      <point x="202.6" y="724.0"/>
      <point x="116.5" y="664.0"/>
      <point x="116.5" y="582.0" type="curve" smooth="yes"/>
      <point x="116.5" y="539.3"/>
      <point x="145.7" y="525.7"/>
      <point x="184.2" y="525.7" type="curve"/>
      <point x="201.2" y="605.4"/>
      <point x="228.2" y="675.4"/>
      <point x="304.5" y="675.4" type="curve" smooth="yes"/>
      <point x="352.3" y="675.4"/>
      <point x="375.5" y="638.1"/>
      <point x="375.5" y="585.1" type="curve" smooth="yes"/>
      <point x="375.5" y="470.7"/>
      <point x="300.2" y="395.0"/>
      <point x="200.8" y="395.0" type="curve" smooth="yes"/>
      <point x="173.0" y="395.0" type="line"/>
      <point x="163.7" y="344.7" type="line"/>
      <point x="200.4" y="344.7" type="line" smooth="yes"/>
      <point x="276.1" y="344.7"/>
      <point x="319.0" y="297.4"/>
      <point x="319.0" y="223.1" type="curve" smooth="yes"/>
      <point x="319.0" y="102.7"/>
      <point x="252.0" y="43.6"/>
      <point x="177.0" y="43.6" type="curve" smooth="yes"/>
      <point x="101.0" y="43.6"/>
      <point x="73.0" y="107.3"/>
      <point x="75.1" y="166.9" type="curve"/>
      <point x="33.8" y="166.9"/>
      <point x="2.5999999999999996" y="142.0"/>
      <point x="2.5999999999999996" y="95.0" type="curve" smooth="yes"/>
      <point x="2.5999999999999996" y="41.4"/>
      <point x="45.9" y="-10.0"/>
    </contour>
  </outline>
</glyph>
<glyph name="four" format="2">
  <advance width="490.4"/>
  <unicode hex="0034"/>
  <outline>
    <contour>
      <point x="114.0" y="0.0" type="line"/>
      <point x="398.3" y="0.0" type="line"/>
      <point x="408.0" y="41.3" type="line"/>
      <point x="388.5" y="41.3" type="line" smooth="yes"/>
      <point x="354.2" y="41.3"/>
      <point x="329.1" y="47.3"/>
      <point x="329.1" y="79.2" type="curve" smooth="yes"/>
      <point x="329.1" y="85.9"/>
      <point x="331.1" y="100.6"/>
      <point x="333.1" y="108.6" type="curve" smooth="yes"/>
      <point x="461.1" y="714.0" type="line"/>
      <point x="370.0" y="714.0" type="line"/>
      <point x="11.099999999999998" y="236.3" type="line"/>
      <point x="2.099999999999998" y="198.8" type="line"/>
      <point x="453.8" y="198.8" type="line"/>
      <point x="465.8" y="250.6" type="line"/>
      <point x="48.0" y="250.6" type="line"/>
      <point x="59.5" y="226.1" type="line"/>
      <point x="282.2" y="517.3" type="line" smooth="yes"/>
      <point x="301.8" y="542.7"/>
      <point x="339.8" y="598.3"/>
      <point x="359.0" y="634.4" type="curve"/>
      <point x="340.7" y="572.4"/>
      <point x="323.4" y="499.1"/>
      <point x="311.4" y="440.4" type="curve" smooth="yes"/>
      <point x="243.7" y="113.3" type="line" smooth="yes"/>
      <point x="230.7" y="50.3"/>
      <point x="195.6" y="41.3"/>
      <point x="157.6" y="41.3" type="curve" smooth="yes"/>
      <point x="122.0" y="41.3" type="line"/>
    </contour>
  </outline>
</glyph>
<glyph name="five" format="2">
  <advance width="490.4"/>
  <unicode hex="0035"/>
  <outline>
    <contour>
      <point x="166.2" y="-10.0" type="curve" smooth="yes"/>
      <point x="322.9" y="-10.0"/>
      <point x="418.0" y="103.9"/>
      <point x="418.0" y="250.0" type="curve" smooth="yes"/>
      <point x="418.0" y="364.1"/>
      <point x="349.3" y="426.3"/>
      <point x="240.2" y="426.3" type="curve" smooth="yes"/>
      <point x="201.5" y="426.3"/>
      <point x="176.0" y="418.0"/>
      <point x="157.5" y="411.0" type="curve"/>
      <point x="219.3" y="636.1" type="line"/>
      <point x="386.7" y="636.1" type="line" smooth="yes"/>
      <point x="417.1" y="636.1"/>
      <point x="425.7" y="626.8"/>
      <point x="425.7" y="613.5" type="curve" smooth="yes"/>
      <point x="425.7" y="606.9"/>
      <point x="423.0" y="584.2"/>
      <point x="421.3" y="565.8" type="curve"/>
      <point x="460.5" y="565.8" type="line"/>
      <point x="488.9" y="714.0" type="line"/>
      <point x="194.8" y="714.0" type="line"/>
      <point x="94.1" y="361.9" type="line"/>
      <point x="123.2" y="350.7" type="line"/>
      <point x="147.0" y="361.7"/>
      <point x="173.5" y="372.7"/>
      <point x="216.8" y="372.7" type="curve" smooth="yes"/>
      <point x="277.2" y="372.7"/>
      <point x="321.7" y="329.1"/>
      <point x="321.7" y="242.3" type="curve" smooth="yes"/>
      <point x="321.7" y="111.8"/>
      <point x="261.8" y="43.6"/>
      <point x="175.2" y="43.6" type="curve" smooth="yes"/>
      <point x="99.0" y="43.6"/>
      <point x="81.9" y="109.4"/>
      <point x="82.3" y="159.7" type="curve"/>
      <point x="34.5" y="159.7"/>
      <point x="13.6" y="132.6"/>
      <point x="13.6" y="93.5" type="curve" smooth="yes"/>
      <point x="13.6" y="40.6"/>
      <point x="54.7" y="-10.0"/>
    </contour>
  </outline>
</glyph>
<glyph name="six" format="2">
  <advance width="490.4"/>
  <unicode hex="0036"/>
  <outline>
    <contour>
      <point x="219.3" y="-10.0" type="curve" smooth="yes"/>
      <point x="368.2" y="-10.0"/>
      <point x="440.9" y="127.0"/>
      <point x="440.9" y="266.7" type="curve" smooth="yes"/>
      <point x="440.9" y="357.5"/>
      <point x="397.0" y="433.3"/>
      <point x="302.7" y="433.3" type="curve" smooth="yes"/>
      <point x="244.3" y="433.3"/>
      <point x="199.0" y="402.3"/>
      <point x="172.5" y="381.3" type="curve"/>
      <point x="218.4" y="575.0"/>
      <point x="285.3" y="676.7"/>
      <point x="369.2" y="676.7" type="curve" smooth="yes"/>
      <point x="420.4" y="676.7"/>
      <point x="425.3" y="620.1"/>
      <point x="423.2" y="561.1" type="curve"/>
      <point x="474.7" y="561.1"/>
      <point x="506.0" y="589.8"/>
      <point x="506.0" y="634.7" type="curve" smooth="yes"/>
      <point x="506.0" y="684.1"/>
      <point x="462.4" y="724.0"/>
      <point x="377.5" y="724.0" type="curve" smooth="yes"/>
      <point x="184.4" y="724.0"/>
      <point x="60.0" y="464.9"/>
      <point x="60.0" y="215.2" type="curve" smooth="yes"/>
      <point x="60.0" y="56.7"/>
      <point x="130.7" y="-10.0"/>
    </contour>
    <contour>
      <point x="226.7" y="42.2" type="curve" smooth="yes"/>
      <point x="177.0" y="42.2"/>
      <point x="146.8" y="91.7"/>
      <point x="146.8" y="190.1" type="curve" smooth="yes"/>
      <point x="146.8" y="233.0"/>
      <point x="151.1" y="271.2"/>
      <point x="161.5" y="325.0" type="curve"/>
      <point x="188.9" y="353.0"/>
      <point x="234.2" y="383.7"/>
      <point x="277.8" y="383.7" type="curve" smooth="yes"/>
      <point x="324.2" y="383.7"/>
      <point x="349.6" y="341.2"/>
      <point x="349.6" y="264.2" type="curve" smooth="yes"/>
      <point x="349.6" y="139.9"/>
      <point x="298.5" y="42.2"/>
    </contour>
  </outline>
</glyph>
<glyph name="seven" format="2">
  <advance width="490.4"/>
  <unicode hex="0037"/>
  <outline>
    <contour>
      <point x="96.8" y="0.0" type="line"/>
      <point x="164.1" y="0.0" type="line"/>
      <point x="522.2" y="687.8" type="line"/>
      <point x="527.5" y="714.0" type="line"/>
      <point x="141.4" y="714.0" type="line"/>
      <point x="98.4" y="535.1" type="line"/>
      <point x="137.6" y="535.1" type="line"/>
      <point x="150.9" y="585.1" type="line" smooth="yes"/>
      <point x="159.9" y="618.1"/>
      <point x="179.7" y="636.8"/>
      <point x="210.8" y="636.8" type="curve" smooth="yes"/>
      <point x="437.4" y="636.8" type="line"/>
    </contour>
  </outline>
</glyph>
<glyph name="eight" format="2">
  <advance width="490.4"/>
  <unicode hex="0038"/>
  <outline>
    <contour>
      <point x="208.2" y="-10.0" type="curve" smooth="yes"/>
      <point x="331.4" y="-10.0"/>
      <point x="432.8" y="58.8"/>
      <point x="432.8" y="208.3" type="curve" smooth="yes"/>
      <point x="432.8" y="285.1"/>
      <point x="390.6" y="338.4"/>
      <point x="328.9" y="380.3" type="curve"/>
      <point x="423.7" y="426.4"/>
      <point x="484.7" y="479.1"/>
      <point x="484.7" y="582.2" type="curve" smooth="yes"/>
      <point x="484.7" y="664.1"/>
      <point x="427.8" y="724.0"/>
      <point x="325.9" y="724.0" type="curve" smooth="yes"/>
      <point x="174.8" y="724.0"/>
      <point x="114.2" y="634.1"/>
      <point x="114.2" y="524.7" type="curve" smooth="yes"/>
      <point x="114.2" y="464.5"/>
      <point x="144.9" y="407.3"/>
      <point x="194.0" y="365.0" type="curve"/>
      <point x="91.3" y="321.3"/>
      <point x="17.7" y="269.1"/>
      <point x="17.7" y="154.3" type="curve" smooth="yes"/>
      <point x="17.7" y="58.5"/>
      <point x="86.8" y="-10.0"/>
    </contour>
    <contour>
      <point x="209.8" y="38.3" type="curve" smooth="yes"/>
      <point x="143.5" y="38.3"/>
      <point x="105.3" y="83.2"/>
      <point x="105.3" y="154.4" type="curve" smooth="yes"/>
      <point x="105.3" y="248.9"/>
      <point x="155.3" y="305.0"/>
      <point x="234.4" y="340.4" type="curve"/>
      <point x="307.2" y="295.8"/>
      <point x="344.8" y="253.5"/>
      <point x="344.8" y="184.3" type="curve" smooth="yes"/>
      <point x="344.8" y="87.1"/>
      <point x="282.9" y="38.3"/>
    </contour>
    <contour>
      <point x="287.2" y="404.3" type="curve"/>
      <point x="230.9" y="441.6"/>
      <point x="203.9" y="481.5"/>
      <point x="203.9" y="537.1" type="curve" smooth="yes"/>
      <point x="203.9" y="620.9"/>
      <point x="250.2" y="674.7"/>
      <point x="320.0" y="674.7" type="curve" smooth="yes"/>
      <point x="376.0" y="674.7"/>
      <point x="402.7" y="632.8"/>
      <point x="402.7" y="575.9" type="curve" smooth="yes"/>
      <point x="402.7" y="504.5"/>
      <point x="374.6" y="449.4"/>
    </contour>
  </outline>
</glyph>
<glyph name="nine" format="2">
  <advance width="490.4"/>
  <unicode hex="0039"/>
  <outline>
    <contour>
      <point x="155.4" y="-10.0" type="curve" smooth="yes"/>
      <point x="384.8" y="-10.0"/>
      <point x="472.4" y="366.5"/>
      <point x="472.4" y="541.7" type="curve" smooth="yes"/>
      <point x="472.4" y="658.6"/>
      <point x="411.9" y="724.0"/>
      <point x="316.7" y="724.0" type="curve" smooth="yes"/>
      <point x="189.8" y="724.0"/>
      <point x="80.0" y="603.8"/>
      <point x="80.0" y="433.3" type="curve" smooth="yes"/>
      <point x="80.0" y="340.5"/>
      <point x="130.5" y="275.0"/>
      <point x="220.3" y="275.0" type="curve" smooth="yes"/>
      <point x="280.5" y="275.0"/>
      <point x="323.9" y="308.0"/>
      <point x="353.7" y="343.0" type="curve"/>
      <point x="305.6" y="158.5"/>
      <point x="251.8" y="38.3"/>
      <point x="165.5" y="38.3" type="curve" smooth="yes"/>
      <point x="113.0" y="38.3"/>
      <point x="94.3" y="93.4"/>
      <point x="95.4" y="141.5" type="curve"/>
      <point x="57.7" y="141.5"/>
      <point x="35.0" y="112.3"/>
      <point x="35.0" y="76.5" type="curve" smooth="yes"/>
      <point x="35.0" y="33.9"/>
      <point x="64.9" y="-10.0"/>
    </contour>
    <contour>
      <point x="246.7" y="327.9" type="curve" smooth="yes"/>
      <point x="201.6" y="327.9"/>
      <point x="172.3" y="363.5"/>
      <point x="172.3" y="430.3" type="curve" smooth="yes"/>
      <point x="172.3" y="543.3"/>
      <point x="228.8" y="671.8"/>
      <point x="311.6" y="671.8" type="curve" smooth="yes"/>
      <point x="355.1" y="671.8"/>
      <point x="386.4" y="634.9"/>
      <point x="386.4" y="544.9" type="curve" smooth="yes"/>
      <point x="386.4" y="509.6"/>
      <point x="378.7" y="451.4"/>
      <point x="369.0" y="414.3" type="curve"/>
      <point x="343.2" y="372.6"/>
      <point x="301.2" y="327.9"/>
    </contour>
  </outline>
</glyph>
<glyph name="colon" format="2">
  <advance width="257.3"/>
  <unicode hex="003A"/>
  <outline>
    <contour>
      <point x="173.1" y="405.1" type="curve" smooth="yes"/>
      <point x="204.5" y="405.1"/>
      <point x="236.7" y="427.3"/>
      <point x="236.7" y="485.6" type="curve" smooth="yes"/>
      <point x="236.7" y="521.7"/>
      <point x="215.1" y="540.7"/>
      <point x="184.2" y="540.7" type="curve" smooth="yes"/>
      <point x="149.1" y="540.7"/>
      <point x="120.6" y="510.1"/>
      <point x="120.6" y="460.1" type="curve" smooth="yes"/>
      <point x="120.6" y="424.4"/>
      <point x="141.5" y="405.1"/>
    </contour>
    <contour>
      <point x="83.1" y="-8.0" type="curve" smooth="yes"/>
      <point x="114.5" y="-8.0"/>
      <point x="147.4" y="14.2"/>
      <point x="147.4" y="72.5" type="curve" smooth="yes"/>
      <point x="147.4" y="108.6"/>
      <point x="125.1" y="127.6"/>
      <point x="94.9" y="127.6" type="curve" smooth="yes"/>
      <point x="59.1" y="127.6"/>
      <point x="30.6" y="97.7"/>
      <point x="30.6" y="47.7" type="curve" smooth="yes"/>
      <point x="30.6" y="11.3"/>
      <point x="52.2" y="-8.0"/>
    </contour>
  </outline>
</glyph>
<glyph name="semicolon" format="2">
  <advance width="256.6"/>
  <unicode hex="003B"/>
  <outline>
    <contour>
      <point x="-11.5" y="-146.0" type="line"/>
      <point x="101.3" y="-121.0"/>
      <point x="155.5" y="-45.7"/>
      <point x="155.5" y="43.2" type="curve" smooth="yes"/>
      <point x="155.5" y="95.9"/>
      <point x="125.1" y="125.9"/>
      <point x="89.4" y="125.9" type="curve" smooth="yes"/>
      <point x="58.9" y="125.9"/>
      <point x="32.3" y="105.9"/>
      <point x="32.3" y="66.2" type="curve" smooth="yes"/>
      <point x="32.3" y="16.0"/>
      <point x="84.0" y="14.6"/>
      <point x="84.0" y="-19.3" type="curve" smooth="yes"/>
      <point x="84.0" y="-60.0"/>
      <point x="53.9" y="-89.0"/>
      <point x="-6.1" y="-104.7" type="curve"/>
    </contour>
    <contour>
      <point x="173.1" y="405.1" type="curve" smooth="yes"/>
      <point x="203.8" y="405.1"/>
      <point x="236.7" y="427.3"/>
      <point x="236.7" y="485.6" type="curve" smooth="yes"/>
      <point x="236.7" y="521.7"/>
      <point x="214.4" y="540.7"/>
      <point x="184.2" y="540.7" type="curve" smooth="yes"/>
      <point x="149.1" y="540.7"/>
      <point x="120.6" y="510.1"/>
      <point x="120.6" y="460.1" type="curve" smooth="yes"/>
      <point x="120.6" y="424.4"/>
      <point x="141.5" y="405.1"/>
    </contour>
  </outline>
</glyph>
<glyph name="less" format="2">
  <advance width="465.2"/>
  <unicode hex="003C"/>
  <outline>
    <contour>
      <point x="426.1" y="110.7" type="line"/>
      <point x="426.1" y="177.0" type="line"/>
      <point x="141.2" y="357.0" type="line"/>
      <point x="426.1" y="539.7" type="line"/>
      <point x="426.1" y="605.3" type="line"/>
      <point x="60.1" y="375.0" type="line"/>
      <point x="60.1" y="340.0" type="line"/>
    </contour>
  </outline>
</glyph>
<glyph name="equal" format="2">
  <advance width="465.2"/>
  <unicode hex="003D"/>
  <outline>
    <contour>
      <point x="60.1" y="423.9" type="line"/>
      <point x="426.8" y="423.9" type="line"/>
      <point x="426.8" y="482.2" type="line"/>
      <point x="60.1" y="482.2" type="line"/>
    </contour>
    <contour>
      <point x="60.1" y="231.8" type="line"/>
      <point x="426.8" y="231.8" type="line"/>
      <point x="426.8" y="290.1" type="line"/>
      <point x="60.1" y="290.1" type="line"/>
    </contour>
  </outline>
</glyph>
<glyph name="question" format="2">
  <advance width="433.5"/>
  <unicode hex="003F"/>
  <outline>
    <contour>
      <point x="171.3" y="204.5" type="line"/>
      <point x="220.0" y="204.5" type="line"/>
      <point x="248.7" y="317.0" type="line"/>
      <point x="372.6" y="371.5"/>
      <point x="468.1" y="446.9"/>
      <point x="468.1" y="572.7" type="curve" smooth="yes"/>
      <point x="468.1" y="673.7"/>
      <point x="405.6" y="724.0"/>
      <point x="305.7" y="724.0" type="curve" smooth="yes"/>
      <point x="192.0" y="724.0"/>
      <point x="122.6" y="659.9"/>
      <point x="122.6" y="590.6" type="curve" smooth="yes"/>
      <point x="122.6" y="554.7"/>
      <point x="146.2" y="533.4"/>
      <point x="191.1" y="533.4" type="curve"/>
      <point x="203.8" y="609.4"/>
      <point x="229.0" y="674.7"/>
      <point x="298.3" y="674.7" type="curve" smooth="yes"/>
      <point x="342.4" y="674.7"/>
      <point x="374.3" y="637.8"/>
      <point x="374.3" y="573.0" type="curve" smooth="yes"/>
      <point x="374.3" y="463.5"/>
      <point x="301.7" y="395.4"/>
      <point x="191.6" y="349.0" type="curve"/>
    </contour>
    <contour>
      <point x="166.8" y="-8.0" type="curve" smooth="yes"/>
      <point x="198.9" y="-8.0"/>
      <point x="231.1" y="14.2"/>
      <point x="231.1" y="72.5" type="curve" smooth="yes"/>
      <point x="231.1" y="108.6"/>
      <point x="209.5" y="127.6"/>
      <point x="178.6" y="127.6" type="curve" smooth="yes"/>
      <point x="143.5" y="127.6"/>
      <point x="115.0" y="97.7"/>
      <point x="115.0" y="47.7" type="curve" smooth="yes"/>
      <point x="115.0" y="11.3"/>
      <point x="135.9" y="-8.0"/>
    </contour>
  </outline>
</glyph>
<glyph name="bracketleft" format="2">
  <advance width="317.3"/>
  <unicode hex="005B"/>
  <outline>
    <contour>
      <point x="2.9000000000000004" y="-128.0" type="line"/>
      <point x="202.8" y="-128.0" type="line"/>
      <point x="211.8" y="-86.7" type="line"/>
      <point x="174.4" y="-86.7" type="line" smooth="yes"/>
      <point x="139.4" y="-86.7"/>
      <point x="115.0" y="-80.7"/>
      <point x="115.0" y="-48.8" type="curve" smooth="yes"/>
      <point x="115.0" y="-42.8"/>
      <point x="116.3" y="-27.4"/>
      <point x="118.3" y="-19.4" type="curve"/>
      <point x="259.6" y="646.7" type="line"/>
      <point x="272.6" y="709.7"/>
      <point x="306.7" y="718.7"/>
      <point x="345.4" y="718.7" type="curve" smooth="yes"/>
      <point x="382.1" y="718.7" type="line"/>
      <point x="391.8" y="760.0" type="line"/>
      <point x="191.9" y="760.0" type="line"/>
    </contour>
  </outline>
</glyph>
<glyph name="backslash" format="2">
  <advance width="248.1"/>
  <unicode hex="005C"/>
  <outline>
    <contour>
      <point x="145.9" y="-121.0" type="line"/>
      <point x="197.9" y="-121.0" type="line"/>
      <point x="160.5" y="760.0" type="line"/>
      <point x="108.8" y="760.0" type="line"/>
    </contour>
  </outline>
</glyph>
<glyph name="bracketright" format="2">
  <advance width="317.3"/>
  <unicode hex="005D"/>
  <outline>
    <contour>
      <point x="-45.6" y="-128.0" type="line"/>
      <point x="154.0" y="-128.0" type="line"/>
      <point x="342.3" y="760.0" type="line"/>
      <point x="143.1" y="760.0" type="line"/>
      <point x="133.4" y="718.7" type="line"/>
      <point x="170.8" y="718.7" type="line" smooth="yes"/>
      <point x="205.1" y="718.7"/>
      <point x="230.9" y="712.7"/>
      <point x="230.9" y="680.8" type="curve" smooth="yes"/>
      <point x="230.9" y="674.1"/>
      <point x="228.9" y="660.1"/>
      <point x="226.9" y="651.4" type="curve" smooth="yes"/>
      <point x="85.6" y="-14.7" type="line"/>
      <point x="72.6" y="-77.7"/>
      <point x="38.5" y="-86.7"/>
      <point x="0.8000000000000007" y="-86.7" type="curve" smooth="yes"/>
      <point x="-35.9" y="-86.7" type="line"/>
    </contour>
  </outline>
</glyph>
<glyph name="asciicircum" format="2">
  <advance width="465.2"/>
  <unicode hex="005E"/>
  <outline>
    <contour>
      <point x="47.5" y="266.7" type="line"/>
      <point x="106.1" y="266.7" type="line"/>
      <point x="242.3" y="623.4" type="line"/>
      <point x="379.8" y="266.7" type="line"/>
      <point x="438.4" y="266.7" type="line"/>
      <point x="258.2" y="714.0" type="line"/>
      <point x="226.7" y="714.0" type="line"/>
    </contour>
  </outline>
</glyph>
<glyph name="underscore" format="2">
  <advance width="394.6"/>
  <unicode hex="005F"/>
  <outline>
    <contour>
      <point x="-82.6" y="-142.0" type="line"/>
      <point x="319.6" y="-142.0" type="line"/>
      <point x="332.6" y="-83.0" type="line"/>
      <point x="-69.6" y="-83.0" type="line"/>
    </contour>
  </outline>
</glyph>
<glyph name="braceleft" format="2">
  <advance width="370.6"/>
  <unicode hex="007B"/>
  <outline>
    <contour>
      <point x="201.2" y="-128.0" type="curve" smooth="yes"/>
      <point x="258.1" y="-128.0" type="line"/>
      <point x="267.1" y="-85.7" type="line"/>
      <point x="239.9" y="-85.7" type="line" smooth="yes"/>
      <point x="203.3" y="-85.7"/>
      <point x="186.8" y="-65.1"/>
      <point x="186.8" y="-26.2" type="curve" smooth="yes"/>
      <point x="186.8" y="-13.5"/>
      <point x="188.8" y="1.9000000000000004"/>
      <point x="192.5" y="19.3" type="curve" smooth="yes"/>
      <point x="228.8" y="185.0" type="line" smooth="yes"/>
      <point x="231.5" y="198.1"/>
      <point x="234.2" y="212.3"/>
      <point x="234.2" y="227.2" type="curve" smooth="yes"/>
      <point x="234.2" y="273.1"/>
      <point x="209.1" y="304.7"/>
      <point x="159.9" y="314.0" type="curve"/>
      <point x="159.9" y="317.3" type="line"/>
      <point x="229.1" y="329.6"/>
      <point x="267.5" y="373.3"/>
      <point x="281.5" y="440.0" type="curve" smooth="yes"/>
      <point x="317.1" y="607.1" type="line" smooth="yes"/>
      <point x="333.5" y="684.9"/>
      <point x="361.0" y="717.7"/>
      <point x="410.2" y="717.7" type="curve" smooth="yes"/>
      <point x="437.4" y="717.7" type="line"/>
      <point x="447.1" y="760.0" type="line"/>
      <point x="390.9" y="760.0" type="line" smooth="yes"/>
      <point x="288.4" y="760.0"/>
      <point x="248.9" y="709.6"/>
      <point x="227.8" y="616.0" type="curve" smooth="yes"/>
      <point x="189.4" y="443.0" type="line" smooth="yes"/>
      <point x="170.7" y="360.3"/>
      <point x="123.8" y="340.3"/>
      <point x="66.9" y="337.3" type="curve"/>
      <point x="57.9" y="296.7" type="line"/>
      <point x="104.8" y="294.7"/>
      <point x="140.1" y="277.7"/>
      <point x="140.1" y="225.5" type="curve" smooth="yes"/>
      <point x="140.1" y="214.1"/>
      <point x="139.1" y="202.0"/>
      <point x="136.1" y="189.3" type="curve" smooth="yes"/>
      <point x="102.6" y="29.0" type="line" smooth="yes"/>
      <point x="98.2" y="8.399999999999999"/>
      <point x="94.8" y="-9.100000000000001"/>
      <point x="94.8" y="-29.1" type="curve" smooth="yes"/>
      <point x="94.8" y="-94.1"/>
      <point x="133.7" y="-128.0"/>
    </contour>
  </outline>
</glyph>
<glyph name="bar" format="2">
  <advance width="477.1"/>
  <unicode hex="007C"/>
  <outline>
    <contour>
      <point x="216.8" y="-240.0" type="line"/>
      <point x="270.5" y="-240.0" type="line"/>
      <point x="270.5" y="760.0" type="line"/>
      <point x="216.8" y="760.0" type="line"/>
    </contour>
  </outline>
</glyph>
<glyph name="braceright" format="2">
  <advance width="369.9"/>
  <unicode hex="007D"/>
  <outline>
    <contour>
      <point x="-47.9" y="-128.7" type="line"/>
      <point x="8.3" y="-128.7" type="line" smooth="yes"/>
      <point x="115.7" y="-128.7"/>
      <point x="152.4" y="-77.6"/>
      <point x="172.1" y="15.3" type="curve" smooth="yes"/>
      <point x="209.1" y="189.3" type="line" smooth="yes"/>
      <point x="226.8" y="272.0"/>
      <point x="275.4" y="293.7"/>
      <point x="331.6" y="296.7" type="curve"/>
      <point x="341.3" y="337.3" type="line"/>
      <point x="294.4" y="339.3"/>
      <point x="258.4" y="354.6"/>
      <point x="258.4" y="407.5" type="curve" smooth="yes"/>
      <point x="258.4" y="420.3"/>
      <point x="260.1" y="430.3"/>
      <point x="263.1" y="443.0" type="curve" smooth="yes"/>
      <point x="299.4" y="617.7" type="line" smooth="yes"/>
      <point x="303.1" y="634.8"/>
      <point x="304.4" y="648.1"/>
      <point x="304.4" y="662.5" type="curve" smooth="yes"/>
      <point x="304.4" y="717.0"/>
      <point x="271.8" y="760.0"/>
      <point x="202.2" y="760.0" type="curve" smooth="yes"/>
      <point x="141.1" y="760.0" type="line"/>
      <point x="132.1" y="717.7" type="line"/>
      <point x="159.3" y="717.7" type="line" smooth="yes"/>
      <point x="195.9" y="717.7"/>
      <point x="212.4" y="698.5"/>
      <point x="212.4" y="663.1" type="curve" smooth="yes"/>
      <point x="212.4" y="643.4"/>
      <point x="210.4" y="629.4"/>
      <point x="206.7" y="612.0" type="curve" smooth="yes"/>
      <point x="170.4" y="445.9" type="line" smooth="yes"/>
      <point x="167.7" y="432.8"/>
      <point x="165.0" y="420.0"/>
      <point x="165.0" y="405.8" type="curve" smooth="yes"/>
      <point x="165.0" y="359.9"/>
      <point x="189.4" y="330.0"/>
      <point x="238.6" y="320.0" type="curve"/>
      <point x="238.6" y="316.0" type="line"/>
      <point x="170.1" y="303.7"/>
      <point x="131.0" y="259.0"/>
      <point x="117.0" y="193.0" type="curve" smooth="yes"/>
      <point x="80.0" y="19.3" type="line" smooth="yes"/>
      <point x="63.6" y="-55.7"/>
      <point x="39.6" y="-86.4"/>
      <point x="-11.0" y="-86.4" type="curve" smooth="yes"/>
      <point x="-38.9" y="-86.4" type="line"/>
    </contour>
  </outline>
</glyph>
<glyph name="asciitilde" format="2">
  <advance width="465.2"/>
  <unicode hex="007E"/>
  <outline>
    <contour>
      <point x="47.7" y="269.7" type="curve"/>
      <point x="103.2" y="269.7" type="line"/>
      <point x="109.5" y="349.8"/>
      <point x="123.7" y="387.8"/>
      <point x="157.8" y="387.8" type="curve" smooth="yes"/>
      <point x="181.8" y="387.8"/>
      <point x="198.8" y="367.6"/>
      <point x="228.4" y="334.1" type="curve" smooth="yes"/>
      <point x="272.4" y="283.4"/>
      <point x="300.0" y="269.7"/>
      <point x="335.1" y="269.7" type="curve" smooth="yes"/>
      <point x="413.0" y="269.7"/>
      <point x="433.7" y="365.9"/>
      <point x="440.3" y="444.0" type="curve"/>
      <point x="384.5" y="444.0" type="line"/>
      <point x="377.6" y="365.1"/>
      <point x="365.4" y="325.9"/>
      <point x="332.6" y="325.9" type="curve" smooth="yes"/>
      <point x="309.5" y="325.9"/>
      <point x="291.2" y="347.1"/>
      <point x="262.5" y="378.0" type="curve" smooth="yes"/>
      <point x="223.2" y="418.9"/>
      <point x="196.1" y="444.0"/>
      <point x="155.0" y="444.0" type="curve" smooth="yes"/>
      <point x="74.7" y="444.0"/>
      <point x="54.0" y="351.6"/>
    </contour>
  </outline>
</glyph>
<glyph name="twosuperior" format="2">
  <advance width="344.0"/>
  <unicode hex="00B2"/>
  <outline>
    <contour>
      <point x="59.1" y="386.0" type="line"/>
      <point x="322.2" y="386.0" type="line"/>
      <point x="349.5" y="502.9" type="line"/>
      <point x="319.7" y="502.9" type="line"/>
      <point x="312.4" y="481.9" type="line" smooth="yes"/>
      <point x="305.1" y="459.9"/>
      <point x="292.5" y="440.9"/>
      <point x="265.7" y="440.9" type="curve" smooth="yes"/>
      <point x="143.8" y="440.9" type="line"/>
      <point x="247.7" y="534.5" type="line" smooth="yes"/>
      <point x="348.0" y="625.4"/>
      <point x="378.0" y="672.1"/>
      <point x="378.0" y="731.8" type="curve" smooth="yes"/>
      <point x="378.0" y="787.4"/>
      <point x="335.4" y="824.0"/>
      <point x="267.3" y="824.0" type="curve" smooth="yes"/>
      <point x="185.6" y="824.0"/>
      <point x="135.6" y="777.2"/>
      <point x="135.6" y="730.7" type="curve" smooth="yes"/>
      <point x="135.6" y="703.4"/>
      <point x="155.4" y="684.8"/>
      <point x="188.4" y="684.8" type="curve"/>
      <point x="195.4" y="736.9"/>
      <point x="220.2" y="784.0"/>
      <point x="259.6" y="784.0" type="curve" smooth="yes"/>
      <point x="291.0" y="784.0"/>
      <point x="303.3" y="757.8"/>
      <point x="303.3" y="726.0" type="curve" smooth="yes"/>
      <point x="303.3" y="667.3"/>
      <point x="275.5" y="618.6"/>
      <point x="197.4" y="543.3" type="curve" smooth="yes"/>
      <point x="66.9" y="419.5" type="line"/>
    </contour>
  </outline>
</glyph>
<glyph name="threesuperior" format="2">
  <advance width="344.0"/>
  <unicode hex="00B3"/>
  <outline>
    <contour>
      <point x="191.1" y="380.0" type="curve" smooth="yes"/>
      <point x="288.3" y="380.0"/>
      <point x="359.9" y="429.4"/>
      <point x="359.9" y="518.0" type="curve" smooth="yes"/>
      <point x="359.9" y="569.5"/>
      <point x="327.6" y="603.7"/>
      <point x="276.4" y="610.7" type="curve"/>
      <point x="276.7" y="614.3" type="line"/>
      <point x="342.0" y="630.7"/>
      <point x="390.7" y="664.4"/>
      <point x="390.7" y="735.8" type="curve" smooth="yes"/>
      <point x="390.7" y="784.4"/>
      <point x="354.7" y="824.0"/>
      <point x="276.0" y="824.0" type="curve" smooth="yes"/>
      <point x="191.9" y="824.0"/>
      <point x="141.2" y="784.6"/>
      <point x="141.2" y="737.6" type="curve" smooth="yes"/>
      <point x="141.2" y="706.3"/>
      <point x="163.0" y="697.0"/>
      <point x="196.7" y="697.0" type="curve"/>
      <point x="206.4" y="743.0"/>
      <point x="224.8" y="783.3"/>
      <point x="270.2" y="783.3" type="curve" smooth="yes"/>
      <point x="297.3" y="783.3"/>
      <point x="312.7" y="764.7"/>
      <point x="312.7" y="733.5" type="curve" smooth="yes"/>
      <point x="312.7" y="669.7"/>
      <point x="262.9" y="630.0"/>
      <point x="211.5" y="630.0" type="curve" smooth="yes"/>
      <point x="182.7" y="630.0" type="line"/>
      <point x="174.7" y="589.7" type="line"/>
      <point x="202.8" y="589.7" type="line" smooth="yes"/>
      <point x="258.8" y="589.7"/>
      <point x="282.6" y="558.9"/>
      <point x="282.6" y="515.4" type="curve" smooth="yes"/>
      <point x="282.6" y="450.7"/>
      <point x="244.4" y="425.0"/>
      <point x="198.1" y="425.0" type="curve" smooth="yes"/>
      <point x="145.7" y="425.0"/>
      <point x="126.9" y="471.3"/>
      <point x="128.3" y="511.0" type="curve"/>
      <point x="99.1" y="511.0"/>
      <point x="75.5" y="491.6"/>
      <point x="75.5" y="456.3" type="curve" smooth="yes"/>
      <point x="75.5" y="411.4"/>
      <point x="115.5" y="380.0"/>
    </contour>
  </outline>
</glyph>
<glyph name="multiply" format="2">
  <advance width="465.2"/>
  <unicode hex="00D7"/>
  <outline>
    <contour>
      <point x="106.0" y="150.7" type="line"/>
      <point x="245.4" y="314.6" type="line"/>
      <point x="384.1" y="150.7" type="line"/>
      <point x="426.8" y="187.8" type="line"/>
      <point x="282.5" y="358.0" type="line"/>
      <point x="426.8" y="527.5" type="line"/>
      <point x="384.1" y="564.9" type="line"/>
      <point x="245.4" y="402.1" type="line"/>
      <point x="106.0" y="565.3" type="line"/>
      <point x="63.3" y="528.2" type="line"/>
      <point x="208.3" y="358.3" type="line"/>
      <point x="63.3" y="187.4" type="line"/>
    </contour>
  </outline>
</glyph>
<glyph name="divide" format="2">
  <advance width="465.2"/>
  <unicode hex="00F7"/>
  <outline>
    <contour>
      <point x="60.1" y="328.7" type="line"/>
      <point x="426.1" y="328.7" type="line"/>
      <point x="426.1" y="386.3" type="line"/>
      <point x="60.1" y="386.3" type="line"/>
    </contour>
    <contour>
      <point x="244.3" y="113.7" type="curve" smooth="yes"/>
      <point x="268.8" y="113.7"/>
      <point x="289.7" y="127.7"/>
      <point x="289.7" y="168.0" type="curve" smooth="yes"/>
      <point x="289.7" y="209.3"/>
      <point x="268.8" y="222.3"/>
      <point x="244.3" y="222.3" type="curve" smooth="yes"/>
      <point x="217.4" y="222.3"/>
      <point x="198.2" y="209.3"/>
      <point x="198.2" y="168.0" type="curve" smooth="yes"/>
      <point x="198.2" y="127.7"/>
      <point x="217.4" y="113.7"/>
    </contour>
    <contour>
      <point x="244.3" y="492.7" type="curve" smooth="yes"/>
      <point x="268.8" y="492.7"/>
      <point x="289.7" y="506.7"/>
      <point x="289.7" y="547.0" type="curve" smooth="yes"/>
      <point x="289.7" y="588.3"/>
      <point x="268.8" y="601.3"/>
      <point x="244.3" y="601.3" type="curve" smooth="yes"/>
      <point x="217.4" y="601.3"/>
      <point x="198.2" y="588.3"/>
      <point x="198.2" y="547.0" type="curve" smooth="yes"/>
      <point x="198.2" y="506.7"/>
      <point x="217.4" y="492.7"/>
    </contour>
  </outline>
</glyph>
<glyph name="udatta-deva" format="2">
  <unicode hex="0951"/>
  <anchor x="59.0" y="554.0" name="_vedic"/>
  <outline>
    <contour>
      <point x="111.1" y="915.5" type="line"/>
      <point x="161.3" y="915.5" type="line"/>
      <point x="202.3" y="1110.5" type="line"/>
      <point x="152.1" y="1110.5" type="line"/>
    </contour>
  </outline>
</glyph>
<glyph name="danda-deva" format="2">
  <advance width="258.4"/>
  <unicode hex="0964"/>
  <outline>
    <contour>
      <point x="25.8" y="0.0" type="line"/>
      <point x="115.3" y="0.0" type="line"/>
      <point x="233.3" y="554.0" type="line"/>
      <point x="143.1" y="554.0" type="line"/>
    </contour>
  </outline>
</glyph>
<glyph name="dbldanda-deva" format="2">
  <advance width="465.0"/>
  <unicode hex="0965"/>
  <outline>
    <contour>
      <point x="232.4" y="0.0" type="line"/>
      <point x="321.9" y="0.0" type="line"/>
      <point x="439.9" y="554.0" type="line"/>
      <point x="349.7" y="554.0" type="line"/>
    </contour>
    <contour>
      <point x="25.8" y="0.0" type="line"/>
      <point x="115.3" y="0.0" type="line"/>
      <point x="233.3" y="554.0" type="line"/>
      <point x="143.1" y="554.0" type="line"/>
    </contour>
  </outline>
</glyph>
<glyph name="anusvara-tamil" format="2">
  <unicode hex="0B82"/>
  <note>
uni0B82
</note>
  <anchor x="59.0" y="554.0" name="_top"/>
  <outline>
    <contour>
      <point x="98.2" y="633.0" type="curve" smooth="yes"/>
      <point x="161.2" y="633.0"/>
      <point x="207.3" y="675.4"/>
      <point x="207.3" y="739.1" type="curve" smooth="yes"/>
      <point x="207.3" y="802.4"/>
      <point x="161.2" y="845.5"/>
      <point x="98.2" y="845.5" type="curve" smooth="yes"/>
      <point x="35.2" y="845.5"/>
      <point x="-10.9" y="802.4"/>
      <point x="-10.9" y="739.1" type="curve" smooth="yes"/>
      <point x="-10.9" y="675.4"/>
      <point x="35.2" y="633.0"/>
    </contour>
    <contour>
      <point x="98.2" y="687.0" type="curve" smooth="yes"/>
      <point x="68.2" y="687.0"/>
      <point x="47.8" y="708.1"/>
      <point x="47.8" y="739.1" type="curve" smooth="yes"/>
      <point x="47.8" y="770.4"/>
      <point x="68.2" y="791.5"/>
      <point x="98.2" y="791.5" type="curve" smooth="yes"/>
      <point x="128.2" y="791.5"/>
      <point x="148.6" y="770.4"/>
      <point x="148.6" y="739.1" type="curve" smooth="yes"/>
      <point x="148.6" y="708.1"/>
      <point x="128.2" y="687.0"/>
    </contour>
  </outline>
</glyph>
<glyph name="visarga-tamil" format="2">
  <advance width="735.6"/>
  <unicode hex="0B83"/>
  <note>
uni0B83
</note>
  <outline>
    <contour>
      <point x="138.8" y="0.0" type="curve" smooth="yes"/>
      <point x="237.6" y="0.0"/>
      <point x="314.0" y="103.1"/>
      <point x="314.7" y="226.6" type="curve" smooth="yes"/>
      <point x="315.4" y="321.0"/>
      <point x="266.0" y="369.0"/>
      <point x="196.4" y="369.0" type="curve" smooth="yes"/>
      <point x="91.2" y="369.0"/>
      <point x="27.4" y="242.0"/>
      <point x="27.4" y="137.6" type="curve" smooth="yes"/>
      <point x="27.4" y="56.7"/>
      <point x="69.0" y="0.0"/>
    </contour>
    <contour>
      <point x="136.4" y="52.5" type="curve" smooth="yes"/>
      <point x="92.1" y="52.5"/>
      <point x="74.7" y="89.4"/>
      <point x="74.7" y="142.4" type="curve" smooth="yes"/>
      <point x="74.7" y="214.2"/>
      <point x="114.7" y="316.8"/>
      <point x="182.6" y="316.8" type="curve" smooth="yes"/>
      <point x="223.3" y="316.8"/>
      <point x="246.3" y="289.3"/>
      <point x="246.3" y="232.2" type="curve" smooth="yes"/>
      <point x="246.3" y="147.3"/>
      <point x="204.9" y="52.5"/>
    </contour>
    <contour>
      <point x="491.3" y="0.0" type="curve" smooth="yes"/>
      <point x="590.1" y="0.0"/>
      <point x="666.5" y="103.1"/>
      <point x="667.2" y="226.6" type="curve" smooth="yes"/>
      <point x="667.9" y="321.0"/>
      <point x="618.5" y="369.0"/>
      <point x="548.9" y="369.0" type="curve" smooth="yes"/>
      <point x="443.7" y="369.0"/>
      <point x="379.9" y="242.0"/>
      <point x="379.9" y="137.6" type="curve" smooth="yes"/>
      <point x="379.9" y="56.7"/>
      <point x="421.5" y="0.0"/>
    </contour>
    <contour>
      <point x="488.9" y="52.5" type="curve" smooth="yes"/>
      <point x="444.6" y="52.5"/>
      <point x="427.2" y="89.4"/>
      <point x="427.2" y="142.4" type="curve" smooth="yes"/>
      <point x="427.2" y="214.2"/>
      <point x="467.2" y="316.8"/>
      <point x="535.1" y="316.8" type="curve" smooth="yes"/>
      <point x="575.8" y="316.8"/>
      <point x="598.8" y="289.3"/>
      <point x="598.8" y="232.2" type="curve" smooth="yes"/>
      <point x="598.8" y="147.3"/>
      <point x="557.4" y="52.5"/>
    </contour>
    <contour>
      <point x="401.3" y="412.0" type="curve" smooth="yes"/>
      <point x="500.1" y="412.0"/>
      <point x="576.5" y="515.1"/>
      <point x="577.2" y="638.6" type="curve" smooth="yes"/>
      <point x="577.9" y="733.0"/>
      <point x="528.5" y="781.0"/>
      <point x="458.9" y="781.0" type="curve" smooth="yes"/>
      <point x="353.7" y="781.0"/>
      <point x="289.9" y="654.0"/>
      <point x="289.9" y="549.6" type="curve" smooth="yes"/>
      <point x="289.9" y="468.7"/>
      <point x="331.5" y="412.0"/>
    </contour>
    <contour>
      <point x="398.9" y="464.5" type="curve" smooth="yes"/>
      <point x="354.6" y="464.5"/>
      <point x="337.2" y="501.4"/>
      <point x="337.2" y="554.4" type="curve" smooth="yes"/>
      <point x="337.2" y="626.2"/>
      <point x="377.2" y="728.8"/>
      <point x="445.1" y="728.8" type="curve" smooth="yes"/>
      <point x="485.8" y="728.8"/>
      <point x="508.8" y="701.3"/>
      <point x="508.8" y="644.2" type="curve" smooth="yes"/>
      <point x="508.8" y="559.3"/>
      <point x="467.4" y="464.5"/>
    </contour>
  </outline>
</glyph>
<glyph name="a-tamil" format="2">
  <advance width="1060.1"/>
  <unicode hex="0B85"/>
  <note>
uni0B85
</note>
  <anchor x="455.9" y="0.0" name="bottom"/>
  <anchor x="283.3" y="-122.0" name="nukta"/>
  <anchor x="567.8" y="554.0" name="top"/>
  <anchor x="569.2" y="554.0" name="vedic"/>
  <outline>
    <contour>
      <point x="790.5" y="-188.5" type="line"/>
      <point x="880.0" y="-188.5" type="line"/>
      <point x="1037.9" y="554.0" type="line"/>
      <point x="948.4" y="554.0" type="line"/>
      <point x="866.7" y="171.0" type="line"/>
      <point x="79.1" y="171.0" type="line" smooth="yes"/>
      <point x="22.1" y="171.0"/>
      <point x="-5.5" y="134.9"/>
      <point x="-5.5" y="82.1" type="curve" smooth="yes"/>
      <point x="-5.5" y="-8.5"/>
      <point x="107.1" y="-122.0"/>
      <point x="290.8" y="-122.0" type="curve" smooth="yes"/>
      <point x="563.5" y="-122.0"/>
      <point x="770.0" y="46.5"/>
      <point x="770.0" y="312.2" type="curve" smooth="yes"/>
      <point x="770.0" y="475.1"/>
      <point x="666.7" y="559.0"/>
      <point x="535.5" y="559.0" type="curve" smooth="yes"/>
      <point x="415.9" y="559.0"/>
      <point x="316.4" y="479.5"/>
      <point x="316.4" y="364.7" type="curve" smooth="yes"/>
      <point x="316.4" y="303.6"/>
      <point x="353.2" y="247.0"/>
      <point x="428.3" y="247.0" type="curve" smooth="yes"/>
      <point x="514.0" y="247.0"/>
      <point x="571.3" y="304.7"/>
      <point x="571.3" y="389.5" type="curve" smooth="yes"/>
      <point x="571.3" y="449.0"/>
      <point x="534.4" y="506.1"/>
      <point x="486.2" y="517.6" type="curve"/>
      <point x="441.7" y="517.4" type="line"/>
      <point x="475.1" y="499.9"/>
      <point x="494.8" y="453.5"/>
      <point x="494.8" y="405.0" type="curve" smooth="yes"/>
      <point x="494.8" y="347.0"/>
      <point x="465.6" y="301.0"/>
      <point x="416.9" y="301.0" type="curve" smooth="yes"/>
      <point x="383.3" y="301.0"/>
      <point x="365.7" y="330.7"/>
      <point x="365.7" y="366.9" type="curve" smooth="yes"/>
      <point x="365.7" y="446.0"/>
      <point x="434.1" y="505.0"/>
      <point x="522.0" y="505.0" type="curve" smooth="yes"/>
      <point x="613.5" y="505.0"/>
      <point x="679.2" y="437.9"/>
      <point x="679.2" y="310.0" type="curve" smooth="yes"/>
      <point x="679.2" y="95.9"/>
      <point x="521.3" y="-68.0"/>
      <point x="295.5" y="-68.0" type="curve" smooth="yes"/>
      <point x="140.4" y="-68.0"/>
      <point x="49.0" y="21.8"/>
      <point x="49.0" y="83.8" type="curve" smooth="yes"/>
      <point x="49.0" y="105.8"/>
      <point x="59.1" y="117.0"/>
      <point x="81.7" y="117.0" type="curve" smooth="yes"/>
      <point x="855.7" y="117.0" type="line"/>
    </contour>
  </outline>
</glyph>
<glyph name="aa-tamil" format="2">
  <advance width="1198.3"/>
  <unicode hex="0B86"/>
  <note>
uni0B86
</note>
  <anchor x="520.3" y="0.0" name="bottom"/>
  <anchor x="281.2" y="-122.0" name="nukta"/>
  <anchor x="647.9" y="554.0" name="top"/>
  <anchor x="648.3" y="554.0" name="vedic"/>
  <outline>
    <contour>
      <point x="673.2" y="-419.2" type="curve" smooth="yes"/>
      <point x="876.9" y="-419.2"/>
      <point x="1102.9" y="-264.7"/>
      <point x="1102.9" y="-66.8" type="curve" smooth="yes"/>
      <point x="1102.9" y="9.0"/>
      <point x="1065.6" y="45.0"/>
      <point x="1010.1" y="45.0" type="curve" smooth="yes"/>
      <point x="952.1" y="45.0"/>
      <point x="900.2" y="-11.2"/>
      <point x="877.2" y="-95.2" type="curve"/>
      <point x="895.0" y="-104.4" type="line"/>
      <point x="905.6" y="-56.8"/>
      <point x="934.2" y="-32.5"/>
      <point x="964.0" y="-32.5" type="curve" smooth="yes"/>
      <point x="993.7" y="-32.5"/>
      <point x="1011.8" y="-51.1"/>
      <point x="1011.8" y="-86.9" type="curve" smooth="yes"/>
      <point x="1011.8" y="-241.7"/>
      <point x="829.5" y="-365.2"/>
      <point x="673.8" y="-365.2" type="curve" smooth="yes"/>
      <point x="590.3" y="-365.2"/>
      <point x="548.1" y="-334.3"/>
      <point x="548.1" y="-281.0" type="curve" smooth="yes"/>
      <point x="548.1" y="-232.5"/>
      <point x="592.9" y="-202.2"/>
      <point x="657.4" y="-186.7" type="curve"/>
      <point x="646.5" y="-135.1" type="line"/>
      <point x="557.6" y="-158.0"/>
      <point x="492.4" y="-205.5"/>
      <point x="492.4" y="-288.4" type="curve" smooth="yes"/>
      <point x="492.4" y="-367.4"/>
      <point x="560.8" y="-419.2"/>
    </contour>
    <component base="a-tamil"/>
  </outline>
</glyph>
<glyph name="i-tamil" format="2">
  <advance width="827.3"/>
  <unicode hex="0B87"/>
  <note>
uni0B87
</note>
  <anchor x="335.6" y="0.0" name="bottom"/>
  <anchor x="278.9" y="-267.8" name="nukta"/>
  <anchor x="490.5" y="819.2" name="top"/>
  <anchor x="435.1" y="554.0" name="vedic"/>
  <outline>
    <contour>
      <point x="97.1" y="-297.0" type="curve" smooth="yes"/>
      <point x="368.6" y="-297.0"/>
      <point x="633.6" y="45.0"/>
      <point x="633.6" y="336.2" type="curve" smooth="yes"/>
      <point x="633.6" y="487.4"/>
      <point x="550.9" y="559.0"/>
      <point x="434.5" y="559.0" type="curve" smooth="yes"/>
      <point x="321.8" y="559.0"/>
      <point x="230.6" y="465.1"/>
      <point x="230.6" y="357.0" type="curve" smooth="yes"/>
      <point x="230.6" y="294.5"/>
      <point x="271.5" y="248.0"/>
      <point x="338.9" y="248.0" type="curve" smooth="yes"/>
      <point x="415.4" y="248.0"/>
      <point x="475.0" y="304.9"/>
      <point x="475.0" y="388.1" type="curve" smooth="yes"/>
      <point x="475.0" y="448.9"/>
      <point x="447.7" y="497.8"/>
      <point x="395.8" y="517.0" type="curve"/>
      <point x="349.1" y="512.6" type="line"/>
      <point x="381.8" y="493.4"/>
      <point x="400.9" y="455.6"/>
      <point x="400.9" y="405.9" type="curve" smooth="yes"/>
      <point x="400.9" y="352.3"/>
      <point x="374.7" y="300.6"/>
      <point x="326.2" y="300.6" type="curve" smooth="yes"/>
      <point x="298.6" y="300.6"/>
      <point x="280.2" y="322.8"/>
      <point x="280.2" y="360.3" type="curve" smooth="yes"/>
      <point x="280.2" y="432.2"/>
      <point x="335.3" y="505.0"/>
      <point x="420.0" y="505.0" type="curve" smooth="yes"/>
      <point x="500.4" y="505.0"/>
      <point x="548.2" y="449.8"/>
      <point x="548.2" y="344.9" type="curve" smooth="yes"/>
      <point x="548.2" y="83.3"/>
      <point x="338.6" y="-243.0"/>
      <point x="105.4" y="-243.0" type="curve" smooth="yes"/>
      <point x="44.2" y="-243.0"/>
      <point x="11.3" y="-209.6"/>
      <point x="11.3" y="-155.9" type="curve" smooth="yes"/>
      <point x="11.3" y="-28.7"/>
      <point x="168.10000000000002" y="57.0"/>
      <point x="324.3" y="57.0" type="curve" smooth="yes"/>
      <point x="460.5" y="57.0"/>
      <point x="598.3" y="-13.2"/>
      <point x="598.3" y="-123.2" type="curve" smooth="yes"/>
      <point x="598.3" y="-204.8"/>
      <point x="547.5" y="-243.0"/>
      <point x="465.2" y="-243.0" type="curve" smooth="yes"/>
      <point x="286.9" y="-243.0"/>
      <point x="128.7" y="2.8000000000000007"/>
      <point x="128.7" y="277.2" type="curve" smooth="yes"/>
      <point x="128.7" y="534.4"/>
      <point x="238.0" y="729.9"/>
      <point x="476.5" y="729.9" type="curve" smooth="yes"/>
      <point x="663.8" y="729.9"/>
      <point x="783.8" y="605.1"/>
      <point x="731.4" y="361.3" type="curve" smooth="yes"/>
      <point x="672.6" y="86.0" type="line"/>
      <point x="727.5" y="86.0" type="line"/>
      <point x="787.0" y="365.5" type="line" smooth="yes"/>
      <point x="848.2" y="652.2"/>
      <point x="724.4" y="819.2"/>
      <point x="490.5" y="819.2" type="curve" smooth="yes"/>
      <point x="220.2" y="819.2"/>
      <point x="70.3" y="587.3"/>
      <point x="70.3" y="279.7" type="curve" smooth="yes"/>
      <point x="70.3" y="-22.7"/>
      <point x="244.0" y="-297.0"/>
      <point x="478.0" y="-297.0" type="curve" smooth="yes"/>
      <point x="579.9" y="-297.0"/>
      <point x="658.7" y="-240.6"/>
      <point x="658.7" y="-125.2" type="curve" smooth="yes"/>
      <point x="658.7" y="23.5"/>
      <point x="499.5" y="110.0"/>
      <point x="326.8" y="110.0" type="curve" smooth="yes"/>
      <point x="130.2" y="110.0"/>
      <point x="-50.4" y="-3.3999999999999986"/>
      <point x="-50.4" y="-165.0" type="curve" smooth="yes"/>
      <point x="-50.4" y="-243.4"/>
      <point x="5.0" y="-297.0"/>
    </contour>
  </outline>
</glyph>
<glyph name="ii-tamil" format="2">
  <advance width="641.0"/>
  <unicode hex="0B88"/>
  <note>
uni0B88
</note>
  <anchor x="278.3" y="0.0" name="bottom"/>
  <anchor x="279.0" y="0.0" name="nukta"/>
  <anchor x="397.6" y="554.0" name="top"/>
  <anchor x="398.3" y="554.0" name="vedic"/>
  <outline>
    <contour>
      <point x="22.900000000000002" y="0.0" type="line"/>
      <point x="78.7" y="0.0" type="line"/>
      <point x="184.7" y="500.0" type="line"/>
      <point x="398.9" y="500.0" type="line"/>
      <point x="292.6" y="0.0" type="line"/>
      <point x="382.1" y="0.0" type="line"/>
      <point x="488.1" y="500.0" type="line"/>
      <point x="644.4" y="500.0" type="line"/>
      <point x="656.4" y="554.0" type="line"/>
      <point x="140.2" y="554.0" type="line"/>
    </contour>
    <contour>
      <point x="240.2" y="213.1" type="curve" smooth="yes"/>
      <point x="269.5" y="213.1"/>
      <point x="292.5" y="236.7"/>
      <point x="292.5" y="264.0" type="curve" smooth="yes"/>
      <point x="292.5" y="291.3"/>
      <point x="269.5" y="315.3"/>
      <point x="240.2" y="315.3" type="curve" smooth="yes"/>
      <point x="210.9" y="315.3"/>
      <point x="187.9" y="291.3"/>
      <point x="187.9" y="264.0" type="curve" smooth="yes"/>
      <point x="187.9" y="236.7"/>
      <point x="210.9" y="213.1"/>
    </contour>
    <contour>
      <point x="544.0" y="213.1" type="curve" smooth="yes"/>
      <point x="573.3" y="213.1"/>
      <point x="596.3" y="236.7"/>
      <point x="596.3" y="264.0" type="curve" smooth="yes"/>
      <point x="596.3" y="291.3"/>
      <point x="573.3" y="315.3"/>
      <point x="544.0" y="315.3" type="curve" smooth="yes"/>
      <point x="514.7" y="315.3"/>
      <point x="491.7" y="291.3"/>
      <point x="491.7" y="264.0" type="curve" smooth="yes"/>
      <point x="491.7" y="236.7"/>
      <point x="514.7" y="213.1"/>
    </contour>
  </outline>
</glyph>
<glyph name="u-tamil" format="2">
  <advance width="811.0"/>
  <unicode hex="0B89"/>
  <note>
uni0B89
</note>
  <anchor x="375.9" y="0.0" name="bottom"/>
  <anchor x="376.6" y="0.0" name="nukta"/>
  <anchor x="497.3" y="554.0" name="top"/>
  <anchor x="496.9" y="554.0" name="vedic"/>
  <outline>
    <contour>
      <point x="83.3" y="0.0" type="curve" smooth="yes"/>
      <point x="726.7" y="0.0" type="line"/>
      <point x="738.0" y="54.0" type="line"/>
      <point x="89.1" y="54.0" type="line" smooth="yes"/>
      <point x="67.7" y="54.0"/>
      <point x="51.7" y="69.2"/>
      <point x="51.7" y="91.0" type="curve" smooth="yes"/>
      <point x="51.7" y="121.1"/>
      <point x="75.7" y="135.0"/>
      <point x="96.7" y="135.0" type="curve" smooth="yes"/>
      <point x="283.2" y="135.0" type="line" smooth="yes"/>
      <point x="432.0" y="135.0"/>
      <point x="551.8" y="217.1"/>
      <point x="551.8" y="367.7" type="curve" smooth="yes"/>
      <point x="551.8" y="496.4"/>
      <point x="456.2" y="559.0"/>
      <point x="346.2" y="559.0" type="curve" smooth="yes"/>
      <point x="227.6" y="559.0"/>
      <point x="130.1" y="470.7"/>
      <point x="130.1" y="362.4" type="curve" smooth="yes"/>
      <point x="130.1" y="301.9"/>
      <point x="166.5" y="247.0"/>
      <point x="239.2" y="247.0" type="curve" smooth="yes"/>
      <point x="319.9" y="247.0"/>
      <point x="380.2" y="303.2"/>
      <point x="380.2" y="392.0" type="curve" smooth="yes"/>
      <point x="380.2" y="450.1"/>
      <point x="347.4" y="500.8"/>
      <point x="302.2" y="519.0" type="curve"/>
      <point x="257.6" y="516.0" type="line"/>
      <point x="287.6" y="491.3"/>
      <point x="304.4" y="445.6"/>
      <point x="304.4" y="402.0" type="curve" smooth="yes"/>
      <point x="304.4" y="347.4"/>
      <point x="280.4" y="301.0"/>
      <point x="229.1" y="301.0" type="curve" smooth="yes"/>
      <point x="194.5" y="301.0"/>
      <point x="180.1" y="331.0"/>
      <point x="180.1" y="365.8" type="curve" smooth="yes"/>
      <point x="180.1" y="441.5"/>
      <point x="245.1" y="505.0"/>
      <point x="331.5" y="505.0" type="curve" smooth="yes"/>
      <point x="407.8" y="505.0"/>
      <point x="463.0" y="461.8"/>
      <point x="463.0" y="369.2" type="curve" smooth="yes"/>
      <point x="463.0" y="258.9"/>
      <point x="389.5" y="188.0"/>
      <point x="281.9" y="188.0" type="curve" smooth="yes"/>
      <point x="102.6" y="188.0" type="line" smooth="yes"/>
      <point x="39.7" y="188.0"/>
      <point x="-2.799999999999999" y="144.3"/>
      <point x="-2.799999999999999" y="84.4" type="curve" smooth="yes"/>
      <point x="-2.799999999999999" y="38.9"/>
      <point x="29.200000000000003" y="0.0"/>
    </contour>
  </outline>
</glyph>
<glyph name="uu-tamil" format="2">
  <advance width="1378.4"/>
  <unicode hex="0B8A"/>
  <note>
uni0B8A
</note>
  <anchor x="656.1" y="0.0" name="bottom"/>
  <anchor x="656.4" y="0.0" name="nukta"/>
  <anchor x="777.4" y="554.0" name="top"/>
  <anchor x="777.1" y="554.0" name="vedic"/>
  <outline>
    <contour>
      <point x="83.3" y="0.0" type="curve" smooth="yes"/>
      <point x="1297.5" y="0.0" type="line"/>
      <point x="1308.8" y="54.0" type="line"/>
      <point x="89.1" y="54.0" type="line" smooth="yes"/>
      <point x="67.7" y="54.0"/>
      <point x="51.7" y="69.2"/>
      <point x="51.7" y="91.0" type="curve" smooth="yes"/>
      <point x="51.7" y="121.1"/>
      <point x="75.7" y="135.0"/>
      <point x="96.7" y="135.0" type="curve" smooth="yes"/>
      <point x="283.2" y="135.0" type="line" smooth="yes"/>
      <point x="432.0" y="135.0"/>
      <point x="551.8" y="217.1"/>
      <point x="551.8" y="367.7" type="curve" smooth="yes"/>
      <point x="551.8" y="496.4"/>
      <point x="456.2" y="559.0"/>
      <point x="346.2" y="559.0" type="curve" smooth="yes"/>
      <point x="227.6" y="559.0"/>
      <point x="130.1" y="470.7"/>
      <point x="130.1" y="362.4" type="curve" smooth="yes"/>
      <point x="130.1" y="301.9"/>
      <point x="166.5" y="247.0"/>
      <point x="239.2" y="247.0" type="curve" smooth="yes"/>
      <point x="319.9" y="247.0"/>
      <point x="380.2" y="303.2"/>
      <point x="380.2" y="392.0" type="curve" smooth="yes"/>
      <point x="380.2" y="450.1"/>
      <point x="347.4" y="500.8"/>
      <point x="302.2" y="519.0" type="curve"/>
      <point x="257.6" y="516.0" type="line"/>
      <point x="287.6" y="491.3"/>
      <point x="304.4" y="445.6"/>
      <point x="304.4" y="402.0" type="curve" smooth="yes"/>
      <point x="304.4" y="347.4"/>
      <point x="280.4" y="301.0"/>
      <point x="229.1" y="301.0" type="curve" smooth="yes"/>
      <point x="194.5" y="301.0"/>
      <point x="180.1" y="331.0"/>
      <point x="180.1" y="365.8" type="curve" smooth="yes"/>
      <point x="180.1" y="441.5"/>
      <point x="245.1" y="505.0"/>
      <point x="331.5" y="505.0" type="curve" smooth="yes"/>
      <point x="407.8" y="505.0"/>
      <point x="463.0" y="461.8"/>
      <point x="463.0" y="369.2" type="curve" smooth="yes"/>
      <point x="463.0" y="258.9"/>
      <point x="389.5" y="188.0"/>
      <point x="281.9" y="188.0" type="curve" smooth="yes"/>
      <point x="102.6" y="188.0" type="line" smooth="yes"/>
      <point x="39.7" y="188.0"/>
      <point x="-2.799999999999999" y="144.3"/>
      <point x="-2.799999999999999" y="84.4" type="curve" smooth="yes"/>
      <point x="-2.799999999999999" y="38.9"/>
      <point x="29.200000000000003" y="0.0"/>
    </contour>
    <contour>
      <point x="730.5" y="103.0" type="curve" smooth="yes"/>
      <point x="817.2" y="103.0"/>
      <point x="886.9" y="173.4"/>
      <point x="886.9" y="274.5" type="curve" smooth="yes"/>
      <point x="886.9" y="350.0"/>
      <point x="839.5" y="390.0"/>
      <point x="780.3" y="390.0" type="curve" smooth="yes"/>
      <point x="716.9" y="390.0"/>
      <point x="658.6" y="330.3"/>
      <point x="634.3" y="248.3" type="curve"/>
      <point x="644.4" y="212.9" type="line"/>
      <point x="660.2" y="277.3"/>
      <point x="704.8" y="327.0"/>
      <point x="748.1" y="327.0" type="curve" smooth="yes"/>
      <point x="783.6" y="327.0"/>
      <point x="805.0" y="303.0"/>
      <point x="805.0" y="258.3" type="curve" smooth="yes"/>
      <point x="805.0" y="204.0"/>
      <point x="773.2" y="156.0"/>
      <point x="721.9" y="156.0" type="curve" smooth="yes"/>
      <point x="678.4" y="156.0"/>
      <point x="655.9" y="197.5"/>
      <point x="655.9" y="262.6" type="curve" smooth="yes"/>
      <point x="655.9" y="388.4"/>
      <point x="729.5" y="505.0"/>
      <point x="847.7" y="505.0" type="curve" smooth="yes"/>
      <point x="947.7" y="505.0"/>
      <point x="995.3" y="422.1"/>
      <point x="971.5" y="305.0" type="curve"/>
      <point x="1015.3" y="305.0" type="line"/>
      <point x="1045.2" y="453.0"/>
      <point x="981.8" y="559.0"/>
      <point x="849.9" y="559.0" type="curve" smooth="yes"/>
      <point x="705.8" y="559.0"/>
      <point x="603.1" y="419.3"/>
      <point x="603.1" y="260.5" type="curve" smooth="yes"/>
      <point x="603.1" y="175.0"/>
      <point x="644.8" y="103.0"/>
    </contour>
    <contour>
      <point x="929.0" y="107.0" type="line"/>
      <point x="1017.1" y="107.0" type="line"/>
      <point x="1100.4" y="502.0" type="line"/>
      <point x="1233.7" y="502.0" type="line"/>
      <point x="1149.7" y="107.0" type="line"/>
      <point x="1237.1" y="107.0" type="line"/>
      <point x="1321.1" y="502.0" type="line"/>
      <point x="1403.8" y="502.0" type="line"/>
      <point x="1414.8" y="554.0" type="line"/>
      <point x="1034.3" y="554.0" type="line"/>
      <point x="997.3" y="379.0" type="line"/>
      <point x="986.0" y="375.0" type="line"/>
    </contour>
  </outline>
</glyph>
<glyph name="e-tamil" format="2">
  <advance width="754.8"/>
  <unicode hex="0B8E"/>
  <note>
uni0B8E
</note>
  <anchor x="335.2" y="0.0" name="bottom"/>
  <anchor x="336.2" y="0.0" name="nukta"/>
  <anchor x="455.6" y="554.0" name="top"/>
  <anchor x="456.2" y="554.0" name="vedic"/>
  <outline>
    <contour>
      <point x="190.1" y="-5.0" type="curve" smooth="yes"/>
      <point x="275.7" y="-5.0"/>
      <point x="355.6" y="62.7"/>
      <point x="355.6" y="171.6" type="curve" smooth="yes"/>
      <point x="355.6" y="251.6"/>
      <point x="305.4" y="303.0"/>
      <point x="233.7" y="303.0" type="curve" smooth="yes"/>
      <point x="152.7" y="303.0"/>
      <point x="91.2" y="234.6"/>
      <point x="63.7" y="137.7" type="curve"/>
      <point x="87.6" y="110.0" type="line"/>
      <point x="109.0" y="190.3"/>
      <point x="149.4" y="236.0"/>
      <point x="201.6" y="236.0" type="curve" smooth="yes"/>
      <point x="241.60000000000002" y="236.0"/>
      <point x="267.2" y="206.0"/>
      <point x="267.2" y="156.1" type="curve" smooth="yes"/>
      <point x="267.2" y="96.2"/>
      <point x="233.7" y="49.0"/>
      <point x="178.4" y="49.0" type="curve" smooth="yes"/>
      <point x="121.5" y="49.0"/>
      <point x="86.3" y="104.1"/>
      <point x="86.3" y="204.7" type="curve" smooth="yes"/>
      <point x="86.3" y="352.8"/>
      <point x="183.8" y="500.0"/>
      <point x="361.6" y="500.0" type="curve" smooth="yes"/>
      <point x="559.5" y="500.0" type="line"/>
      <point x="453.5" y="0.0" type="line"/>
      <point x="543.0" y="0.0" type="line"/>
      <point x="649.0" y="500.0" type="line"/>
      <point x="781.0" y="500.0" type="line"/>
      <point x="792.0" y="554.0" type="line"/>
      <point x="365.2" y="554.0" type="line" smooth="yes"/>
      <point x="157.7" y="554.0"/>
      <point x="33.2" y="379.9"/>
      <point x="33.2" y="202.5" type="curve" smooth="yes"/>
      <point x="33.2" y="71.2"/>
      <point x="93.2" y="-5.0"/>
    </contour>
  </outline>
</glyph>
<glyph name="ai-tamil" format="2">
  <advance width="806.0"/>
  <unicode hex="0B90"/>
  <note>
uni0B90
</note>
  <anchor x="342.0" y="0.0" name="bottom"/>
  <anchor x="273.5" y="-296.0" name="nukta"/>
  <anchor x="469.1" y="554.0" name="top"/>
  <anchor x="464.6" y="554.0" name="vedic"/>
  <outline>
    <contour>
      <point x="128.8" y="-296.0" type="curve" smooth="yes"/>
      <point x="217.4" y="-296.0"/>
      <point x="286.0" y="-249.4"/>
      <point x="320.9" y="-177.4" type="curve"/>
      <point x="327.6" y="-244.4"/>
      <point x="379.7" y="-296.0"/>
      <point x="469.7" y="-296.0" type="curve" smooth="yes"/>
      <point x="598.7" y="-296.0"/>
      <point x="684.1" y="-205.4"/>
      <point x="684.1" y="-65.4" type="curve" smooth="yes"/>
      <point x="684.1" y="-13.8"/>
      <point x="670.2" y="34.1"/>
      <point x="654.3" y="70.4" type="curve"/>
      <point x="604.2" y="47.7" type="line"/>
      <point x="618.9" y="14.8"/>
      <point x="629.9" y="-26.7"/>
      <point x="629.9" y="-63.6" type="curve" smooth="yes"/>
      <point x="629.9" y="-167.6"/>
      <point x="569.5" y="-235.0"/>
      <point x="475.0" y="-235.0" type="curve" smooth="yes"/>
      <point x="395.7" y="-235.0"/>
      <point x="369.4" y="-179.3"/>
      <point x="389.1" y="-83.4" type="curve" smooth="yes"/>
      <point x="397.8" y="-41.0" type="line"/>
      <point x="307.9" y="-41.0" type="line"/>
      <point x="299.6" y="-78.6" type="line" smooth="yes"/>
      <point x="277.3" y="-179.6"/>
      <point x="225.1" y="-241.0"/>
      <point x="145.5" y="-241.0" type="curve" smooth="yes"/>
      <point x="88.7" y="-241.0"/>
      <point x="52.6" y="-201.4"/>
      <point x="52.6" y="-134.7" type="curve" smooth="yes"/>
      <point x="52.6" y="37.0"/>
      <point x="191.5" y="60.5"/>
      <point x="385.8" y="83.6" type="curve" smooth="yes"/>
      <point x="604.8" y="110.6"/>
      <point x="770.3" y="189.5"/>
      <point x="770.3" y="392.4" type="curve" smooth="yes"/>
      <point x="770.3" y="505.3"/>
      <point x="697.8" y="559.0"/>
      <point x="614.7" y="559.0" type="curve" smooth="yes"/>
      <point x="543.0" y="559.0"/>
      <point x="485.7" y="520.2"/>
      <point x="446.6" y="441.9" type="curve"/>
      <point x="430.6" y="520.0"/>
      <point x="363.2" y="559.0"/>
      <point x="285.6" y="559.0" type="curve" smooth="yes"/>
      <point x="151.5" y="559.0"/>
      <point x="53.3" y="450.3"/>
      <point x="53.3" y="306.8" type="curve" smooth="yes"/>
      <point x="53.3" y="229.1"/>
      <point x="87.9" y="156.0"/>
      <point x="167.5" y="156.0" type="curve" smooth="yes"/>
      <point x="242.1" y="156.0"/>
      <point x="309.3" y="214.5"/>
      <point x="309.3" y="305.7" type="curve" smooth="yes"/>
      <point x="309.3" y="376.1"/>
      <point x="269.1" y="412.0"/>
      <point x="215.0" y="412.0" type="curve" smooth="yes"/>
      <point x="162.1" y="412.0"/>
      <point x="110.4" y="368.9"/>
      <point x="81.7" y="280.2" type="curve"/>
      <point x="93.4" y="245.7" type="line"/>
      <point x="121.3" y="326.2"/>
      <point x="151.1" y="349.2"/>
      <point x="183.2" y="349.2" type="curve" smooth="yes"/>
      <point x="209.7" y="349.2"/>
      <point x="229.9" y="331.5"/>
      <point x="229.9" y="293.1" type="curve" smooth="yes"/>
      <point x="229.9" y="248.9"/>
      <point x="204.0" y="210.0"/>
      <point x="163.4" y="210.0" type="curve" smooth="yes"/>
      <point x="124.9" y="210.0"/>
      <point x="105.8" y="249.2"/>
      <point x="105.8" y="302.4" type="curve" smooth="yes"/>
      <point x="105.8" y="408.0"/>
      <point x="168.2" y="505.0"/>
      <point x="274.0" y="505.0" type="curve" smooth="yes"/>
      <point x="369.0" y="505.0"/>
      <point x="405.5" y="443.8"/>
      <point x="383.9" y="345.7" type="curve" smooth="yes"/>
      <point x="355.3" y="215.0" type="line"/>
      <point x="445.2" y="215.0" type="line"/>
      <point x="475.2" y="361.9" type="line" smooth="yes"/>
      <point x="491.6" y="442.1"/>
      <point x="528.8" y="505.0"/>
      <point x="596.3" y="505.0" type="curve" smooth="yes"/>
      <point x="650.7" y="505.0"/>
      <point x="680.4" y="469.9"/>
      <point x="680.4" y="396.9" type="curve" smooth="yes"/>
      <point x="680.4" y="199.9"/>
      <point x="552.0" y="146.7"/>
      <point x="339.5" y="120.7" type="curve" smooth="yes"/>
      <point x="125.30000000000001" y="94.8"/>
      <point x="-37.0" y="54.1"/>
      <point x="-37.0" y="-131.2" type="curve" smooth="yes"/>
      <point x="-37.0" y="-233.7"/>
      <point x="31.900000000000002" y="-296.0"/>
    </contour>
  </outline>
</glyph>
<glyph name="o-tamil" format="2">
  <advance width="814.9"/>
  <unicode hex="0B92"/>
  <note>
uni0B92
</note>
  <anchor x="356.6" y="0.0" name="bottom"/>
  <anchor x="283.6" y="-335.0" name="nukta"/>
  <anchor x="461.6" y="554.0" name="top"/>
  <anchor x="463.4" y="554.0" name="vedic"/>
  <outline>
    <contour>
      <point x="193.8" y="-307.2" type="curve" smooth="yes"/>
      <point x="350.2" y="-307.2"/>
      <point x="407.0" y="-138.3"/>
      <point x="544.0" y="-138.3" type="curve" smooth="yes"/>
      <point x="576.0" y="-138.3" type="line"/>
      <point x="587.7" y="-84.6" type="line"/>
      <point x="548.7" y="-84.6" type="line" smooth="yes"/>
      <point x="400.2" y="-84.6"/>
      <point x="375.6" y="60.3"/>
      <point x="478.7" y="193.3" type="curve"/>
      <point x="483.4" y="190.0" type="line"/>
      <point x="433.1" y="85.6"/>
      <point x="454.1" y="-5.0"/>
      <point x="555.2" y="-5.0" type="curve" smooth="yes"/>
      <point x="671.0" y="-5.0"/>
      <point x="760.1" y="102.1"/>
      <point x="760.1" y="254.6" type="curve" smooth="yes"/>
      <point x="760.1" y="453.2"/>
      <point x="607.2" y="559.0"/>
      <point x="423.4" y="559.0" type="curve" smooth="yes"/>
      <point x="211.9" y="559.0"/>
      <point x="32.6" y="401.0"/>
      <point x="32.6" y="206.0" type="curve" smooth="yes"/>
      <point x="32.6" y="74.7"/>
      <point x="92.6" y="-5.0"/>
      <point x="188.1" y="-5.0" type="curve" smooth="yes"/>
      <point x="274.4" y="-5.0"/>
      <point x="350.8" y="62.7"/>
      <point x="350.8" y="171.6" type="curve" smooth="yes"/>
      <point x="350.8" y="251.6"/>
      <point x="302.7" y="303.0"/>
      <point x="231.0" y="303.0" type="curve" smooth="yes"/>
      <point x="150.0" y="303.0"/>
      <point x="90.6" y="234.6"/>
      <point x="63.1" y="137.7" type="curve"/>
      <point x="87.0" y="110.0" type="line"/>
      <point x="108.4" y="190.3"/>
      <point x="146.7" y="236.0"/>
      <point x="198.9" y="236.0" type="curve" smooth="yes"/>
      <point x="238.9" y="236.0"/>
      <point x="262.4" y="206.0"/>
      <point x="262.4" y="156.1" type="curve" smooth="yes"/>
      <point x="262.4" y="96.2"/>
      <point x="231.0" y="49.0"/>
      <point x="176.4" y="49.0" type="curve" smooth="yes"/>
      <point x="120.9" y="49.0"/>
      <point x="85.7" y="107.6"/>
      <point x="85.7" y="208.2" type="curve" smooth="yes"/>
      <point x="85.7" y="371.3"/>
      <point x="236.5" y="505.0"/>
      <point x="411.9" y="505.0" type="curve" smooth="yes"/>
      <point x="557.8" y="505.0"/>
      <point x="673.3" y="412.0"/>
      <point x="673.3" y="259.0" type="curve" smooth="yes"/>
      <point x="673.3" y="152.3"/>
      <point x="629.8" y="49.0"/>
      <point x="550.7" y="49.0" type="curve" smooth="yes"/>
      <point x="474.4" y="49.0"/>
      <point x="499.6" y="162.1"/>
      <point x="558.4" y="252.3" type="curve"/>
      <point x="505.70000000000005" y="285.8" type="line"/>
      <point x="367.3" y="150.1"/>
      <point x="308.7" y="-38.2"/>
      <point x="447.1" y="-106.0" type="curve"/>
      <point x="446.1" y="-111.0" type="line"/>
      <point x="331.2" y="-130.2"/>
      <point x="287.3" y="-241.9"/>
      <point x="184.9" y="-241.9" type="curve" smooth="yes"/>
      <point x="144.5" y="-241.9"/>
      <point x="120.0" y="-214.4"/>
      <point x="120.0" y="-179.3" type="curve" smooth="yes"/>
      <point x="120.0" y="-139.8"/>
      <point x="139.7" y="-118.5"/>
      <point x="178.7" y="-87.0" type="curve"/>
      <point x="148.4" y="-49.4" type="line"/>
      <point x="98.6" y="-89.8"/>
      <point x="64.5" y="-125.4"/>
      <point x="64.5" y="-187.2" type="curve" smooth="yes"/>
      <point x="64.5" y="-253.6"/>
      <point x="115.0" y="-307.2"/>
    </contour>
  </outline>
</glyph>
<glyph name="oo-tamil" format="2">
  <advance width="814.9"/>
  <unicode hex="0B93"/>
  <note>
uni0B93
</note>
  <anchor x="347.9" y="0.0" name="bottom"/>
  <anchor x="285.2" y="-284.2" name="nukta"/>
  <anchor x="458.8" y="554.0" name="top"/>
  <anchor x="460.6" y="554.0" name="vedic"/>
  <outline>
    <contour>
      <point x="174.5" y="-319.3" type="curve" smooth="yes"/>
      <point x="333.6" y="-319.3"/>
      <point x="406.7" y="-138.3"/>
      <point x="543.7" y="-138.3" type="curve" smooth="yes"/>
      <point x="570.9" y="-138.3" type="line"/>
      <point x="582.6" y="-84.6" type="line"/>
      <point x="548.4" y="-84.6" type="line" smooth="yes"/>
      <point x="399.9" y="-84.6"/>
      <point x="375.0" y="60.3"/>
      <point x="478.4" y="193.0" type="curve"/>
      <point x="483.4" y="190.0" type="line"/>
      <point x="433.1" y="85.6"/>
      <point x="454.1" y="-5.0"/>
      <point x="555.2" y="-5.0" type="curve" smooth="yes"/>
      <point x="671.0" y="-5.0"/>
      <point x="760.1" y="102.1"/>
      <point x="760.1" y="254.6" type="curve" smooth="yes"/>
      <point x="760.1" y="453.2"/>
      <point x="607.2" y="559.0"/>
      <point x="423.4" y="559.0" type="curve" smooth="yes"/>
      <point x="211.9" y="559.0"/>
      <point x="32.6" y="401.0"/>
      <point x="32.6" y="206.0" type="curve" smooth="yes"/>
      <point x="32.6" y="74.7"/>
      <point x="92.6" y="-5.0"/>
      <point x="188.1" y="-5.0" type="curve" smooth="yes"/>
      <point x="274.4" y="-5.0"/>
      <point x="350.8" y="62.7"/>
      <point x="350.8" y="171.6" type="curve" smooth="yes"/>
      <point x="350.8" y="251.6"/>
      <point x="302.7" y="303.0"/>
      <point x="231.0" y="303.0" type="curve" smooth="yes"/>
      <point x="150.0" y="303.0"/>
      <point x="90.6" y="234.6"/>
      <point x="63.1" y="137.7" type="curve"/>
      <point x="87.0" y="110.0" type="line"/>
      <point x="108.4" y="190.3"/>
      <point x="146.7" y="236.0"/>
      <point x="198.9" y="236.0" type="curve" smooth="yes"/>
      <point x="238.9" y="236.0"/>
      <point x="262.4" y="206.0"/>
      <point x="262.4" y="156.1" type="curve" smooth="yes"/>
      <point x="262.4" y="96.2"/>
      <point x="231.0" y="49.0"/>
      <point x="176.4" y="49.0" type="curve" smooth="yes"/>
      <point x="120.9" y="49.0"/>
      <point x="85.7" y="107.6"/>
      <point x="85.7" y="208.2" type="curve" smooth="yes"/>
      <point x="85.7" y="371.3"/>
      <point x="236.5" y="505.0"/>
      <point x="411.9" y="505.0" type="curve" smooth="yes"/>
      <point x="557.8" y="505.0"/>
      <point x="673.3" y="412.0"/>
      <point x="673.3" y="259.0" type="curve" smooth="yes"/>
      <point x="673.3" y="152.3"/>
      <point x="629.8" y="49.0"/>
      <point x="550.7" y="49.0" type="curve" smooth="yes"/>
      <point x="474.4" y="49.0"/>
      <point x="499.6" y="162.1"/>
      <point x="558.4" y="252.3" type="curve"/>
      <point x="505.70000000000005" y="285.8" type="line"/>
      <point x="366.4" y="150.1"/>
      <point x="308.4" y="-38.2"/>
      <point x="446.8" y="-106.0" type="curve"/>
      <point x="445.8" y="-111.0" type="line"/>
      <point x="330.9" y="-130.2"/>
      <point x="267.4" y="-256.8"/>
      <point x="165.0" y="-256.8" type="curve" smooth="yes"/>
      <point x="119.6" y="-256.8"/>
      <point x="101.6" y="-227.8"/>
      <point x="101.6" y="-193.0" type="curve" smooth="yes"/>
      <point x="101.6" y="-155.2"/>
      <point x="128.1" y="-129.2"/>
      <point x="159.7" y="-129.2" type="curve" smooth="yes"/>
      <point x="189.0" y="-129.2"/>
      <point x="209.3" y="-145.8"/>
      <point x="215.0" y="-179.5" type="curve"/>
      <point x="250.4" y="-168.5"/>
      <point x="274.2" y="-143.4"/>
      <point x="274.2" y="-113.4" type="curve" smooth="yes"/>
      <point x="274.2" y="-74.2"/>
      <point x="238.9" y="-53.5"/>
      <point x="195.9" y="-53.5" type="curve" smooth="yes"/>
      <point x="119.4" y="-53.5"/>
      <point x="51.7" y="-113.1"/>
      <point x="51.7" y="-198.9" type="curve" smooth="yes"/>
      <point x="51.7" y="-266.9"/>
      <point x="99.5" y="-319.3"/>
    </contour>
  </outline>
</glyph>
<glyph name="ka-tamil" format="2">
  <advance width="685.8"/>
  <unicode hex="0B95"/>
  <note>
uni0B95
</note>
  <anchor x="281.9" y="0.0" name="bottom"/>
  <anchor x="503.0" y="554.0" name="imatra"/>
  <anchor x="281.9" y="0.0" name="nukta"/>
  <anchor x="407.7" y="554.0" name="top"/>
  <anchor x="423.4" y="554.0" name="vedic"/>
  <outline>
    <contour>
      <point x="182.3" y="-4.0" type="curve" smooth="yes"/>
      <point x="297.6" y="-4.0"/>
      <point x="359.3" y="60.8"/>
      <point x="385.9" y="186.6" type="curve" smooth="yes"/>
      <point x="401.9" y="263.0" type="line"/>
      <point x="453.1" y="263.0" type="line" smooth="yes"/>
      <point x="504.5" y="263.0"/>
      <point x="532.4" y="230.0"/>
      <point x="532.4" y="175.7" type="curve" smooth="yes"/>
      <point x="532.4" y="108.6"/>
      <point x="494.0" y="51.0"/>
      <point x="430.6" y="51.0" type="curve" smooth="yes"/>
      <point x="404.7" y="51.0" type="line"/>
      <point x="393.7" y="-2.0" type="line"/>
      <point x="435.5" y="-2.0" type="line" smooth="yes"/>
      <point x="543.2" y="-2.0"/>
      <point x="624.0" y="68.7"/>
      <point x="624.0" y="177.5" type="curve" smooth="yes"/>
      <point x="624.0" y="267.1"/>
      <point x="567.1" y="317.0"/>
      <point x="464.5" y="317.0" type="curve" smooth="yes"/>
      <point x="413.6" y="317.0" type="line"/>
      <point x="452.6" y="500.0" type="line"/>
      <point x="583.3" y="500.0" type="line"/>
      <point x="595.0" y="554.0" type="line"/>
      <point x="200.6" y="554.0" type="line"/>
      <point x="143.6" y="286.0" type="line"/>
      <point x="199.4" y="286.0" type="line"/>
      <point x="244.4" y="500.0" type="line"/>
      <point x="362.4" y="500.0" type="line"/>
      <point x="324.1" y="317.0" type="line"/>
      <point x="199.3" y="317.0" type="line" smooth="yes"/>
      <point x="92.4" y="317.0"/>
      <point x="21.4" y="238.0"/>
      <point x="21.4" y="141.0" type="curve" smooth="yes"/>
      <point x="21.4" y="57.9"/>
      <point x="86.3" y="-4.0"/>
    </contour>
    <contour>
      <point x="176.9" y="49.0" type="curve" smooth="yes"/>
      <point x="118.80000000000001" y="49.0"/>
      <point x="80.8" y="89.2"/>
      <point x="80.8" y="146.6" type="curve" smooth="yes"/>
      <point x="80.8" y="213.6"/>
      <point x="119.80000000000001" y="263.0"/>
      <point x="193.9" y="263.0" type="curve" smooth="yes"/>
      <point x="312.4" y="263.0" type="line"/>
      <point x="294.0" y="176.8" type="line" smooth="yes"/>
      <point x="274.0" y="82.6"/>
      <point x="238.2" y="49.0"/>
    </contour>
  </outline>
</glyph>
<glyph name="nga-tamil" format="2">
  <advance width="830.8"/>
  <unicode hex="0B99"/>
  <note>
uni0B99
</note>
  <anchor x="356.6" y="0.0" name="bottom"/>
  <anchor x="508.3" y="554.0" name="imatra"/>
  <anchor x="356.6" y="0.0" name="nukta"/>
  <anchor x="473.2" y="554.0" name="top"/>
  <anchor x="473.9" y="554.0" name="vedic"/>
  <outline>
    <contour>
      <point x="22.900000000000002" y="0.0" type="line"/>
      <point x="81.5" y="0.0" type="line"/>
      <point x="187.5" y="500.0" type="line"/>
      <point x="313.0" y="500.0" type="line"/>
      <point x="248.0" y="196.0" type="line"/>
      <point x="334.7" y="196.0" type="line"/>
      <point x="344.2" y="238.4" type="line" smooth="yes"/>
      <point x="354.2" y="284.0"/>
      <point x="378.8" y="313.9"/>
      <point x="414.1" y="313.9" type="curve" smooth="yes"/>
      <point x="448.0" y="313.9"/>
      <point x="468.4" y="291.8"/>
      <point x="468.4" y="245.2" type="curve" smooth="yes"/>
      <point x="468.4" y="143.1"/>
      <point x="393.3" y="54.0"/>
      <point x="308.6" y="54.0" type="curve" smooth="yes"/>
      <point x="218.0" y="54.0" type="line"/>
      <point x="206.0" y="0.0" type="line"/>
      <point x="690.6" y="0.0" type="line"/>
      <point x="808.3" y="554.0" type="line"/>
      <point x="718.1" y="554.0" type="line"/>
      <point x="612.1" y="54.0" type="line"/>
      <point x="411.7" y="54.0" type="line"/>
      <point x="488.7" y="86.5"/>
      <point x="558.5" y="158.9"/>
      <point x="558.5" y="262.9" type="curve" smooth="yes"/>
      <point x="558.5" y="341.9"/>
      <point x="513.9" y="379.0"/>
      <point x="457.8" y="379.0" type="curve" smooth="yes"/>
      <point x="410.9" y="379.0"/>
      <point x="381.3" y="350.9"/>
      <point x="364.6" y="326.7" type="curve"/>
      <point x="401.1" y="500.0" type="line"/>
      <point x="518.7" y="500.0" type="line"/>
      <point x="530.0" y="554.0" type="line"/>
      <point x="140.2" y="554.0" type="line"/>
    </contour>
  </outline>
</glyph>
<glyph name="ja-tamil" format="2">
  <advance width="801.0"/>
  <unicode hex="0B9C"/>
  <note>
uni0B9C
</note>
  <anchor x="344.0" y="0.0" name="bottom"/>
  <anchor x="275.5" y="-296.0" name="nukta"/>
  <anchor x="467.9" y="554.0" name="top"/>
  <anchor x="464.8" y="554.0" name="vedic"/>
  <outline>
    <contour>
      <point x="105.9" y="-296.0" type="curve" smooth="yes"/>
      <point x="284.6" y="-296.0"/>
      <point x="372.4" y="-19.8"/>
      <point x="503.9" y="-19.8" type="curve" smooth="yes"/>
      <point x="556.6" y="-19.8"/>
      <point x="582.2" y="-55.9"/>
      <point x="582.2" y="-110.6" type="curve" smooth="yes"/>
      <point x="582.2" y="-184.4"/>
      <point x="542.2" y="-243.5"/>
      <point x="469.70000000000005" y="-243.5" type="curve" smooth="yes"/>
      <point x="441.70000000000005" y="-243.5"/>
      <point x="417.4" y="-235.5"/>
      <point x="390.7" y="-219.0" type="curve"/>
      <point x="364.7" y="-261.5" type="line"/>
      <point x="397.4" y="-283.3"/>
      <point x="431.9" y="-296.0"/>
      <point x="481.6" y="-296.0" type="curve" smooth="yes"/>
      <point x="581.8" y="-296.0"/>
      <point x="672.4" y="-225.6"/>
      <point x="672.4" y="-109.9" type="curve" smooth="yes"/>
      <point x="672.4" y="-11.7"/>
      <point x="614.9" y="37.0"/>
      <point x="526.5" y="37.0" type="curve" smooth="yes"/>
      <point x="348.7" y="37.0"/>
      <point x="259.7" y="-239.5"/>
      <point x="127.9" y="-239.5" type="curve" smooth="yes"/>
      <point x="70.3" y="-239.5"/>
      <point x="52.6" y="-199.2"/>
      <point x="52.6" y="-136.0" type="curve" smooth="yes"/>
      <point x="52.6" y="13.3"/>
      <point x="156.8" y="53.1"/>
      <point x="377.0" y="81.4" type="curve" smooth="yes"/>
      <point x="614.6" y="112.5"/>
      <point x="770.9" y="190.1"/>
      <point x="770.9" y="392.4" type="curve" smooth="yes"/>
      <point x="770.9" y="505.3"/>
      <point x="698.4" y="559.0"/>
      <point x="615.3" y="559.0" type="curve" smooth="yes"/>
      <point x="543.6" y="559.0"/>
      <point x="486.3" y="520.2"/>
      <point x="447.2" y="441.9" type="curve"/>
      <point x="431.2" y="520.0"/>
      <point x="363.8" y="559.0"/>
      <point x="286.2" y="559.0" type="curve" smooth="yes"/>
      <point x="152.1" y="559.0"/>
      <point x="53.900000000000006" y="450.3"/>
      <point x="53.900000000000006" y="306.8" type="curve" smooth="yes"/>
      <point x="53.900000000000006" y="229.1"/>
      <point x="88.5" y="156.0"/>
      <point x="168.1" y="156.0" type="curve" smooth="yes"/>
      <point x="242.7" y="156.0"/>
      <point x="309.9" y="214.5"/>
      <point x="309.9" y="305.7" type="curve" smooth="yes"/>
      <point x="309.9" y="376.1"/>
      <point x="269.7" y="412.0"/>
      <point x="215.6" y="412.0" type="curve" smooth="yes"/>
      <point x="162.7" y="412.0"/>
      <point x="111.0" y="368.9"/>
      <point x="82.3" y="280.2" type="curve"/>
      <point x="94.0" y="245.7" type="line"/>
      <point x="121.9" y="326.2"/>
      <point x="151.7" y="349.2"/>
      <point x="183.8" y="349.2" type="curve" smooth="yes"/>
      <point x="210.3" y="349.2"/>
      <point x="230.5" y="331.5"/>
      <point x="230.5" y="293.1" type="curve" smooth="yes"/>
      <point x="230.5" y="248.9"/>
      <point x="204.6" y="210.0"/>
      <point x="164.0" y="210.0" type="curve" smooth="yes"/>
      <point x="125.5" y="210.0"/>
      <point x="106.4" y="249.2"/>
      <point x="106.4" y="302.4" type="curve" smooth="yes"/>
      <point x="106.4" y="408.0"/>
      <point x="168.8" y="505.0"/>
      <point x="274.6" y="505.0" type="curve" smooth="yes"/>
      <point x="369.6" y="505.0"/>
      <point x="406.1" y="443.8"/>
      <point x="384.5" y="345.7" type="curve" smooth="yes"/>
      <point x="355.9" y="215.0" type="line"/>
      <point x="445.8" y="215.0" type="line"/>
      <point x="475.8" y="361.9" type="line" smooth="yes"/>
      <point x="492.2" y="442.1"/>
      <point x="529.4" y="505.0"/>
      <point x="596.9" y="505.0" type="curve" smooth="yes"/>
      <point x="651.3" y="505.0"/>
      <point x="681.0" y="469.9"/>
      <point x="681.0" y="396.9" type="curve" smooth="yes"/>
      <point x="681.0" y="200.5"/>
      <point x="557.6" y="145.8"/>
      <point x="337.7" y="118.5" type="curve" smooth="yes"/>
      <point x="90.60000000000001" y="87.4"/>
      <point x="-36.3" y="26.900000000000006"/>
      <point x="-36.3" y="-136.0" type="curve" smooth="yes"/>
      <point x="-36.3" y="-234.3"/>
      <point x="8.500000000000004" y="-296.0"/>
    </contour>
  </outline>
</glyph>
<glyph name="nya-tamil" format="2">
  <advance width="1078.1"/>
  <unicode hex="0B9E"/>
  <note>
uni0B9E
</note>
  <anchor x="514.6" y="0.0" name="bottom"/>
  <anchor x="915.0" y="554.0" name="imatra"/>
  <anchor x="456.1" y="-317.2" name="nukta"/>
  <anchor x="641.1" y="554.0" name="top"/>
  <anchor x="620.9" y="554.0" name="vedic"/>
  <outline>
    <contour>
      <point x="452.6" y="-317.2" type="curve" smooth="yes"/>
      <point x="767.8" y="-317.2"/>
      <point x="1005.6" y="-90.9"/>
      <point x="1005.6" y="193.4" type="curve" smooth="yes"/>
      <point x="1005.6" y="285.6"/>
      <point x="962.4" y="345.0"/>
      <point x="884.8" y="345.0" type="curve" smooth="yes"/>
      <point x="808.6" y="345.0"/>
      <point x="758.3" y="280.0"/>
      <point x="741.1" y="199.7" type="curve" smooth="yes"/>
      <point x="731.1" y="152.7" type="line"/>
      <point x="753.9" y="152.7" type="line"/>
      <point x="763.9" y="199.2" type="line" smooth="yes"/>
      <point x="774.2" y="245.9"/>
      <point x="802.3" y="283.2"/>
      <point x="847.4" y="283.2" type="curve" smooth="yes"/>
      <point x="891.6" y="283.2"/>
      <point x="913.1" y="247.6"/>
      <point x="913.1" y="188.8" type="curve" smooth="yes"/>
      <point x="913.1" y="-56.8"/>
      <point x="730.2" y="-263.2"/>
      <point x="455.2" y="-263.2" type="curve" smooth="yes"/>
      <point x="247.3" y="-263.2"/>
      <point x="81.0" y="-112.3"/>
      <point x="81.0" y="122.6" type="curve" smooth="yes"/>
      <point x="81.0" y="325.0"/>
      <point x="169.0" y="473.6"/>
      <point x="318.2" y="617.9" type="curve"/>
      <point x="285.4" y="652.4" type="line"/>
      <point x="129.2" y="503.8"/>
      <point x="27.5" y="332.8"/>
      <point x="27.5" y="116.6" type="curve" smooth="yes"/>
      <point x="27.5" y="-133.5"/>
      <point x="207.5" y="-317.2"/>
    </contour>
    <component base="e-tamil" xOffset="180.9"/>
  </outline>
</glyph>
<glyph name="tta-tamil" format="2">
  <advance width="732.6"/>
  <unicode hex="0B9F"/>
  <note>
uni0B9F
</note>
  <anchor x="331.1" y="0.0" name="bottom"/>
  <anchor x="331.1" y="0.0" name="nukta"/>
  <anchor x="453.3" y="554.0" name="top"/>
  <anchor x="458.2" y="554.0" name="vedic"/>
  <outline>
    <contour>
      <point x="22.900000000000002" y="0.0" type="line"/>
      <point x="657.5" y="0.0" type="line"/>
      <point x="668.8" y="54.0" type="line"/>
      <point x="123.4" y="54.0" type="line"/>
      <point x="230.1" y="554.0" type="line"/>
      <point x="140.2" y="554.0" type="line"/>
    </contour>
  </outline>
</glyph>
<glyph name="na-tamil" format="2">
  <advance width="650.9"/>
  <unicode hex="0BA8"/>
  <note>
uni0BA8
</note>
  <anchor x="257.5" y="0.0" name="bottom"/>
  <anchor x="496.9" y="554.0" name="imatra"/>
  <anchor x="242.7" y="-181.0" name="nukta"/>
  <anchor x="378.6" y="554.0" name="top"/>
  <anchor x="388.6" y="554.0" name="vedic"/>
  <outline>
    <contour>
      <point x="41.0" y="-248.3" type="curve"/>
      <point x="55.3" y="-180.0"/>
      <point x="83.3" y="-139.3"/>
      <point x="162.0" y="-139.3" type="curve" smooth="yes"/>
      <point x="245.0" y="-139.3" type="line" smooth="yes"/>
      <point x="434.9" y="-139.3"/>
      <point x="581.3" y="-7.5"/>
      <point x="581.3" y="198.9" type="curve" smooth="yes"/>
      <point x="581.3" y="293.9"/>
      <point x="540.2" y="345.0"/>
      <point x="467.1" y="345.0" type="curve" smooth="yes"/>
      <point x="419.9" y="345.0"/>
      <point x="387.7" y="316.8"/>
      <point x="369.8" y="291.0" type="curve"/>
      <point x="414.7" y="500.0" type="line"/>
      <point x="531.1" y="500.0" type="line"/>
      <point x="543.1" y="554.0" type="line"/>
      <point x="139.2" y="554.0" type="line"/>
      <point x="22.200000000000003" y="0.0" type="line"/>
      <point x="78.0" y="0.0" type="line"/>
      <point x="184.0" y="500.0" type="line"/>
      <point x="325.5" y="500.0" type="line"/>
      <point x="218.8" y="0.0" type="line"/>
      <point x="308.0" y="0.0" type="line"/>
      <point x="350.8" y="202.0" type="line" smooth="yes"/>
      <point x="360.4" y="246.6"/>
      <point x="389.8" y="280.4"/>
      <point x="426.6" y="280.4" type="curve" smooth="yes"/>
      <point x="465.9" y="280.4"/>
      <point x="488.1" y="253.8"/>
      <point x="488.1" y="192.9" type="curve" smooth="yes"/>
      <point x="488.1" y="34.199999999999996"/>
      <point x="404.1" y="-91.7"/>
      <point x="240.2" y="-91.7" type="curve" smooth="yes"/>
      <point x="136.6" y="-91.7" type="line" smooth="yes"/>
      <point x="44.5" y="-91.7"/>
      <point x="-26.0" y="-118.8"/>
      <point x="-26.0" y="-188.7" type="curve" smooth="yes"/>
      <point x="-26.0" y="-227.6"/>
      <point x="-2.0999999999999996" y="-248.3"/>
    </contour>
  </outline>
</glyph>
<glyph name="nnna-tamil" format="2">
  <advance width="1076.9"/>
  <unicode hex="0BA9"/>
  <note>
uni0BA9
</note>
  <anchor x="473.9" y="0.0" name="bottom"/>
  <anchor x="1002.2" y="554.0" name="imatra"/>
  <anchor x="473.9" y="0.0" name="nukta"/>
  <anchor x="615.2" y="554.0" name="top"/>
  <anchor x="612.3" y="554.0" name="vedic"/>
  <outline>
    <contour>
      <point x="188.1" y="-5.0" type="curve" smooth="yes"/>
      <point x="273.7" y="-5.0"/>
      <point x="353.6" y="62.7"/>
      <point x="353.6" y="171.6" type="curve" smooth="yes"/>
      <point x="353.6" y="251.6"/>
      <point x="303.4" y="303.0"/>
      <point x="231.7" y="303.0" type="curve" smooth="yes"/>
      <point x="150.7" y="303.0"/>
      <point x="89.2" y="234.6"/>
      <point x="61.7" y="137.7" type="curve"/>
      <point x="85.6" y="110.0" type="line"/>
      <point x="107.0" y="190.3"/>
      <point x="147.4" y="236.0"/>
      <point x="199.6" y="236.0" type="curve" smooth="yes"/>
      <point x="239.60000000000002" y="236.0"/>
      <point x="265.2" y="206.0"/>
      <point x="265.2" y="156.1" type="curve" smooth="yes"/>
      <point x="265.2" y="96.2"/>
      <point x="231.7" y="49.0"/>
      <point x="176.4" y="49.0" type="curve" smooth="yes"/>
      <point x="119.5" y="49.0"/>
      <point x="84.3" y="104.1"/>
      <point x="84.3" y="204.7" type="curve" smooth="yes"/>
      <point x="84.3" y="354.5"/>
      <point x="214.7" y="505.0"/>
      <point x="380.0" y="505.0" type="curve" smooth="yes"/>
      <point x="543.6" y="505.0"/>
      <point x="623.2" y="368.0"/>
      <point x="623.2" y="227.1" type="curve" smooth="yes"/>
      <point x="623.2" y="127.2"/>
      <point x="583.4" y="49.9"/>
      <point x="516.2" y="49.9" type="curve" smooth="yes"/>
      <point x="477.5" y="49.9"/>
      <point x="458.7" y="84.2"/>
      <point x="458.7" y="152.7" type="curve" smooth="yes"/>
      <point x="458.7" y="306.3"/>
      <point x="610.2" y="500.0"/>
      <point x="802.8" y="500.0" type="curve" smooth="yes"/>
      <point x="1103.1" y="500.0" type="line"/>
      <point x="1114.4" y="554.0" type="line"/>
      <point x="811.4" y="554.0" type="line" smooth="yes"/>
      <point x="583.4" y="554.0"/>
      <point x="404.8" y="337.6"/>
      <point x="404.8" y="146.9" type="curve" smooth="yes"/>
      <point x="404.8" y="54.3"/>
      <point x="443.1" y="-5.0"/>
      <point x="527.0" y="-5.0" type="curve" smooth="yes"/>
      <point x="637.5" y="-5.0"/>
      <point x="713.0" y="97.6"/>
      <point x="713.0" y="229.3" type="curve" smooth="yes"/>
      <point x="713.0" y="419.5"/>
      <point x="589.6" y="559.0"/>
      <point x="385.9" y="559.0" type="curve" smooth="yes"/>
      <point x="192.2" y="559.0"/>
      <point x="31.200000000000003" y="384.2"/>
      <point x="31.200000000000003" y="202.5" type="curve" smooth="yes"/>
      <point x="31.200000000000003" y="71.2"/>
      <point x="91.2" y="-5.0"/>
    </contour>
    <contour>
      <point x="775.6" y="0.0" type="line"/>
      <point x="864.4" y="0.0" type="line"/>
      <point x="976.7" y="529.0" type="line"/>
      <point x="887.9" y="529.0" type="line"/>
    </contour>
  </outline>
</glyph>
<glyph name="pa-tamil" format="2">
  <advance width="732.4"/>
  <unicode hex="0BAA"/>
  <note>
uni0BAA
</note>
  <anchor x="309.5" y="0.0" name="bottom"/>
  <anchor x="703.7" y="554.0" name="imatra"/>
  <anchor x="309.5" y="0.0" name="nukta"/>
  <anchor x="426.1" y="554.0" name="top"/>
  <anchor x="427.5" y="554.0" name="vedic"/>
  <outline>
    <contour>
      <point x="22.900000000000002" y="0.0" type="line"/>
      <point x="592.2" y="0.0" type="line"/>
      <point x="710.2" y="554.0" type="line"/>
      <point x="621.4" y="554.0" type="line"/>
      <point x="514.7" y="54.0" type="line"/>
      <point x="123.4" y="54.0" type="line"/>
      <point x="230.1" y="554.0" type="line"/>
      <point x="140.2" y="554.0" type="line"/>
    </contour>
  </outline>
</glyph>
<glyph name="ma-tamil" format="2">
  <advance width="742.1"/>
  <unicode hex="0BAE"/>
  <note>
uni0BAE
</note>
  <anchor x="314.5" y="0.0" name="bottom"/>
  <anchor x="711.4" y="554.0" name="imatra"/>
  <anchor x="315.5" y="0.0" name="nukta"/>
  <anchor x="461.8" y="554.0" name="top"/>
  <anchor x="446.0" y="554.0" name="vedic"/>
  <outline>
    <contour>
      <point x="22.900000000000002" y="0.0" type="line"/>
      <point x="492.6" y="0.0" type="line" smooth="yes"/>
      <point x="636.6" y="0.0"/>
      <point x="695.1" y="156.5"/>
      <point x="695.1" y="332.1" type="curve" smooth="yes"/>
      <point x="695.1" y="473.2"/>
      <point x="636.9" y="559.0"/>
      <point x="539.7" y="559.0" type="curve" smooth="yes"/>
      <point x="456.5" y="559.0"/>
      <point x="405.2" y="503.8"/>
      <point x="385.7" y="409.5" type="curve" smooth="yes"/>
      <point x="311.2" y="54.0" type="line"/>
      <point x="123.4" y="54.0" type="line"/>
      <point x="230.1" y="554.0" type="line"/>
      <point x="140.2" y="554.0" type="line"/>
    </contour>
    <contour>
      <point x="400.7" y="54.0" type="line"/>
      <point x="475.9" y="410.5" type="line" smooth="yes"/>
      <point x="489.8" y="474.6"/>
      <point x="511.1" y="500.0"/>
      <point x="553.4" y="500.0" type="curve" smooth="yes"/>
      <point x="599.8" y="500.0"/>
      <point x="637.6" y="451.4"/>
      <point x="637.6" y="323.1" type="curve" smooth="yes"/>
      <point x="637.6" y="192.5"/>
      <point x="598.5" y="54.0"/>
      <point x="497.0" y="54.0" type="curve" smooth="yes"/>
    </contour>
  </outline>
</glyph>
<glyph name="ya-tamil" format="2">
  <advance width="795.5"/>
  <unicode hex="0BAF"/>
  <note>
uni0BAF
</note>
  <anchor x="345.0" y="0.0" name="bottom"/>
  <anchor x="768.2" y="554.0" name="imatra"/>
  <anchor x="347.1" y="0.0" name="nukta"/>
  <anchor x="468.9" y="554.0" name="top"/>
  <anchor x="460.2" y="554.0" name="vedic"/>
  <outline>
    <contour>
      <point x="147.8" y="-5.0" type="curve" smooth="yes"/>
      <point x="209.3" y="-5.0"/>
      <point x="244.9" y="32.5"/>
      <point x="259.6" y="54.5" type="curve"/>
      <point x="247.7" y="0.0" type="line"/>
      <point x="655.3" y="0.0" type="line"/>
      <point x="773.0" y="554.0" type="line"/>
      <point x="682.8" y="554.0" type="line"/>
      <point x="576.8" y="54.0" type="line"/>
      <point x="342.6" y="54.0" type="line"/>
      <point x="448.6" y="554.0" type="line"/>
      <point x="359.7" y="554.0" type="line"/>
      <point x="273.6" y="147.4" type="line" smooth="yes"/>
      <point x="261.3" y="88.8"/>
      <point x="231.2" y="56.0"/>
      <point x="188.3" y="56.0" type="curve" smooth="yes"/>
      <point x="148.5" y="56.0"/>
      <point x="126.5" y="91.1"/>
      <point x="139.5" y="152.8" type="curve" smooth="yes"/>
      <point x="225.6" y="554.0" type="line"/>
      <point x="136.0" y="554.0" type="line"/>
      <point x="52.900000000000006" y="164.2" type="line" smooth="yes"/>
      <point x="30.6" y="59.6"/>
      <point x="72.6" y="-5.0"/>
    </contour>
  </outline>
</glyph>
<glyph name="ra-tamil" format="2">
  <advance width="538.1"/>
  <unicode hex="0BB0"/>
  <note>
uni0BB0
</note>
  <anchor x="209.3" y="0.0" name="bottom"/>
  <anchor x="513.8" y="554.0" name="imatra"/>
  <anchor x="167.0" y="-199.0" name="nukta"/>
  <anchor x="347.8" y="554.0" name="top"/>
  <anchor x="356.9" y="554.0" name="vedic"/>
  <outline>
    <contour>
      <point x="86.6" y="-214.5" type="line"/>
      <point x="331.3" y="22.0" type="line"/>
      <point x="432.3" y="500.0" type="line"/>
      <point x="564.3" y="500.0" type="line"/>
      <point x="575.3" y="554.0" type="line"/>
      <point x="140.2" y="554.0" type="line"/>
      <point x="22.900000000000002" y="0.0" type="line"/>
      <point x="80.1" y="0.0" type="line"/>
      <point x="186.1" y="500.0" type="line"/>
      <point x="343.1" y="500.0" type="line"/>
      <point x="238.10000000000002" y="4.1000000000000005" type="line"/>
      <point x="51.7" y="-176.8" type="line"/>
    </contour>
  </outline>
</glyph>
<glyph name="rra-tamil" format="2">
  <advance width="697.6"/>
  <unicode hex="0BB1"/>
  <note>
uni0BB1
</note>
  <anchor x="289.8" y="0.0" name="bottom"/>
  <anchor x="240.60000000000002" y="-199.0" name="nukta"/>
  <anchor x="386.2" y="554.0" name="top"/>
  <anchor x="414.2" y="554.0" name="vedic"/>
  <outline>
    <contour>
      <point x="41.8" y="-237.8" type="curve"/>
      <point x="56.1" y="-169.5"/>
      <point x="84.1" y="-129.4"/>
      <point x="162.8" y="-129.4" type="curve" smooth="yes"/>
      <point x="248.7" y="-129.4" type="line" smooth="yes"/>
      <point x="515.6" y="-129.4"/>
      <point x="652.5" y="81.3"/>
      <point x="652.5" y="349.3" type="curve" smooth="yes"/>
      <point x="652.5" y="477.7"/>
      <point x="590.7" y="559.0"/>
      <point x="490.3" y="559.0" type="curve" smooth="yes"/>
      <point x="419.4" y="559.0"/>
      <point x="374.5" y="513.9"/>
      <point x="350.1" y="477.2" type="curve"/>
      <point x="340.1" y="512.2"/>
      <point x="309.8" y="558.0"/>
      <point x="241.8" y="558.0" type="curve" smooth="yes"/>
      <point x="175.3" y="558.0"/>
      <point x="120.9" y="510.3"/>
      <point x="102.6" y="423.1" type="curve" smooth="yes"/>
      <point x="12.8" y="0.0" type="line"/>
      <point x="68.6" y="0.0" type="line"/>
      <point x="157.4" y="418.9" type="line" smooth="yes"/>
      <point x="169.0" y="474.9"/>
      <point x="195.2" y="504.0"/>
      <point x="237.5" y="504.0" type="curve" smooth="yes"/>
      <point x="287.4" y="504.0"/>
      <point x="302.2" y="459.2"/>
      <point x="289.9" y="401.8" type="curve" smooth="yes"/>
      <point x="204.4" y="0.0" type="line"/>
      <point x="293.9" y="0.0" type="line"/>
      <point x="381.5" y="409.9" type="line" smooth="yes"/>
      <point x="394.7" y="470.3"/>
      <point x="434.0" y="505.0"/>
      <point x="481.3" y="505.0" type="curve" smooth="yes"/>
      <point x="537.2" y="505.0"/>
      <point x="565.1" y="456.9"/>
      <point x="565.1" y="368.6" type="curve" smooth="yes"/>
      <point x="565.1" y="122.1"/>
      <point x="462.8" y="-80.3"/>
      <point x="255.2" y="-80.3" type="curve" smooth="yes"/>
      <point x="137.4" y="-80.3" type="line" smooth="yes"/>
      <point x="45.3" y="-80.3"/>
      <point x="-25.2" y="-108.3"/>
      <point x="-25.2" y="-178.2" type="curve" smooth="yes"/>
      <point x="-25.2" y="-217.1"/>
      <point x="-1.299999999999999" y="-237.8"/>
    </contour>
  </outline>
</glyph>
<glyph name="la-tamil" format="2">
  <advance width="858.1"/>
  <unicode hex="0BB2"/>
  <note>
uni0BB2
</note>
  <anchor x="369.9" y="0.0" name="bottom"/>
  <anchor x="369.9" y="0.0" name="nukta"/>
  <anchor x="511.3" y="554.0" name="top"/>
  <anchor x="486.0" y="554.0" name="vedic"/>
  <outline>
    <contour>
      <point x="189.4" y="-5.0" type="curve" smooth="yes"/>
      <point x="275.0" y="-5.0"/>
      <point x="354.9" y="62.7"/>
      <point x="354.9" y="171.6" type="curve" smooth="yes"/>
      <point x="354.9" y="251.6"/>
      <point x="304.7" y="303.0"/>
      <point x="233.0" y="303.0" type="curve" smooth="yes"/>
      <point x="152.0" y="303.0"/>
      <point x="90.5" y="234.6"/>
      <point x="63.0" y="137.7" type="curve"/>
      <point x="86.9" y="110.0" type="line"/>
      <point x="108.30000000000001" y="190.3"/>
      <point x="148.7" y="236.0"/>
      <point x="200.9" y="236.0" type="curve" smooth="yes"/>
      <point x="240.9" y="236.0"/>
      <point x="266.5" y="206.0"/>
      <point x="266.5" y="156.1" type="curve" smooth="yes"/>
      <point x="266.5" y="96.2"/>
      <point x="233.0" y="49.0"/>
      <point x="177.7" y="49.0" type="curve" smooth="yes"/>
      <point x="120.80000000000001" y="49.0"/>
      <point x="85.6" y="104.1"/>
      <point x="85.6" y="204.7" type="curve" smooth="yes"/>
      <point x="85.6" y="347.5"/>
      <point x="185.8" y="505.0"/>
      <point x="343.2" y="505.0" type="curve" smooth="yes"/>
      <point x="453.7" y="505.0"/>
      <point x="501.1" y="427.5"/>
      <point x="474.1" y="310.1" type="curve" smooth="yes"/>
      <point x="443.1" y="175.2" type="line" smooth="yes"/>
      <point x="421.9" y="82.9"/>
      <point x="452.5" y="0.0"/>
      <point x="555.4" y="0.0" type="curve" smooth="yes"/>
      <point x="702.5" y="0.0"/>
      <point x="821.1" y="152.4"/>
      <point x="821.1" y="363.6" type="curve" smooth="yes"/>
      <point x="821.1" y="438.0"/>
      <point x="801.2" y="501.6"/>
      <point x="771.1" y="559.3" type="curve"/>
      <point x="721.5" y="533.3" type="line"/>
      <point x="746.2" y="483.3"/>
      <point x="767.7" y="426.2"/>
      <point x="767.7" y="357.0" type="curve" smooth="yes"/>
      <point x="767.7" y="185.1"/>
      <point x="672.9" y="59.0"/>
      <point x="579.5" y="59.0" type="curve" smooth="yes"/>
      <point x="524.6" y="59.0"/>
      <point x="518.0" y="108.9"/>
      <point x="532.6" y="174.2" type="curve" smooth="yes"/>
      <point x="563.3" y="310.2" type="line" smooth="yes"/>
      <point x="597.6" y="463.7"/>
      <point x="513.3" y="559.0"/>
      <point x="355.4" y="559.0" type="curve" smooth="yes"/>
      <point x="163.3" y="559.0"/>
      <point x="32.5" y="377.2"/>
      <point x="32.5" y="202.5" type="curve" smooth="yes"/>
      <point x="32.5" y="71.2"/>
      <point x="92.5" y="-5.0"/>
    </contour>
  </outline>
</glyph>
<glyph name="va-tamil" format="2">
  <advance width="927.7"/>
  <unicode hex="0BB5"/>
  <note>
uni0BB5
</note>
  <anchor x="440.8" y="0.0" name="bottom"/>
  <anchor x="831.9" y="554.0" name="imatra"/>
  <anchor x="440.8" y="0.0" name="nukta"/>
  <anchor x="526.2" y="554.0" name="top"/>
  <anchor x="508.9" y="554.0" name="vedic"/>
  <outline>
    <contour>
      <point x="188.1" y="-5.0" type="curve" smooth="yes"/>
      <point x="273.7" y="-5.0"/>
      <point x="353.6" y="62.7"/>
      <point x="353.6" y="171.6" type="curve" smooth="yes"/>
      <point x="353.6" y="251.6"/>
      <point x="303.4" y="303.0"/>
      <point x="231.7" y="303.0" type="curve" smooth="yes"/>
      <point x="150.7" y="303.0"/>
      <point x="89.2" y="234.6"/>
      <point x="61.7" y="137.7" type="curve"/>
      <point x="85.6" y="110.0" type="line"/>
      <point x="107.0" y="190.3"/>
      <point x="147.4" y="236.0"/>
      <point x="199.6" y="236.0" type="curve" smooth="yes"/>
      <point x="239.60000000000002" y="236.0"/>
      <point x="265.2" y="206.0"/>
      <point x="265.2" y="156.1" type="curve" smooth="yes"/>
      <point x="265.2" y="96.2"/>
      <point x="231.7" y="49.0"/>
      <point x="176.4" y="49.0" type="curve" smooth="yes"/>
      <point x="119.5" y="49.0"/>
      <point x="84.3" y="104.1"/>
      <point x="84.3" y="204.7" type="curve" smooth="yes"/>
      <point x="84.3" y="344.5"/>
      <point x="203.6" y="505.0"/>
      <point x="355.1" y="505.0" type="curve" smooth="yes"/>
      <point x="478.2" y="505.0"/>
      <point x="526.4" y="420.5"/>
      <point x="526.4" y="316.6" type="curve" smooth="yes"/>
      <point x="526.4" y="214.6"/>
      <point x="480.9" y="125.5"/>
      <point x="410.9" y="40.9" type="curve"/>
      <point x="418.9" y="0.0" type="line"/>
      <point x="787.5" y="0.0" type="line"/>
      <point x="905.5" y="554.0" type="line"/>
      <point x="816.0" y="554.0" type="line"/>
      <point x="709.7" y="54.0" type="line"/>
      <point x="488.4" y="54.0" type="line"/>
      <point x="562.3" y="129.5"/>
      <point x="616.1" y="217.6"/>
      <point x="616.1" y="331.0" type="curve" smooth="yes"/>
      <point x="616.1" y="472.4"/>
      <point x="520.8" y="559.0"/>
      <point x="367.1" y="559.0" type="curve" smooth="yes"/>
      <point x="178.5" y="559.0"/>
      <point x="31.200000000000003" y="372.7"/>
      <point x="31.200000000000003" y="202.5" type="curve" smooth="yes"/>
      <point x="31.200000000000003" y="71.2"/>
      <point x="91.2" y="-5.0"/>
    </contour>
  </outline>
</glyph>
<glyph name="sha-tamil" format="2">
  <advance width="910.5"/>
  <unicode hex="0BB6"/>
  <note>
uni0BB6
</note>
  <anchor x="408.2" y="0.0" name="bottom"/>
  <anchor x="766.5" y="554.0" name="imatra"/>
  <anchor x="408.2" y="0.0" name="nukta"/>
  <anchor x="526.8" y="554.0" name="top"/>
  <anchor x="529.4" y="554.0" name="vedic"/>
  <outline>
    <contour>
      <point x="200.8" y="-5.0" type="curve" smooth="yes"/>
      <point x="293.1" y="-5.0"/>
      <point x="364.9" y="43.4"/>
      <point x="393.1" y="176.4" type="curve" smooth="yes"/>
      <point x="462.0" y="500.0" type="line"/>
      <point x="569.6" y="500.0" type="line"/>
      <point x="495.8" y="155.3" type="line" smooth="yes"/>
      <point x="476.2" y="63.6"/>
      <point x="516.1" y="-5.0"/>
      <point x="608.2" y="-5.0" type="curve" smooth="yes"/>
      <point x="774.0" y="-5.0"/>
      <point x="887.5" y="239.9"/>
      <point x="887.5" y="430.5" type="curve" smooth="yes"/>
      <point x="887.5" y="516.5"/>
      <point x="845.4" y="554.0"/>
      <point x="771.4" y="554.0" type="curve" smooth="yes"/>
      <point x="417.4" y="554.0" type="line"/>
      <point x="337.8" y="179.3" type="line" smooth="yes"/>
      <point x="318.4" y="86.6"/>
      <point x="273.2" y="54.0"/>
      <point x="221.0" y="54.0" type="curve" smooth="yes"/>
      <point x="152.0" y="54.0"/>
      <point x="132.4" y="112.2"/>
      <point x="148.7" y="191.3" type="curve" smooth="yes"/>
      <point x="226.9" y="554.0" type="line"/>
      <point x="136.0" y="554.0" type="line"/>
      <point x="59.400000000000006" y="193.4" type="line" smooth="yes"/>
      <point x="34.900000000000006" y="80.0"/>
      <point x="86.7" y="-5.0"/>
    </contour>
    <contour>
      <point x="630.6" y="54.0" type="curve" smooth="yes"/>
      <point x="579.5" y="54.0"/>
      <point x="574.1" y="100.1"/>
      <point x="586.0" y="155.7" type="curve" smooth="yes"/>
      <point x="659.4" y="500.0" type="line"/>
      <point x="758.5" y="500.0" type="line" smooth="yes"/>
      <point x="811.6" y="500.0"/>
      <point x="831.7" y="477.1"/>
      <point x="831.7" y="425.5" type="curve" smooth="yes"/>
      <point x="831.7" y="285.0"/>
      <point x="739.0" y="54.0"/>
    </contour>
  </outline>
</glyph>
<glyph name="sa-tamil" format="2">
  <advance width="1112.7"/>
  <unicode hex="0BB8"/>
  <note>
uni0BB8
</note>
  <anchor x="498.0" y="0.0" name="bottom"/>
  <anchor x="498.0" y="0.0" name="nukta"/>
  <anchor x="603.3" y="554.0" name="top"/>
  <anchor x="613.7" y="554.0" name="vedic"/>
  <outline>
    <contour>
      <point x="426.8" y="0.0" type="line"/>
      <point x="516.3" y="0.0" type="line"/>
      <point x="605.7" y="421.8" type="line" smooth="yes"/>
      <point x="617.0" y="473.0"/>
      <point x="642.5" y="504.0"/>
      <point x="689.8" y="504.0" type="curve" smooth="yes"/>
      <point x="735.1" y="504.0"/>
      <point x="760.9" y="469.0"/>
      <point x="748.7" y="412.3" type="curve" smooth="yes"/>
      <point x="697.7" y="175.2" type="line" smooth="yes"/>
      <point x="676.8" y="82.9"/>
      <point x="707.1" y="0.0"/>
      <point x="810.0" y="0.0" type="curve" smooth="yes"/>
      <point x="957.1" y="0.0"/>
      <point x="1075.7" y="152.4"/>
      <point x="1075.7" y="363.6" type="curve" smooth="yes"/>
      <point x="1075.7" y="438.0"/>
      <point x="1057.3" y="501.0"/>
      <point x="1027.8" y="559.0" type="curve"/>
      <point x="977.6" y="533.6" type="line"/>
      <point x="1002.0" y="483.3"/>
      <point x="1022.3" y="426.2"/>
      <point x="1022.3" y="357.0" type="curve" smooth="yes"/>
      <point x="1022.3" y="185.1"/>
      <point x="927.5" y="59.0"/>
      <point x="834.1" y="59.0" type="curve" smooth="yes"/>
      <point x="779.2" y="59.0"/>
      <point x="772.6" y="108.6"/>
      <point x="787.2" y="174.2" type="curve" smooth="yes"/>
      <point x="834.5" y="397.0" type="line" smooth="yes"/>
      <point x="853.6" y="487.7"/>
      <point x="808.3" y="559.0"/>
      <point x="712.0" y="559.0" type="curve" smooth="yes"/>
      <point x="628.8" y="559.0"/>
      <point x="572.7" y="501.5"/>
      <point x="556.7" y="428.5" type="curve" smooth="yes"/>
      <point x="538.4" y="345.4" type="line"/>
      <point x="499.6" y="345.4" type="line"/>
    </contour>
    <contour>
      <point x="189.7" y="-5.0" type="curve" smooth="yes"/>
      <point x="275.3" y="-5.0"/>
      <point x="355.2" y="62.7"/>
      <point x="355.2" y="171.6" type="curve" smooth="yes"/>
      <point x="355.2" y="251.6"/>
      <point x="305.0" y="303.0"/>
      <point x="233.3" y="303.0" type="curve" smooth="yes"/>
      <point x="152.3" y="303.0"/>
      <point x="90.80000000000001" y="234.6"/>
      <point x="63.300000000000004" y="137.7" type="curve"/>
      <point x="87.2" y="110.0" type="line"/>
      <point x="108.6" y="190.3"/>
      <point x="149.0" y="236.0"/>
      <point x="201.2" y="236.0" type="curve" smooth="yes"/>
      <point x="241.2" y="236.0"/>
      <point x="266.8" y="206.0"/>
      <point x="266.8" y="156.1" type="curve" smooth="yes"/>
      <point x="266.8" y="96.2"/>
      <point x="233.3" y="49.0"/>
      <point x="178.0" y="49.0" type="curve" smooth="yes"/>
      <point x="121.1" y="49.0"/>
      <point x="85.9" y="104.1"/>
      <point x="85.9" y="204.7" type="curve" smooth="yes"/>
      <point x="85.9" y="347.5"/>
      <point x="183.1" y="505.0"/>
      <point x="340.5" y="505.0" type="curve" smooth="yes"/>
      <point x="449.0" y="505.0"/>
      <point x="519.8" y="440.2"/>
      <point x="492.7" y="311.8" type="curve"/>
      <point x="547.8" y="316.8" type="line"/>
      <point x="578.7" y="467.2"/>
      <point x="488.3" y="559.0"/>
      <point x="352.7" y="559.0" type="curve" smooth="yes"/>
      <point x="160.6" y="559.0"/>
      <point x="32.8" y="377.2"/>
      <point x="32.8" y="202.5" type="curve" smooth="yes"/>
      <point x="32.8" y="71.2"/>
      <point x="92.80000000000001" y="-5.0"/>
    </contour>
  </outline>
</glyph>
<glyph name="aaMatra-tamil" format="2">
  <advance width="549.2"/>
  <unicode hex="0BBE"/>
  <note>
uni0BBE
</note>
  <anchor x="235.5" y="0.0" name="bottom"/>
  <anchor x="234.5" y="0.0" name="nukta"/>
  <anchor x="346.5" y="554.0" name="top"/>
  <anchor x="346.5" y="554.0" name="vedic"/>
  <outline>
    <contour>
      <point x="22.900000000000002" y="0.0" type="line"/>
      <point x="80.1" y="0.0" type="line"/>
      <point x="186.1" y="500.0" type="line"/>
      <point x="352.7" y="500.0" type="line"/>
      <point x="246.4" y="0.0" type="line"/>
      <point x="335.9" y="0.0" type="line"/>
      <point x="441.9" y="500.0" type="line"/>
      <point x="575.4" y="500.0" type="line"/>
      <point x="586.7" y="554.0" type="line"/>
      <point x="140.2" y="554.0" type="line"/>
    </contour>
  </outline>
</glyph>
<glyph name="iMatra-tamil" format="2">
  <advance width="193.4"/>
  <unicode hex="0BBF"/>
  <note>
uni0BBF
</note>
  <anchor x="-16.8" y="820.7" name="top"/>
  <outline>
    <contour>
      <point x="1.1000000000000014" y="0.0" type="line"/>
      <point x="56.900000000000006" y="0.0" type="line"/>
      <point x="178.5" y="568.5" type="line" smooth="yes"/>
      <point x="210.3" y="718.9"/>
      <point x="132.4" y="820.7"/>
      <point x="-16.8" y="820.7" type="curve" smooth="yes"/>
      <point x="-140.4" y="820.7"/>
      <point x="-225.2" y="734.0"/>
      <point x="-225.2" y="626.8" type="curve" smooth="yes"/>
      <point x="-225.2" y="555.0"/>
      <point x="-176.3" y="500.0"/>
      <point x="-115.3" y="500.0" type="curve" smooth="yes"/>
      <point x="-110.3" y="500.0" type="line"/>
      <point x="-98.6" y="554.0" type="line"/>
      <point x="-103.6" y="554.0" type="line" smooth="yes"/>
      <point x="-139.3" y="554.0"/>
      <point x="-165.7" y="581.2"/>
      <point x="-165.7" y="623.1" type="curve" smooth="yes"/>
      <point x="-165.7" y="686.7"/>
      <point x="-108.1" y="733.4"/>
      <point x="-25.6" y="733.4" type="curve" smooth="yes"/>
      <point x="84.2" y="733.4"/>
      <point x="142.7" y="664.0"/>
      <point x="117.6" y="547.5" type="curve" smooth="yes"/>
    </contour>
  </outline>
</glyph>
<glyph name="iiMatra-tamil" format="2">
  <unicode hex="0BC0"/>
  <note>
uni0BC0
</note>
  <anchor x="59.0" y="554.0" name="_imatra"/>
  <anchor x="110.9" y="882.0" name="top"/>
  <outline>
    <contour>
      <point x="34.4" y="505.0" type="curve" smooth="yes"/>
      <point x="49.0" y="505.0" type="line"/>
      <point x="59.0" y="554.0" type="line"/>
      <point x="46.5" y="554.0" type="line" smooth="yes"/>
      <point x="-9.9" y="554.0"/>
      <point x="-45.1" y="597.6"/>
      <point x="-45.1" y="666.9" type="curve" smooth="yes"/>
      <point x="-45.1" y="740.7"/>
      <point x="5.8" y="828.0"/>
      <point x="104.3" y="828.0" type="curve" smooth="yes"/>
      <point x="158.8" y="828.0"/>
      <point x="189.1" y="794.1"/>
      <point x="189.1" y="746.3" type="curve" smooth="yes"/>
      <point x="189.1" y="695.4"/>
      <point x="161.9" y="656.0"/>
      <point x="116.5" y="656.0" type="curve" smooth="yes"/>
      <point x="44.9" y="656.0"/>
      <point x="55.5" y="767.2"/>
      <point x="111.7" y="851.0" type="curve"/>
      <point x="71.4" y="855.0" type="line"/>
      <point x="-11.900000000000002" y="738.4"/>
      <point x="0.20000000000000018" y="602.0"/>
      <point x="123.1" y="602.0" type="curve" smooth="yes"/>
      <point x="200.7" y="602.0"/>
      <point x="266.2" y="658.8"/>
      <point x="266.2" y="745.1" type="curve" smooth="yes"/>
      <point x="266.2" y="831.3"/>
      <point x="202.3" y="882.0"/>
      <point x="110.9" y="882.0" type="curve" smooth="yes"/>
      <point x="-15.3" y="882.0"/>
      <point x="-100.3" y="771.7"/>
      <point x="-100.3" y="661.6" type="curve" smooth="yes"/>
      <point x="-100.3" y="564.6"/>
      <point x="-41.3" y="505.0"/>
    </contour>
  </outline>
</glyph>
<glyph name="uuMatra-tamil" format="2">
  <advance width="726.6"/>
  <unicode hex="0BC2"/>
  <note>
uni0BC2
</note>
  <anchor x="460.6" y="780.3" name="top"/>
  <outline>
    <contour>
      <point x="294.9" y="0.0" type="curve" smooth="yes"/>
      <point x="541.2" y="0.0"/>
      <point x="719.1" y="222.4"/>
      <point x="719.1" y="491.0" type="curve" smooth="yes"/>
      <point x="719.1" y="675.2"/>
      <point x="611.8" y="780.0"/>
      <point x="460.9" y="780.0" type="curve" smooth="yes"/>
      <point x="296.9" y="780.0"/>
      <point x="212.2" y="655.1"/>
      <point x="185.6" y="534.2" type="curve" smooth="yes"/>
      <point x="154.3" y="391.2" type="line" smooth="yes"/>
      <point x="130.3" y="281.5"/>
      <point x="181.4" y="214.0"/>
      <point x="273.8" y="214.0" type="curve" smooth="yes"/>
      <point x="353.5" y="214.0"/>
      <point x="423.0" y="256.8"/>
      <point x="444.9" y="359.3" type="curve" smooth="yes"/>
      <point x="486.3" y="554.0" type="line"/>
      <point x="-150.3" y="554.0" type="line"/>
      <point x="-124.4" y="500.0" type="line"/>
      <point x="385.8" y="500.0" type="line"/>
      <point x="355.8" y="359.3" type="line" smooth="yes"/>
      <point x="343.2" y="300.4"/>
      <point x="314.2" y="270.1"/>
      <point x="266.8" y="270.1" type="curve" smooth="yes"/>
      <point x="214.2" y="270.1"/>
      <point x="193.9" y="313.6"/>
      <point x="209.8" y="387.6" type="curve" smooth="yes"/>
      <point x="241.4" y="534.2" type="line" smooth="yes"/>
      <point x="263.0" y="634.9"/>
      <point x="328.3" y="727.0"/>
      <point x="448.9" y="727.0" type="curve" smooth="yes"/>
      <point x="568.9" y="727.0"/>
      <point x="631.5" y="639.4"/>
      <point x="631.5" y="505.3" type="curve" smooth="yes"/>
      <point x="631.5" y="277.2"/>
      <point x="500.9" y="54.0"/>
      <point x="294.4" y="54.0" type="curve" smooth="yes"/>
      <point x="198.10000000000002" y="54.0"/>
      <point x="122.80000000000001" y="92.1"/>
      <point x="65.5" y="182.6" type="curve"/>
      <point x="17.700000000000003" y="150.2" type="line"/>
      <point x="78.9" y="55.9"/>
      <point x="167.5" y="0.0"/>
    </contour>
  </outline>
</glyph>
<glyph name="eMatra-tamil" format="2">
  <advance width="699.7"/>
  <unicode hex="0BC6"/>
  <note>
uni0BC6
</note>
  <outline>
    <contour>
      <point x="236.9" y="-5.0" type="curve" smooth="yes"/>
      <point x="326.0" y="-5.0"/>
      <point x="403.7" y="63.3"/>
      <point x="403.7" y="172.2" type="curve" smooth="yes"/>
      <point x="403.7" y="253.4"/>
      <point x="354.9" y="308.0"/>
      <point x="280.4" y="308.0" type="curve" smooth="yes"/>
      <point x="199.4" y="308.0"/>
      <point x="138.6" y="234.0"/>
      <point x="111.1" y="137.1" type="curve"/>
      <point x="134.4" y="109.4" type="line"/>
      <point x="155.8" y="189.7"/>
      <point x="197.5" y="241.0"/>
      <point x="249.7" y="241.0" type="curve" smooth="yes"/>
      <point x="289.7" y="241.0"/>
      <point x="315.3" y="209.4"/>
      <point x="315.3" y="156.7" type="curve" smooth="yes"/>
      <point x="315.3" y="96.8"/>
      <point x="280.5" y="49.0"/>
      <point x="223.8" y="49.0" type="curve" smooth="yes"/>
      <point x="166.9" y="49.0"/>
      <point x="115.7" y="109.5"/>
      <point x="115.7" y="255.2" type="curve" smooth="yes"/>
      <point x="115.7" y="481.7"/>
      <point x="239.0" y="729.2"/>
      <point x="445.8" y="729.2" type="curve" smooth="yes"/>
      <point x="586.7" y="729.2"/>
      <point x="644.7" y="645.8"/>
      <point x="610.3" y="484.0" type="curve" smooth="yes"/>
      <point x="508.1" y="0.0" type="line"/>
      <point x="563.9" y="0.0" type="line"/>
      <point x="668.6" y="495.9" type="line" smooth="yes"/>
      <point x="707.8" y="682.1"/>
      <point x="631.7" y="819.2"/>
      <point x="459.6" y="819.2" type="curve" smooth="yes"/>
      <point x="211.0" y="819.2"/>
      <point x="64.0" y="518.9"/>
      <point x="64.0" y="255.8" type="curve" smooth="yes"/>
      <point x="64.0" y="80.6"/>
      <point x="139.3" y="-5.0"/>
    </contour>
  </outline>
</glyph>
<glyph name="eeMatra-tamil" format="2">
  <advance width="527.0"/>
  <unicode hex="0BC7"/>
  <note>
uni0BC7
</note>
  <outline>
    <contour>
      <point x="274.2" y="-5.0" type="curve" smooth="yes"/>
      <point x="371.0" y="-5.0"/>
      <point x="454.9" y="62.6"/>
      <point x="454.9" y="177.2" type="curve" smooth="yes"/>
      <point x="454.9" y="259.8"/>
      <point x="402.5" y="308.9"/>
      <point x="336.1" y="308.9" type="curve" smooth="yes"/>
      <point x="244.3" y="308.9"/>
      <point x="178.5" y="204.9"/>
      <point x="153.2" y="98.8" type="curve"/>
      <point x="184.0" y="73.7" type="line"/>
      <point x="205.8" y="161.9"/>
      <point x="249.3" y="241.6"/>
      <point x="302.7" y="241.6" type="curve" smooth="yes"/>
      <point x="342.7" y="241.6"/>
      <point x="366.5" y="215.1"/>
      <point x="366.5" y="161.9" type="curve" smooth="yes"/>
      <point x="366.5" y="99.8"/>
      <point x="327.0" y="49.0"/>
      <point x="265.8" y="49.0" type="curve" smooth="yes"/>
      <point x="181.9" y="49.0"/>
      <point x="121.9" y="156.6"/>
      <point x="121.9" y="315.7" type="curve" smooth="yes"/>
      <point x="121.9" y="497.7"/>
      <point x="248.8" y="765.9"/>
      <point x="403.5" y="765.9" type="curve" smooth="yes"/>
      <point x="453.2" y="765.9"/>
      <point x="480.9" y="735.0"/>
      <point x="480.9" y="685.4" type="curve" smooth="yes"/>
      <point x="480.9" y="627.0"/>
      <point x="450.0" y="573.3"/>
      <point x="393.2" y="573.3" type="curve" smooth="yes"/>
      <point x="331.6" y="573.3"/>
      <point x="320.0" y="670.8"/>
      <point x="332.2" y="761.9" type="curve"/>
      <point x="291.6" y="737.1" type="line"/>
      <point x="274.5" y="620.5"/>
      <point x="306.9" y="505.6"/>
      <point x="409.3" y="505.6" type="curve" smooth="yes"/>
      <point x="497.8" y="505.6"/>
      <point x="567.3" y="580.9"/>
      <point x="567.3" y="679.5" type="curve" smooth="yes"/>
      <point x="567.3" y="771.7"/>
      <point x="507.2" y="819.2"/>
      <point x="419.6" y="819.2" type="curve" smooth="yes"/>
      <point x="218.3" y="819.2"/>
      <point x="68.1" y="530.5"/>
      <point x="68.1" y="311.4" type="curve" smooth="yes"/>
      <point x="68.1" y="120.1"/>
      <point x="149.7" y="-5.0"/>
    </contour>
  </outline>
</glyph>
<glyph name="aiMatra-tamil" format="2">
  <advance width="1058.5"/>
  <unicode hex="0BC8"/>
  <note>
uni0BC8
</note>
  <outline>
    <contour>
      <point x="806.5" y="-6.8" type="line"/>
      <point x="939.4" y="73.5"/>
      <point x="1018.8" y="184.6"/>
      <point x="1018.8" y="321.3" type="curve" smooth="yes"/>
      <point x="1018.8" y="469.4"/>
      <point x="918.0" y="559.0"/>
      <point x="766.1" y="559.0" type="curve" smooth="yes"/>
      <point x="560.8" y="559.0"/>
      <point x="403.0" y="331.0"/>
      <point x="403.0" y="149.6" type="curve" smooth="yes"/>
      <point x="403.0" y="57.0"/>
      <point x="439.2" y="-5.0"/>
      <point x="524.6" y="-5.0" type="curve" smooth="yes"/>
      <point x="633.9" y="-5.0"/>
      <point x="712.4" y="99.4"/>
      <point x="712.4" y="231.1" type="curve" smooth="yes"/>
      <point x="712.4" y="425.2"/>
      <point x="594.1" y="559.0"/>
      <point x="391.3" y="559.0" type="curve" smooth="yes"/>
      <point x="194.9" y="559.0"/>
      <point x="31.200000000000003" y="383.9"/>
      <point x="31.200000000000003" y="202.5" type="curve" smooth="yes"/>
      <point x="31.200000000000003" y="70.0"/>
      <point x="89.1" y="-5.0"/>
      <point x="186.0" y="-5.0" type="curve" smooth="yes"/>
      <point x="271.6" y="-5.0"/>
      <point x="353.6" y="62.7"/>
      <point x="353.6" y="171.6" type="curve" smooth="yes"/>
      <point x="353.6" y="251.6"/>
      <point x="303.4" y="303.0"/>
      <point x="231.7" y="303.0" type="curve" smooth="yes"/>
      <point x="150.7" y="303.0"/>
      <point x="89.2" y="234.6"/>
      <point x="61.7" y="137.7" type="curve"/>
      <point x="85.6" y="110.0" type="line"/>
      <point x="107.0" y="190.3"/>
      <point x="147.4" y="236.0"/>
      <point x="199.6" y="236.0" type="curve" smooth="yes"/>
      <point x="239.60000000000002" y="236.0"/>
      <point x="265.2" y="206.0"/>
      <point x="265.2" y="156.1" type="curve" smooth="yes"/>
      <point x="265.2" y="96.2"/>
      <point x="229.60000000000002" y="49.0"/>
      <point x="174.3" y="49.0" type="curve" smooth="yes"/>
      <point x="117.4" y="49.0"/>
      <point x="84.3" y="102.9"/>
      <point x="84.3" y="204.7" type="curve" smooth="yes"/>
      <point x="84.3" y="354.2"/>
      <point x="217.7" y="505.0"/>
      <point x="385.4" y="505.0" type="curve" smooth="yes"/>
      <point x="548.1" y="505.0"/>
      <point x="622.6" y="373.7"/>
      <point x="622.6" y="228.9" type="curve" smooth="yes"/>
      <point x="622.6" y="129.0"/>
      <point x="580.1" y="49.9"/>
      <point x="513.8" y="49.9" type="curve" smooth="yes"/>
      <point x="473.9" y="49.9"/>
      <point x="456.9" y="87.5"/>
      <point x="456.9" y="155.4" type="curve" smooth="yes"/>
      <point x="456.9" y="299.4"/>
      <point x="588.4" y="505.0"/>
      <point x="757.8" y="505.0" type="curve" smooth="yes"/>
      <point x="871.7" y="505.0"/>
      <point x="928.8" y="435.1"/>
      <point x="928.8" y="325.6" type="curve" smooth="yes"/>
      <point x="928.8" y="207.6"/>
      <point x="876.6" y="111.8"/>
      <point x="782.3" y="28.8" type="curve"/>
    </contour>
  </outline>
</glyph>
<glyph name="halant-tamil" format="2">
  <unicode hex="0BCD"/>
  <note>
uni0BCD
</note>
  <anchor x="59.0" y="554.0" name="_top"/>
  <outline>
    <contour>
      <point x="87.2" y="628.6" type="curve" smooth="yes"/>
      <point x="119.1" y="628.6"/>
      <point x="144.7" y="654.5"/>
      <point x="144.7" y="684.4" type="curve" smooth="yes"/>
      <point x="144.7" y="714.3"/>
      <point x="119.1" y="740.9"/>
      <point x="87.2" y="740.9" type="curve" smooth="yes"/>
      <point x="55.3" y="740.9"/>
      <point x="29.7" y="714.3"/>
      <point x="29.7" y="684.4" type="curve" smooth="yes"/>
      <point x="29.7" y="654.5"/>
      <point x="55.3" y="628.6"/>
    </contour>
  </outline>
</glyph>
<glyph name="om-tamil" format="2">
  <advance width="814.9"/>
  <unicode hex="0BD0"/>
  <note>
uni0BD0
</note>
  <outline>
    <contour>
      <point x="168.3" y="-357.9" type="curve" smooth="yes"/>
      <point x="372.3" y="-357.9"/>
      <point x="424.3" y="-138.3"/>
      <point x="568.3" y="-138.3" type="curve" smooth="yes"/>
      <point x="593.3" y="-138.3" type="line"/>
      <point x="605.0" y="-84.6" type="line"/>
      <point x="573.0" y="-84.6" type="line" smooth="yes"/>
      <point x="422.4" y="-84.6"/>
      <point x="377.6" y="62.0"/>
      <point x="479.0" y="193.3" type="curve"/>
      <point x="483.7" y="190.0" type="line"/>
      <point x="434.8" y="91.2"/>
      <point x="451.6" y="-5.0"/>
      <point x="555.5" y="-5.0" type="curve" smooth="yes"/>
      <point x="671.3" y="-5.0"/>
      <point x="760.4" y="103.9"/>
      <point x="760.4" y="256.4" type="curve" smooth="yes"/>
      <point x="760.4" y="452.9"/>
      <point x="608.7" y="559.0"/>
      <point x="424.9" y="559.0" type="curve" smooth="yes"/>
      <point x="215.2" y="559.0"/>
      <point x="34.3" y="405.3"/>
      <point x="34.3" y="216.0" type="curve" smooth="yes"/>
      <point x="34.3" y="84.7"/>
      <point x="91.9" y="5.0"/>
      <point x="187.4" y="5.0" type="curve" smooth="yes"/>
      <point x="273.7" y="5.0"/>
      <point x="351.6" y="73.3"/>
      <point x="351.6" y="182.2" type="curve" smooth="yes"/>
      <point x="351.6" y="263.4"/>
      <point x="303.5" y="313.0"/>
      <point x="233.3" y="313.0" type="curve" smooth="yes"/>
      <point x="152.3" y="313.0"/>
      <point x="90.8" y="244.6"/>
      <point x="63.3" y="147.7" type="curve"/>
      <point x="87.2" y="120.0" type="line"/>
      <point x="108.6" y="200.3"/>
      <point x="149.0" y="246.0"/>
      <point x="201.2" y="246.0" type="curve" smooth="yes"/>
      <point x="240.60000000000002" y="246.0"/>
      <point x="263.2" y="217.2"/>
      <point x="263.2" y="166.7" type="curve" smooth="yes"/>
      <point x="263.2" y="106.8"/>
      <point x="230.3" y="59.0"/>
      <point x="175.7" y="59.0" type="curve" smooth="yes"/>
      <point x="120.2" y="59.0"/>
      <point x="87.4" y="117.6"/>
      <point x="87.4" y="218.2" type="curve" smooth="yes"/>
      <point x="87.4" y="375.6"/>
      <point x="239.8" y="505.0"/>
      <point x="413.4" y="505.0" type="curve" smooth="yes"/>
      <point x="559.3" y="505.0"/>
      <point x="673.6" y="410.8"/>
      <point x="673.6" y="260.8" type="curve" smooth="yes"/>
      <point x="673.6" y="154.1"/>
      <point x="630.1" y="49.0"/>
      <point x="551.0" y="49.0" type="curve" smooth="yes"/>
      <point x="473.3" y="49.0"/>
      <point x="501.3" y="164.9"/>
      <point x="558.7" y="252.3" type="curve"/>
      <point x="506.0" y="285.8" type="line"/>
      <point x="373.3" y="156.1"/>
      <point x="324.6" y="-36.1"/>
      <point x="471.4" y="-106.0" type="curve"/>
      <point x="470.4" y="-111.0" type="line"/>
      <point x="358.5" y="-133.2"/>
      <point x="316.7" y="-296.1"/>
      <point x="159.9" y="-296.1" type="curve" smooth="yes"/>
      <point x="74.5" y="-296.1"/>
      <point x="26.8" y="-246.8"/>
      <point x="56.7" y="-162.8" type="curve"/>
      <point x="7.600000000000001" y="-154.9" type="line"/>
      <point x="-35.099999999999994" y="-279.6"/>
      <point x="48.0" y="-357.9"/>
    </contour>
    <contour>
      <point x="83.1" y="-230.7" type="line"/>
      <point x="122.6" y="-230.7" type="line"/>
      <point x="154.6" y="-78.7" type="line"/>
      <point x="115.1" y="-78.7" type="line"/>
    </contour>
    <contour>
      <point x="97.2" y="-230.7" type="line"/>
      <point x="256.2" y="-230.7" type="line"/>
      <point x="264.2" y="-192.1" type="line"/>
      <point x="105.2" y="-192.1" type="line"/>
    </contour>
    <contour>
      <point x="158.6" y="-230.7" type="line"/>
      <point x="195.8" y="-230.7" type="line"/>
      <point x="216.2" y="-137.0" type="line" smooth="yes"/>
      <point x="219.2" y="-123.4"/>
      <point x="225.4" y="-115.0"/>
      <point x="237.8" y="-115.0" type="curve" smooth="yes"/>
      <point x="253.0" y="-115.0"/>
      <point x="256.8" y="-127.3"/>
      <point x="253.5" y="-142.8" type="curve" smooth="yes"/>
      <point x="234.8" y="-230.7" type="line"/>
      <point x="275.7" y="-230.7" type="line"/>
      <point x="293.4" y="-147.0" type="line" smooth="yes"/>
      <point x="302.9" y="-103.0"/>
      <point x="280.3" y="-76.0"/>
      <point x="243.5" y="-76.0" type="curve" smooth="yes"/>
      <point x="212.5" y="-76.0"/>
      <point x="187.6" y="-96.1"/>
      <point x="178.0" y="-139.4" type="curve" smooth="yes"/>
    </contour>
    <contour>
      <point x="215.2" y="-67.0" type="curve" smooth="yes"/>
      <point x="232.1" y="-67.0"/>
      <point x="245.7" y="-53.1"/>
      <point x="245.7" y="-37.5" type="curve" smooth="yes"/>
      <point x="245.7" y="-22.9"/>
      <point x="232.1" y="-9.0"/>
      <point x="215.2" y="-9.0" type="curve" smooth="yes"/>
      <point x="198.3" y="-9.0"/>
      <point x="184.7" y="-22.9"/>
      <point x="184.7" y="-37.5" type="curve" smooth="yes"/>
      <point x="184.7" y="-53.1"/>
      <point x="198.3" y="-67.0"/>
    </contour>
  </outline>
</glyph>
<glyph name="zero-tamil" format="2">
  <advance width="508.6"/>
  <unicode hex="0BE6"/>
  <note>
uni0BE6
</note>
  <outline>
    <contour>
      <point x="207.1" y="-5.0" type="curve" smooth="yes"/>
      <point x="358.5" y="-5.0"/>
      <point x="469.9" y="159.0"/>
      <point x="469.9" y="342.8" type="curve" smooth="yes"/>
      <point x="469.9" y="486.2"/>
      <point x="401.3" y="559.0"/>
      <point x="292.2" y="559.0" type="curve" smooth="yes"/>
      <point x="135.5" y="559.0"/>
      <point x="38.0" y="367.2"/>
      <point x="38.0" y="204.5" type="curve" smooth="yes"/>
      <point x="38.0" y="83.6"/>
      <point x="101.2" y="-5.0"/>
    </contour>
    <contour>
      <point x="198.2" y="59.5" type="curve" smooth="yes"/>
      <point x="126.2" y="59.5"/>
      <point x="96.3" y="123.3"/>
      <point x="96.3" y="207.8" type="curve" smooth="yes"/>
      <point x="96.3" y="328.3"/>
      <point x="159.1" y="495.2"/>
      <point x="274.0" y="495.2" type="curve" smooth="yes"/>
      <point x="341.5" y="495.2"/>
      <point x="380.4" y="444.3"/>
      <point x="380.4" y="349.4" type="curve" smooth="yes"/>
      <point x="380.4" y="215.8"/>
      <point x="314.4" y="59.5"/>
    </contour>
  </outline>
</glyph>
<glyph name="one-tamil" format="2">
  <advance width="696.8"/>
  <unicode hex="0BE7"/>
  <note>
uni0BE7
</note>
  <outline>
    <contour>
      <point x="182.3" y="-4.0" type="curve" smooth="yes"/>
      <point x="297.6" y="-4.0"/>
      <point x="359.3" y="60.8"/>
      <point x="385.9" y="186.6" type="curve" smooth="yes"/>
      <point x="401.9" y="263.0" type="line"/>
      <point x="453.1" y="263.0" type="line" smooth="yes"/>
      <point x="504.5" y="263.0"/>
      <point x="532.4" y="230.0"/>
      <point x="532.4" y="175.7" type="curve" smooth="yes"/>
      <point x="532.4" y="108.6"/>
      <point x="495.4" y="51.0"/>
      <point x="427.1" y="51.0" type="curve" smooth="yes"/>
      <point x="388.0" y="51.0"/>
      <point x="361.4" y="69.8"/>
      <point x="342.5" y="103.3" type="curve"/>
      <point x="304.9" y="63.6" type="line"/>
      <point x="333.0" y="20.9"/>
      <point x="374.7" y="-5.0"/>
      <point x="433.5" y="-5.0" type="curve" smooth="yes"/>
      <point x="544.5" y="-5.0"/>
      <point x="624.0" y="67.8"/>
      <point x="624.0" y="176.6" type="curve" smooth="yes"/>
      <point x="624.0" y="268.0"/>
      <point x="567.1" y="317.0"/>
      <point x="464.5" y="317.0" type="curve" smooth="yes"/>
      <point x="413.6" y="317.0" type="line"/>
      <point x="452.6" y="500.0" type="line"/>
      <point x="583.3" y="500.0" type="line"/>
      <point x="595.0" y="554.0" type="line"/>
      <point x="200.6" y="554.0" type="line"/>
      <point x="143.6" y="286.0" type="line"/>
      <point x="199.4" y="286.0" type="line"/>
      <point x="244.4" y="500.0" type="line"/>
      <point x="362.4" y="500.0" type="line"/>
      <point x="324.1" y="317.0" type="line"/>
      <point x="199.3" y="317.0" type="line" smooth="yes"/>
      <point x="92.4" y="317.0"/>
      <point x="21.4" y="238.0"/>
      <point x="21.4" y="141.0" type="curve" smooth="yes"/>
      <point x="21.4" y="57.9"/>
      <point x="86.3" y="-4.0"/>
    </contour>
    <contour>
      <point x="176.9" y="49.0" type="curve" smooth="yes"/>
      <point x="118.80000000000001" y="49.0"/>
      <point x="80.8" y="89.2"/>
      <point x="80.8" y="146.6" type="curve" smooth="yes"/>
      <point x="80.8" y="213.6"/>
      <point x="119.80000000000001" y="263.0"/>
      <point x="193.9" y="263.0" type="curve" smooth="yes"/>
      <point x="312.4" y="263.0" type="line"/>
      <point x="294.0" y="176.8" type="line" smooth="yes"/>
      <point x="274.0" y="82.6"/>
      <point x="238.2" y="49.0"/>
    </contour>
  </outline>
</glyph>
<glyph name="two-tamil" format="2">
  <advance width="764.1"/>
  <unicode hex="0BE8"/>
  <note>
uni0BE8
</note>
  <outline>
    <contour>
      <point x="86.8" y="0.0" type="curve" smooth="yes"/>
      <point x="684.9" y="0.0" type="line"/>
      <point x="695.9" y="54.0" type="line"/>
      <point x="92.6" y="54.0" type="line" smooth="yes"/>
      <point x="71.2" y="54.0"/>
      <point x="55.2" y="69.2"/>
      <point x="55.2" y="91.0" type="curve" smooth="yes"/>
      <point x="55.2" y="121.1"/>
      <point x="79.2" y="135.0"/>
      <point x="100.2" y="135.0" type="curve" smooth="yes"/>
      <point x="289.2" y="135.0" type="line" smooth="yes"/>
      <point x="432.7" y="135.0"/>
      <point x="554.3" y="218.8"/>
      <point x="554.3" y="367.9" type="curve" smooth="yes"/>
      <point x="554.3" y="493.8"/>
      <point x="466.5" y="559.0"/>
      <point x="345.6" y="559.0" type="curve" smooth="yes"/>
      <point x="199.8" y="559.0"/>
      <point x="103.0" y="441.3"/>
      <point x="103.0" y="321.8" type="curve" smooth="yes"/>
      <point x="103.0" y="207.2"/>
      <point x="179.1" y="149.0"/>
      <point x="277.9" y="149.0" type="curve"/>
      <point x="286.9" y="188.0" type="line"/>
      <point x="203.1" y="188.0"/>
      <point x="160.3" y="241.9"/>
      <point x="160.3" y="320.2" type="curve" smooth="yes"/>
      <point x="160.3" y="413.0"/>
      <point x="224.6" y="505.0"/>
      <point x="333.4" y="505.0" type="curve" smooth="yes"/>
      <point x="413.5" y="505.0"/>
      <point x="466.1" y="460.9"/>
      <point x="466.1" y="374.9" type="curve" smooth="yes"/>
      <point x="466.1" y="262.3"/>
      <point x="394.5" y="188.0"/>
      <point x="287.2" y="188.0" type="curve" smooth="yes"/>
      <point x="106.1" y="188.0" type="line" smooth="yes"/>
      <point x="43.2" y="188.0"/>
      <point x="0.7000000000000002" y="144.3"/>
      <point x="0.7000000000000002" y="84.4" type="curve" smooth="yes"/>
      <point x="0.7000000000000002" y="38.9"/>
      <point x="32.7" y="0.0"/>
    </contour>
  </outline>
</glyph>
<glyph name="five-tamil" format="2">
  <advance width="911.0"/>
  <unicode hex="0BEB"/>
  <note>
uni0BEB
</note>
  <outline>
    <contour>
      <point x="336.1" y="-296.0" type="curve" smooth="yes"/>
      <point x="581.7" y="-296.0"/>
      <point x="775.0" y="-75.0"/>
      <point x="775.0" y="192.6" type="curve" smooth="yes"/>
      <point x="775.0" y="284.1"/>
      <point x="733.1" y="345.0"/>
      <point x="655.5" y="345.0" type="curve" smooth="yes"/>
      <point x="581.4" y="345.0"/>
      <point x="537.7" y="287.0"/>
      <point x="520.5" y="197.6" type="curve" smooth="yes"/>
      <point x="514.0" y="163.9" type="line"/>
      <point x="536.5" y="163.9" type="line"/>
      <point x="543.0" y="196.4" type="line" smooth="yes"/>
      <point x="554.0" y="250.1"/>
      <point x="574.4" y="286.0"/>
      <point x="618.8" y="286.0" type="curve" smooth="yes"/>
      <point x="660.2" y="286.0"/>
      <point x="682.5" y="253.8"/>
      <point x="682.5" y="187.3" type="curve" smooth="yes"/>
      <point x="682.5" y="-43.400000000000006"/>
      <point x="553.0" y="-243.0"/>
      <point x="337.7" y="-243.0" type="curve" smooth="yes"/>
      <point x="167.5" y="-243.0"/>
      <point x="83.4" y="-104.0"/>
      <point x="83.4" y="116.30000000000001" type="curve" smooth="yes"/>
      <point x="83.4" y="420.8"/>
      <point x="240.8" y="739.0"/>
      <point x="524.7" y="739.0" type="curve" smooth="yes"/>
      <point x="718.5" y="739.0"/>
      <point x="842.0" y="611.1"/>
      <point x="818.0" y="396.0" type="curve"/>
      <point x="875.6" y="396.0" type="line"/>
      <point x="903.7" y="652.9"/>
      <point x="769.8" y="829.0"/>
      <point x="535.0" y="829.0" type="curve" smooth="yes"/>
      <point x="208.1" y="829.0"/>
      <point x="27.3" y="454.5"/>
      <point x="27.3" y="116.6" type="curve" smooth="yes"/>
      <point x="27.3" y="-132.9"/>
      <point x="133.4" y="-296.0"/>
    </contour>
    <contour>
      <point x="215.8" y="0.0" type="line"/>
      <point x="271.6" y="0.0" type="line"/>
      <point x="377.9" y="500.0" type="line"/>
      <point x="518.4" y="500.0" type="line"/>
      <point x="412.1" y="0.0" type="line"/>
      <point x="501.9" y="0.0" type="line"/>
      <point x="607.9" y="500.0" type="line"/>
      <point x="724.4" y="500.0" type="line"/>
      <point x="735.7" y="554.0" type="line"/>
      <point x="333.5" y="554.0" type="line"/>
    </contour>
  </outline>
</glyph>
<glyph name="six-tamil" format="2">
  <advance width="907.3"/>
  <unicode hex="0BEC"/>
  <note>
uni0BEC
</note>
  <outline>
    <contour>
      <point x="182.3" y="-4.0" type="curve" smooth="yes"/>
      <point x="297.6" y="-4.0"/>
      <point x="359.3" y="60.8"/>
      <point x="385.9" y="186.6" type="curve" smooth="yes"/>
      <point x="401.9" y="263.0" type="line"/>
      <point x="471.1" y="263.0" type="line" smooth="yes"/>
      <point x="498.5" y="263.0"/>
      <point x="513.7" y="249.4"/>
      <point x="506.7" y="217.4" type="curve" smooth="yes"/>
      <point x="459.7" y="0.0" type="line"/>
      <point x="544.8" y="0.0" type="line"/>
      <point x="589.8" y="213.1" type="line" smooth="yes"/>
      <point x="596.8" y="245.1"/>
      <point x="610.9" y="263.0"/>
      <point x="641.9" y="263.0" type="curve" smooth="yes"/>
      <point x="861.0" y="263.0" type="line"/>
      <point x="872.0" y="317.0" type="line"/>
      <point x="642.5" y="317.0" type="line" smooth="yes"/>
      <point x="601.0" y="317.0"/>
      <point x="570.5" y="297.8"/>
      <point x="556.2" y="263.0" type="curve"/>
      <point x="552.2" y="298.7"/>
      <point x="527.9" y="317.0"/>
      <point x="485.8" y="317.0" type="curve" smooth="yes"/>
      <point x="413.6" y="317.0" type="line"/>
      <point x="452.6" y="500.0" type="line"/>
      <point x="583.3" y="500.0" type="line"/>
      <point x="595.0" y="554.0" type="line"/>
      <point x="200.6" y="554.0" type="line"/>
      <point x="143.6" y="286.0" type="line"/>
      <point x="199.4" y="286.0" type="line"/>
      <point x="244.4" y="500.0" type="line"/>
      <point x="362.4" y="500.0" type="line"/>
      <point x="324.1" y="317.0" type="line"/>
      <point x="199.3" y="317.0" type="line" smooth="yes"/>
      <point x="92.4" y="317.0"/>
      <point x="21.4" y="238.0"/>
      <point x="21.4" y="141.0" type="curve" smooth="yes"/>
      <point x="21.4" y="57.9"/>
      <point x="86.3" y="-4.0"/>
    </contour>
    <contour>
      <point x="176.9" y="49.0" type="curve" smooth="yes"/>
      <point x="118.80000000000001" y="49.0"/>
      <point x="80.8" y="89.2"/>
      <point x="80.8" y="146.6" type="curve" smooth="yes"/>
      <point x="80.8" y="213.6"/>
      <point x="119.80000000000001" y="263.0"/>
      <point x="193.9" y="263.0" type="curve" smooth="yes"/>
      <point x="312.4" y="263.0" type="line"/>
      <point x="294.0" y="176.8" type="line" smooth="yes"/>
      <point x="274.0" y="82.6"/>
      <point x="238.2" y="49.0"/>
    </contour>
    <contour>
      <point x="648.9" y="0.0" type="line"/>
      <point x="734.3" y="0.0" type="line"/>
      <point x="795.3" y="288.0" type="line"/>
      <point x="709.9" y="288.0" type="line"/>
    </contour>
  </outline>
</glyph>
<glyph name="eight-tamil" format="2">
  <advance width="1060.1"/>
  <unicode hex="0BEE"/>
  <note>
uni0BEE
</note>
  <outline>
    <contour>
      <point x="790.2" y="-189.7" type="line"/>
      <point x="879.7" y="-189.7" type="line"/>
      <point x="1037.9" y="554.0" type="line"/>
      <point x="948.4" y="554.0" type="line"/>
      <point x="866.7" y="171.0" type="line"/>
      <point x="79.1" y="171.0" type="line" smooth="yes"/>
      <point x="22.1" y="171.0"/>
      <point x="-5.5" y="134.9"/>
      <point x="-5.5" y="82.1" type="curve" smooth="yes"/>
      <point x="-5.5" y="-8.5"/>
      <point x="107.1" y="-122.0"/>
      <point x="290.8" y="-122.0" type="curve" smooth="yes"/>
      <point x="563.5" y="-122.0"/>
      <point x="771.2" y="53.5"/>
      <point x="771.2" y="316.8" type="curve" smooth="yes"/>
      <point x="771.2" y="475.5"/>
      <point x="688.9" y="559.0"/>
      <point x="557.3" y="559.0" type="curve" smooth="yes"/>
      <point x="405.6" y="559.0"/>
      <point x="312.9" y="425.2"/>
      <point x="312.9" y="290.3" type="curve" smooth="yes"/>
      <point x="312.9" y="226.2"/>
      <point x="325.3" y="177.9"/>
      <point x="345.8" y="138.0" type="curve"/>
      <point x="403.6" y="138.0" type="line"/>
      <point x="378.2" y="181.6"/>
      <point x="365.5" y="228.7"/>
      <point x="365.5" y="292.3" type="curve" smooth="yes"/>
      <point x="365.5" y="395.3"/>
      <point x="429.1" y="505.0"/>
      <point x="540.1" y="505.0" type="curve" smooth="yes"/>
      <point x="632.6" y="505.0"/>
      <point x="680.4" y="438.3"/>
      <point x="680.4" y="314.6" type="curve" smooth="yes"/>
      <point x="680.4" y="102.9"/>
      <point x="521.3" y="-68.0"/>
      <point x="295.5" y="-68.0" type="curve" smooth="yes"/>
      <point x="140.4" y="-68.0"/>
      <point x="49.0" y="21.8"/>
      <point x="49.0" y="83.8" type="curve" smooth="yes"/>
      <point x="49.0" y="105.8"/>
      <point x="59.1" y="117.0"/>
      <point x="81.7" y="117.0" type="curve" smooth="yes"/>
      <point x="855.7" y="117.0" type="line"/>
    </contour>
  </outline>
</glyph>
<glyph name="nine-tamil" format="2">
  <advance width="1000.9"/>
  <unicode hex="0BEF"/>
  <note>
uni0BEF
</note>
  <outline>
    <contour>
      <point x="782.3" y="-18.3" type="line"/>
      <point x="890.7" y="47.1"/>
      <point x="947.0" y="123.0"/>
      <point x="947.0" y="236.1" type="curve" smooth="yes"/>
      <point x="947.0" y="362.4"/>
      <point x="846.6" y="423.0"/>
      <point x="734.7" y="423.0" type="curve" smooth="yes"/>
      <point x="573.4" y="423.0"/>
      <point x="455.2" y="281.6"/>
      <point x="455.2" y="128.7" type="curve" smooth="yes"/>
      <point x="455.2" y="55.6"/>
      <point x="492.1" y="-5.0"/>
      <point x="577.7" y="-5.0" type="curve" smooth="yes"/>
      <point x="673.5" y="-5.0"/>
      <point x="745.4" y="69.5"/>
      <point x="745.4" y="168.7" type="curve" smooth="yes"/>
      <point x="745.4" y="267.5"/>
      <point x="672.1" y="317.0"/>
      <point x="562.2" y="317.0" type="curve" smooth="yes"/>
      <point x="413.6" y="317.0" type="line"/>
      <point x="452.6" y="500.0" type="line"/>
      <point x="583.3" y="500.0" type="line"/>
      <point x="595.0" y="554.0" type="line"/>
      <point x="200.6" y="554.0" type="line"/>
      <point x="143.6" y="286.0" type="line"/>
      <point x="199.4" y="286.0" type="line"/>
      <point x="244.4" y="500.0" type="line"/>
      <point x="362.4" y="500.0" type="line"/>
      <point x="324.1" y="317.0" type="line"/>
      <point x="199.3" y="317.0" type="line" smooth="yes"/>
      <point x="92.4" y="317.0"/>
      <point x="21.4" y="238.0"/>
      <point x="21.4" y="141.0" type="curve" smooth="yes"/>
      <point x="21.4" y="57.9"/>
      <point x="86.3" y="-4.0"/>
      <point x="182.3" y="-4.0" type="curve" smooth="yes"/>
      <point x="297.6" y="-4.0"/>
      <point x="359.3" y="60.8"/>
      <point x="385.9" y="186.6" type="curve" smooth="yes"/>
      <point x="401.9" y="263.0" type="line"/>
      <point x="547.3" y="263.0" type="line" smooth="yes"/>
      <point x="613.7" y="263.0"/>
      <point x="655.3" y="229.1"/>
      <point x="655.3" y="160.1" type="curve" smooth="yes"/>
      <point x="655.3" y="99.9"/>
      <point x="621.9" y="49.0"/>
      <point x="569.1" y="49.0" type="curve" smooth="yes"/>
      <point x="528.8" y="49.0"/>
      <point x="509.6" y="87.4"/>
      <point x="509.6" y="134.3" type="curve" smooth="yes"/>
      <point x="509.6" y="246.1"/>
      <point x="597.4" y="370.0"/>
      <point x="716.8" y="370.0" type="curve" smooth="yes"/>
      <point x="794.3" y="370.0"/>
      <point x="857.9" y="324.6"/>
      <point x="857.9" y="230.8" type="curve" smooth="yes"/>
      <point x="857.9" y="147.9"/>
      <point x="825.4" y="72.3"/>
      <point x="760.5" y="15.7" type="curve"/>
    </contour>
    <contour>
      <point x="176.9" y="49.0" type="curve" smooth="yes"/>
      <point x="118.80000000000001" y="49.0"/>
      <point x="80.8" y="89.2"/>
      <point x="80.8" y="146.6" type="curve" smooth="yes"/>
      <point x="80.8" y="213.6"/>
      <point x="119.80000000000001" y="263.0"/>
      <point x="193.9" y="263.0" type="curve" smooth="yes"/>
      <point x="312.4" y="263.0" type="line"/>
      <point x="294.0" y="176.8" type="line" smooth="yes"/>
      <point x="274.0" y="82.6"/>
      <point x="238.2" y="49.0"/>
    </contour>
  </outline>
</glyph>
<glyph name="ten-tamil" format="2">
  <advance width="695.0"/>
  <unicode hex="0BF0"/>
  <note>
uni0BF0
</note>
  <outline>
    <contour>
      <point x="361.5" y="-5.0" type="curve" smooth="yes"/>
      <point x="546.8" y="-5.0"/>
      <point x="661.3" y="223.4"/>
      <point x="661.3" y="443.5" type="curve" smooth="yes"/>
      <point x="661.3" y="637.1"/>
      <point x="568.5" y="764.2"/>
      <point x="380.3" y="795.7" type="curve"/>
      <point x="365.9" y="742.3" type="line"/>
      <point x="534.6" y="715.1"/>
      <point x="605.5" y="601.2"/>
      <point x="605.5" y="436.5" type="curve" smooth="yes"/>
      <point x="605.5" y="270.5"/>
      <point x="516.7" y="49.0"/>
      <point x="385.4" y="49.0" type="curve" smooth="yes"/>
      <point x="352.1" y="49.0"/>
      <point x="337.2" y="72.6"/>
      <point x="346.3" y="115.5" type="curve" smooth="yes"/>
      <point x="439.4" y="554.0" type="line"/>
      <point x="350.1" y="554.0" type="line"/>
      <point x="262.0" y="138.7" type="line" smooth="yes"/>
      <point x="245.3" y="58.5"/>
      <point x="275.6" y="-5.0"/>
    </contour>
    <contour>
      <point x="149.8" y="-5.0" type="curve" smooth="yes"/>
      <point x="215.7" y="-5.0"/>
      <point x="273.4" y="35.8"/>
      <point x="297.2" y="145.1" type="curve" smooth="yes"/>
      <point x="309.3" y="201.2" type="line"/>
      <point x="275.0" y="201.2" type="line"/>
      <point x="261.9" y="141.8" type="line" smooth="yes"/>
      <point x="248.2" y="81.1"/>
      <point x="222.2" y="51.1"/>
      <point x="182.6" y="51.1" type="curve" smooth="yes"/>
      <point x="141.6" y="51.1"/>
      <point x="130.0" y="89.0"/>
      <point x="140.2" y="138.1" type="curve" smooth="yes"/>
      <point x="228.4" y="554.0" type="line"/>
      <point x="137.4" y="554.0" type="line"/>
      <point x="52.2" y="150.9" type="line" smooth="yes"/>
      <point x="34.1" y="67.3"/>
      <point x="67.1" y="-5.0"/>
    </contour>
  </outline>
</glyph>
<glyph name="onehundred-tamil" format="2">
  <advance width="729.8"/>
  <unicode hex="0BF1"/>
  <note>
uni0BF1
</note>
  <outline>
    <contour>
      <point x="194.6" y="0.0" type="line"/>
      <point x="250.1" y="0.0" type="line"/>
      <point x="356.8" y="500.0" type="line"/>
      <point x="523.2" y="500.0" type="line"/>
      <point x="416.5" y="0.0" type="line"/>
      <point x="505.7" y="0.0" type="line"/>
      <point x="612.0" y="500.0" type="line"/>
      <point x="743.4" y="500.0" type="line"/>
      <point x="754.7" y="554.0" type="line"/>
      <point x="312.6" y="554.0" type="line"/>
    </contour>
    <contour>
      <point x="7.1000000000000005" y="0.0" type="line"/>
      <point x="64.3" y="0.0" type="line"/>
      <point x="154.8" y="426.9" type="line" smooth="yes"/>
      <point x="165.4" y="476.9"/>
      <point x="189.6" y="505.0"/>
      <point x="231.4" y="505.0" type="curve" smooth="yes"/>
      <point x="271.9" y="505.0"/>
      <point x="296.0" y="474.3"/>
      <point x="282.4" y="408.6" type="curve"/>
      <point x="309.9" y="408.6" type="line"/>
      <point x="329.8" y="500.5"/>
      <point x="290.0" y="559.0"/>
      <point x="220.7" y="559.0" type="curve" smooth="yes"/>
      <point x="157.7" y="559.0"/>
      <point x="115.3" y="509.8"/>
      <point x="99.3" y="433.9" type="curve" smooth="yes"/>
    </contour>
  </outline>
</glyph>
<glyph name="onethousand-tamil" format="2">
  <advance width="933.2"/>
  <unicode hex="0BF2"/>
  <note>
uni0BF2
</note>
  <outline>
    <contour>
      <point x="177.8" y="-4.0" type="curve" smooth="yes"/>
      <point x="293.1" y="-4.0"/>
      <point x="354.8" y="60.8"/>
      <point x="381.4" y="186.6" type="curve" smooth="yes"/>
      <point x="397.4" y="263.0" type="line"/>
      <point x="819.9" y="263.0" type="line"/>
      <point x="830.6" y="317.0" type="line"/>
      <point x="409.1" y="317.0" type="line"/>
      <point x="448.1" y="500.0" type="line"/>
      <point x="578.8" y="500.0" type="line"/>
      <point x="590.5" y="554.0" type="line"/>
      <point x="196.1" y="554.0" type="line"/>
      <point x="139.1" y="286.0" type="line"/>
      <point x="194.9" y="286.0" type="line"/>
      <point x="239.9" y="500.0" type="line"/>
      <point x="357.9" y="500.0" type="line"/>
      <point x="319.6" y="317.0" type="line"/>
      <point x="194.8" y="317.0" type="line" smooth="yes"/>
      <point x="87.9" y="317.0"/>
      <point x="16.9" y="238.0"/>
      <point x="16.9" y="141.0" type="curve" smooth="yes"/>
      <point x="16.9" y="57.9"/>
      <point x="81.8" y="-4.0"/>
    </contour>
    <contour>
      <point x="172.4" y="49.0" type="curve" smooth="yes"/>
      <point x="114.3" y="49.0"/>
      <point x="76.3" y="89.2"/>
      <point x="76.3" y="146.6" type="curve" smooth="yes"/>
      <point x="76.3" y="213.6"/>
      <point x="115.30000000000001" y="263.0"/>
      <point x="189.4" y="263.0" type="curve" smooth="yes"/>
      <point x="307.9" y="263.0" type="line"/>
      <point x="289.5" y="176.8" type="line" smooth="yes"/>
      <point x="269.5" y="82.6"/>
      <point x="233.7" y="49.0"/>
    </contour>
    <contour>
      <point x="303.0" y="-276.6" type="curve"/>
      <point x="317.3" y="-208.3"/>
      <point x="345.3" y="-170.6"/>
      <point x="424.0" y="-170.6" type="curve" smooth="yes"/>
      <point x="570.0" y="-170.6" type="line" smooth="yes"/>
      <point x="713.6" y="-170.6"/>
      <point x="841.2" y="-109.4"/>
      <point x="841.2" y="46.0" type="curve" smooth="yes"/>
      <point x="841.2" y="138.9"/>
      <point x="777.4" y="188.0"/>
      <point x="679.6" y="188.0" type="curve" smooth="yes"/>
      <point x="553.4" y="188.0" type="line" smooth="yes"/>
      <point x="471.7" y="188.0"/>
      <point x="410.6" y="132.4"/>
      <point x="410.6" y="56.2" type="curve" smooth="yes"/>
      <point x="410.6" y="-7.0"/>
      <point x="459.2" y="-56.0"/>
      <point x="527.9" y="-56.0" type="curve" smooth="yes"/>
      <point x="610.5" y="-56.0"/>
      <point x="656.7" y="-9.6"/>
      <point x="676.3" y="83.5" type="curve" smooth="yes"/>
      <point x="720.4" y="291.0" type="line"/>
      <point x="640.1" y="291.0" type="line"/>
      <point x="595.0" y="76.8" type="line" smooth="yes"/>
      <point x="582.4" y="17.5"/>
      <point x="560.7" y="-2.0"/>
      <point x="521.6" y="-2.0" type="curve" smooth="yes"/>
      <point x="491.1" y="-2.0"/>
      <point x="466.4" y="21.5"/>
      <point x="466.4" y="61.1" type="curve" smooth="yes"/>
      <point x="466.4" y="105.8"/>
      <point x="492.8" y="134.0"/>
      <point x="546.1" y="134.0" type="curve" smooth="yes"/>
      <point x="668.6" y="134.0" type="line" smooth="yes"/>
      <point x="734.5" y="134.0"/>
      <point x="761.5" y="101.1"/>
      <point x="761.5" y="42.3" type="curve" smooth="yes"/>
      <point x="761.5" y="-74.4"/>
      <point x="681.2" y="-116.6"/>
      <point x="566.6" y="-116.6" type="curve" smooth="yes"/>
      <point x="398.6" y="-116.6" type="line" smooth="yes"/>
      <point x="306.5" y="-116.6"/>
      <point x="236.0" y="-147.4"/>
      <point x="236.0" y="-216.4" type="curve" smooth="yes"/>
      <point x="236.0" y="-255.3"/>
      <point x="259.9" y="-276.6"/>
    </contour>
  </outline>
</glyph>
<glyph name="day-tamil" format="2">
  <advance width="741.2"/>
  <unicode hex="0BF3"/>
  <note>
uni0BF3
</note>
  <outline>
    <contour>
      <point x="181.8" y="-5.0" type="curve" smooth="yes"/>
      <point x="266.0" y="-5.0"/>
      <point x="343.8" y="64.1"/>
      <point x="343.8" y="173.0" type="curve" smooth="yes"/>
      <point x="343.8" y="253.0"/>
      <point x="295.7" y="303.0"/>
      <point x="224.7" y="303.0" type="curve" smooth="yes"/>
      <point x="145.8" y="303.0"/>
      <point x="87.80000000000001" y="234.6"/>
      <point x="60.300000000000004" y="137.7" type="curve"/>
      <point x="84.2" y="110.0" type="line"/>
      <point x="105.6" y="190.3"/>
      <point x="142.5" y="236.0"/>
      <point x="192.60000000000002" y="236.0" type="curve" smooth="yes"/>
      <point x="233.3" y="236.0"/>
      <point x="255.4" y="208.1"/>
      <point x="255.4" y="158.2" type="curve" smooth="yes"/>
      <point x="255.4" y="98.3"/>
      <point x="221.2" y="49.0"/>
      <point x="168.0" y="49.0" type="curve" smooth="yes"/>
      <point x="113.9" y="49.0"/>
      <point x="84.3" y="101.3"/>
      <point x="84.3" y="199.1" type="curve" smooth="yes"/>
      <point x="84.3" y="338.9"/>
      <point x="198.0" y="505.0"/>
      <point x="346.7" y="505.0" type="curve" smooth="yes"/>
      <point x="461.2" y="505.0"/>
      <point x="509.6" y="422.1"/>
      <point x="509.6" y="318.2" type="curve" smooth="yes"/>
      <point x="509.6" y="218.3"/>
      <point x="464.1" y="125.5"/>
      <point x="394.1" y="40.9" type="curve"/>
      <point x="402.1" y="0.0" type="line"/>
      <point x="670.2" y="0.0" type="line"/>
      <point x="681.5" y="54.0" type="line"/>
      <point x="471.6" y="54.0" type="line"/>
      <point x="544.8" y="129.5"/>
      <point x="599.3" y="221.3"/>
      <point x="599.3" y="332.6" type="curve" smooth="yes"/>
      <point x="599.3" y="474.0"/>
      <point x="508.9" y="559.0"/>
      <point x="357.5" y="559.0" type="curve" smooth="yes"/>
      <point x="171.7" y="559.0"/>
      <point x="31.200000000000003" y="368.0"/>
      <point x="31.200000000000003" y="196.9" type="curve" smooth="yes"/>
      <point x="31.200000000000003" y="67.0"/>
      <point x="85.6" y="-5.0"/>
    </contour>
  </outline>
</glyph>
<glyph name="month-tamil" format="2">
  <advance width="918.4"/>
  <unicode hex="0BF4"/>
  <note>
uni0BF4
</note>
  <anchor x="314.5" y="0.0" name="bottom"/>
  <anchor x="711.4" y="554.0" name="imatra"/>
  <anchor x="315.5" y="0.0" name="nukta"/>
  <anchor x="461.8" y="554.0" name="top"/>
  <anchor x="446.0" y="554.0" name="vedic"/>
  <outline>
    <contour>
      <point x="630.1" y="468.0" type="curve"/>
      <point x="656.4" y="491.6" type="line"/>
      <point x="634.4" y="527.6"/>
      <point x="621.8" y="563.9"/>
      <point x="621.8" y="611.0" type="curve" smooth="yes"/>
      <point x="621.8" y="695.7"/>
      <point x="673.2" y="786.0"/>
      <point x="761.3" y="786.0" type="curve" smooth="yes"/>
      <point x="810.4" y="786.0"/>
      <point x="839.7" y="754.8"/>
      <point x="839.7" y="702.5" type="curve" smooth="yes"/>
      <point x="839.7" y="661.4"/>
      <point x="817.9" y="620.0"/>
      <point x="776.9" y="620.0" type="curve" smooth="yes"/>
      <point x="747.8" y="620.0"/>
      <point x="733.7" y="648.8"/>
      <point x="733.7" y="692.1" type="curve" smooth="yes"/>
      <point x="733.7" y="786.2"/>
      <point x="801.2" y="887.0"/>
      <point x="895.9" y="887.0" type="curve" smooth="yes"/>
      <point x="955.7" y="887.0"/>
      <point x="994.5" y="850.0"/>
      <point x="979.9" y="780.7" type="curve" smooth="yes"/>
      <point x="934.8" y="571.0" type="line"/>
      <point x="1012.0" y="571.0" type="line"/>
      <point x="1059.4" y="793.9" type="line" smooth="yes"/>
      <point x="1073.4" y="860.5"/>
      <point x="1099.0" y="896.6"/>
      <point x="1147.2" y="892.0" type="curve"/>
      <point x="1156.8" y="936.0" type="line"/>
      <point x="1093.4" y="940.9"/>
      <point x="1050.5" y="893.4"/>
      <point x="1031.1" y="842.7" type="curve"/>
      <point x="1027.5" y="842.7" type="line"/>
      <point x="1017.7" y="905.4"/>
      <point x="966.6" y="936.0"/>
      <point x="901.0" y="936.0" type="curve" smooth="yes"/>
      <point x="781.1" y="936.0"/>
      <point x="686.5" y="812.4"/>
      <point x="686.5" y="684.0" type="curve" smooth="yes"/>
      <point x="686.5" y="614.4"/>
      <point x="720.2" y="566.0"/>
      <point x="783.0" y="566.0" type="curve" smooth="yes"/>
      <point x="855.8" y="566.0"/>
      <point x="910.2" y="625.2"/>
      <point x="910.2" y="710.8" type="curve" smooth="yes"/>
      <point x="910.2" y="791.1"/>
      <point x="853.9" y="837.0"/>
      <point x="770.6" y="837.0" type="curve" smooth="yes"/>
      <point x="655.8" y="837.0"/>
      <point x="576.2" y="722.6"/>
      <point x="576.2" y="619.4" type="curve" smooth="yes"/>
      <point x="576.2" y="562.0"/>
      <point x="593.3" y="518.2"/>
    </contour>
    <component base="ma-tamil"/>
  </outline>
</glyph>
<glyph name="year-tamil" format="2">
  <advance width="1772.6"/>
  <unicode hex="0BF5"/>
  <note>
uni0BF5
</note>
  <anchor x="653.1" y="0.0" name="bottom"/>
  <anchor x="1165.1" y="554.0" name="imatra"/>
  <anchor x="656.6" y="0.0" name="nukta"/>
  <anchor x="804.7" y="554.0" name="top"/>
  <anchor x="767.4" y="554.0" name="vedic"/>
  <outline>
    <contour>
      <point x="590.1" y="-266.9" type="curve" smooth="yes"/>
      <point x="932.7" y="-266.9"/>
      <point x="1260.1" y="-97.9"/>
      <point x="1260.1" y="201.3" type="curve" smooth="yes"/>
      <point x="1260.1" y="288.4"/>
      <point x="1217.8" y="345.0"/>
      <point x="1146.4" y="345.0" type="curve" smooth="yes"/>
      <point x="1071.6" y="345.0"/>
      <point x="1019.9" y="287.7"/>
      <point x="999.9" y="192.0" type="curve" smooth="yes"/>
      <point x="989.9" y="145.0" type="line"/>
      <point x="1014.1" y="145.0" type="line"/>
      <point x="1024.1" y="191.5" type="line" smooth="yes"/>
      <point x="1035.1" y="241.0"/>
      <point x="1059.0" y="283.2"/>
      <point x="1105.5" y="283.2" type="curve" smooth="yes"/>
      <point x="1144.1" y="283.2"/>
      <point x="1166.2" y="252.8"/>
      <point x="1166.2" y="201.6" type="curve" smooth="yes"/>
      <point x="1166.2" y="-67.9"/>
      <point x="892.6" y="-212.9"/>
      <point x="594.2" y="-212.9" type="curve" smooth="yes"/>
      <point x="324.2" y="-212.9"/>
      <point x="101.30000000000001" y="-86.2"/>
      <point x="101.30000000000001" y="195.9" type="curve" smooth="yes"/>
      <point x="101.30000000000001" y="525.8"/>
      <point x="388.7" y="775.0"/>
      <point x="811.5" y="775.0" type="curve" smooth="yes"/>
      <point x="1197.3" y="775.0"/>
      <point x="1448.3" y="590.5"/>
      <point x="1379.2" y="292.6" type="curve" smooth="yes"/>
      <point x="1351.8" y="175.2" type="line" smooth="yes"/>
      <point x="1330.2" y="83.2"/>
      <point x="1361.2" y="0.0"/>
      <point x="1464.1" y="0.0" type="curve" smooth="yes"/>
      <point x="1611.2" y="0.0"/>
      <point x="1729.8" y="152.4"/>
      <point x="1729.8" y="363.6" type="curve" smooth="yes"/>
      <point x="1729.8" y="438.0"/>
      <point x="1711.4" y="499.6"/>
      <point x="1681.9" y="557.6" type="curve"/>
      <point x="1631.7" y="532.2" type="line"/>
      <point x="1656.1" y="481.9"/>
      <point x="1676.4" y="426.2"/>
      <point x="1676.4" y="357.0" type="curve" smooth="yes"/>
      <point x="1676.4" y="185.1"/>
      <point x="1581.6" y="59.0"/>
      <point x="1488.2" y="59.0" type="curve" smooth="yes"/>
      <point x="1433.3" y="59.0"/>
      <point x="1426.0" y="108.6"/>
      <point x="1441.3" y="174.2" type="curve" smooth="yes"/>
      <point x="1468.7" y="292.7" type="line" smooth="yes"/>
      <point x="1545.7" y="626.0"/>
      <point x="1250.3" y="829.0"/>
      <point x="816.8" y="829.0" type="curve" smooth="yes"/>
      <point x="350.6" y="829.0"/>
      <point x="47.1" y="556.1"/>
      <point x="47.1" y="189.2" type="curve" smooth="yes"/>
      <point x="47.1" y="-117.2"/>
      <point x="292.3" y="-266.9"/>
    </contour>
    <component base="lla-tamil" xOffset="187.8"/>
  </outline>
</glyph>
<glyph name="debit-tamil" format="2">
  <advance width="963.9"/>
  <unicode hex="0BF6"/>
  <note>
uni0BF6
</note>
  <outline>
    <contour>
      <point x="203.6" y="-317.9" type="curve" smooth="yes"/>
      <point x="381.6" y="-317.9"/>
      <point x="539.7" y="-232.2"/>
      <point x="583.2" y="-26.4" type="curve" smooth="yes"/>
      <point x="706.1" y="554.0" type="line"/>
      <point x="615.9" y="554.0" type="line"/>
      <point x="494.0" y="-19.4" type="line" smooth="yes"/>
      <point x="457.1" y="-193.9"/>
      <point x="336.9" y="-263.9"/>
      <point x="201.1" y="-263.9" type="curve" smooth="yes"/>
      <point x="86.9" y="-263.9"/>
      <point x="17.1" y="-201.8"/>
      <point x="17.1" y="-147.3" type="curve" smooth="yes"/>
      <point x="17.1" y="-126.4"/>
      <point x="28.5" y="-116.9"/>
      <point x="49.9" y="-116.9" type="curve" smooth="yes"/>
      <point x="798.7" y="-116.9" type="line"/>
      <point x="941.0" y="554.0" type="line"/>
      <point x="850.8" y="554.0" type="line"/>
      <point x="719.8" y="-63.6" type="line"/>
      <point x="46.7" y="-63.6" type="line" smooth="yes"/>
      <point x="-6.0" y="-63.6"/>
      <point x="-38.4" y="-94.0"/>
      <point x="-38.4" y="-147.6" type="curve" smooth="yes"/>
      <point x="-38.4" y="-224.3"/>
      <point x="46.2" y="-317.9"/>
    </contour>
    <contour>
      <point x="24.6" y="15.0" type="line"/>
      <point x="544.5" y="15.0" type="line"/>
      <point x="556.5" y="68.0" type="line"/>
      <point x="125.1" y="68.0" type="line"/>
      <point x="228.8" y="554.0" type="line"/>
      <point x="138.9" y="554.0" type="line"/>
    </contour>
  </outline>
</glyph>
<glyph name="credit-tamil" format="2">
  <advance width="1247.2"/>
  <unicode hex="0BF7"/>
  <note>
uni0BF7
</note>
  <anchor x="335.2" y="0.0" name="bottom"/>
  <anchor x="336.2" y="0.0" name="nukta"/>
  <anchor x="455.6" y="554.0" name="top"/>
  <anchor x="456.2" y="554.0" name="vedic"/>
  <outline>
    <contour>
      <point x="756.6" y="-5.0" type="curve" smooth="yes"/>
      <point x="853.0" y="-5.0"/>
      <point x="920.7" y="73.2"/>
      <point x="920.7" y="172.5" type="curve" smooth="yes"/>
      <point x="920.7" y="269.5"/>
      <point x="860.3" y="317.0"/>
      <point x="767.7" y="317.0" type="curve" smooth="yes"/>
      <point x="685.6" y="317.0"/>
      <point x="603.7" y="265.2"/>
      <point x="536.9" y="196.8" type="curve"/>
      <point x="522.2" y="128.1" type="line"/>
      <point x="592.9" y="208.2"/>
      <point x="668.3" y="263.0"/>
      <point x="747.6" y="263.0" type="curve" smooth="yes"/>
      <point x="805.0" y="263.0"/>
      <point x="835.5" y="232.4"/>
      <point x="835.5" y="165.8" type="curve" smooth="yes"/>
      <point x="835.5" y="102.1"/>
      <point x="800.3" y="49.0"/>
      <point x="748.4" y="49.0" type="curve" smooth="yes"/>
      <point x="708.1" y="49.0"/>
      <point x="692.1" y="86.0"/>
      <point x="692.1" y="137.8" type="curve" smooth="yes"/>
      <point x="692.1" y="253.8"/>
      <point x="780.1" y="370.0"/>
      <point x="904.2" y="370.0" type="curve" smooth="yes"/>
      <point x="979.3" y="370.0"/>
      <point x="1043.2" y="336.5"/>
      <point x="1043.2" y="239.7" type="curve" smooth="yes"/>
      <point x="1043.2" y="162.5"/>
      <point x="1011.2" y="99.7"/>
      <point x="955.5" y="40.9" type="curve"/>
      <point x="970.5" y="0.0" type="line"/>
      <point x="1168.0" y="0.0" type="line"/>
      <point x="1179.7" y="54.0" type="line"/>
      <point x="1002.9" y="54.0" type="line"/>
      <point x="1001.4" y="29.9" type="line"/>
      <point x="1074.8" y="84.1"/>
      <point x="1130.2" y="157.4"/>
      <point x="1130.2" y="246.8" type="curve" smooth="yes"/>
      <point x="1130.2" y="370.9"/>
      <point x="1027.0" y="423.0"/>
      <point x="922.1" y="423.0" type="curve" smooth="yes"/>
      <point x="757.5" y="423.0"/>
      <point x="637.7" y="278.1"/>
      <point x="637.7" y="132.2" type="curve" smooth="yes"/>
      <point x="637.7" y="54.2"/>
      <point x="674.5" y="-5.0"/>
    </contour>
    <component base="e-tamil"/>
  </outline>
</glyph>
<glyph name="asabove-tamil" format="2">
  <advance width="1561.8"/>
  <unicode hex="0BF8"/>
  <note>
uni0BF8
</note>
  <outline>
    <contour>
      <point x="544.4" y="-5.0" type="curve" smooth="yes"/>
      <point x="688.4" y="-5.0"/>
      <point x="771.3" y="155.1"/>
      <point x="771.3" y="321.3" type="curve" smooth="yes"/>
      <point x="771.3" y="533.2"/>
      <point x="651.0" y="657.0"/>
      <point x="451.0" y="657.0" type="curve" smooth="yes"/>
      <point x="236.3" y="657.0"/>
      <point x="35.6" y="453.8"/>
      <point x="35.6" y="205.5" type="curve" smooth="yes"/>
      <point x="35.6" y="72.4"/>
      <point x="95.0" y="-5.0"/>
      <point x="191.9" y="-5.0" type="curve" smooth="yes"/>
      <point x="278.6" y="-5.0"/>
      <point x="357.4" y="62.7"/>
      <point x="357.4" y="171.6" type="curve" smooth="yes"/>
      <point x="357.4" y="251.6"/>
      <point x="307.8" y="303.0"/>
      <point x="236.1" y="303.0" type="curve" smooth="yes"/>
      <point x="155.1" y="303.0"/>
      <point x="93.6" y="234.6"/>
      <point x="66.1" y="137.7" type="curve"/>
      <point x="90.0" y="110.0" type="line"/>
      <point x="111.4" y="190.3"/>
      <point x="151.8" y="236.0"/>
      <point x="204.0" y="236.0" type="curve" smooth="yes"/>
      <point x="244.0" y="236.0"/>
      <point x="269.0" y="206.0"/>
      <point x="269.0" y="156.1" type="curve" smooth="yes"/>
      <point x="269.0" y="96.2"/>
      <point x="235.2" y="49.0"/>
      <point x="180.2" y="49.0" type="curve" smooth="yes"/>
      <point x="123.30000000000001" y="49.0"/>
      <point x="88.7" y="105.3"/>
      <point x="88.7" y="207.7" type="curve" smooth="yes"/>
      <point x="88.7" y="424.1"/>
      <point x="263.6" y="603.0"/>
      <point x="438.8" y="603.0" type="curve" smooth="yes"/>
      <point x="599.3" y="603.0"/>
      <point x="686.9" y="496.4"/>
      <point x="686.9" y="342.0" type="curve" smooth="yes"/>
      <point x="686.9" y="206.2"/>
      <point x="636.5" y="54.8"/>
      <point x="535.3" y="54.8" type="curve" smooth="yes"/>
      <point x="490.5" y="54.8"/>
      <point x="467.4" y="100.8"/>
      <point x="467.4" y="163.8" type="curve" smooth="yes"/>
      <point x="467.4" y="320.4"/>
      <point x="588.8" y="505.0"/>
      <point x="760.3" y="505.0" type="curve" smooth="yes"/>
      <point x="875.5" y="505.0"/>
      <point x="938.3" y="422.9"/>
      <point x="938.3" y="316.0" type="curve" smooth="yes"/>
      <point x="938.3" y="215.5"/>
      <point x="894.5" y="124.6"/>
      <point x="822.8" y="40.9" type="curve"/>
      <point x="830.8" y="0.0" type="line"/>
      <point x="1487.8" y="0.0" type="line"/>
      <point x="1500.1" y="56.4" type="line"/>
      <point x="900.5" y="56.4" type="line"/>
      <point x="963.2" y="114.1"/>
      <point x="1028.0" y="206.6"/>
      <point x="1028.0" y="330.4" type="curve" smooth="yes"/>
      <point x="1028.0" y="471.8"/>
      <point x="923.5" y="559.0"/>
      <point x="771.1" y="559.0" type="curve" smooth="yes"/>
      <point x="560.0" y="559.0"/>
      <point x="412.8" y="350.0"/>
      <point x="412.8" y="152.4" type="curve" smooth="yes"/>
      <point x="412.8" y="64.3"/>
      <point x="457.2" y="-5.0"/>
    </contour>
    <contour>
      <point x="1224.2" y="-266.6" type="line"/>
      <point x="1313.3" y="-266.6" type="line"/>
      <point x="1452.8" y="385.8" type="line" smooth="yes"/>
      <point x="1475.5" y="491.3"/>
      <point x="1434.0" y="554.0"/>
      <point x="1339.2" y="554.0" type="curve" smooth="yes"/>
      <point x="1195.8" y="554.0"/>
      <point x="1105.2" y="379.4"/>
      <point x="1105.2" y="234.5" type="curve" smooth="yes"/>
      <point x="1105.2" y="104.4"/>
      <point x="1153.8" y="13.0"/>
      <point x="1276.5" y="13.0" type="curve"/>
      <point x="1284.5" y="54.0" type="line"/>
      <point x="1198.3" y="54.0"/>
      <point x="1159.4" y="134.4"/>
      <point x="1159.4" y="235.3" type="curve" smooth="yes"/>
      <point x="1159.4" y="347.0"/>
      <point x="1223.9" y="495.0"/>
      <point x="1318.9" y="495.0" type="curve" smooth="yes"/>
      <point x="1369.9" y="495.0"/>
      <point x="1378.3" y="455.5"/>
      <point x="1366.0" y="399.1" type="curve" smooth="yes"/>
    </contour>
  </outline>
</glyph>
<glyph name="rupee-tamil" format="2">
  <advance width="866.3"/>
  <unicode hex="0BF9"/>
  <note>
uni0BF9
</note>
  <outline>
    <contour>
      <point x="347.1" y="-296.3" type="curve" smooth="yes"/>
      <point x="603.0" y="-296.3"/>
      <point x="791.1" y="-57.0"/>
      <point x="791.1" y="194.1" type="curve" smooth="yes"/>
      <point x="791.1" y="283.5"/>
      <point x="748.7" y="345.0"/>
      <point x="671.4" y="345.0" type="curve" smooth="yes"/>
      <point x="600.0" y="345.0"/>
      <point x="550.0" y="287.0"/>
      <point x="532.8" y="197.6" type="curve" smooth="yes"/>
      <point x="526.3" y="163.9" type="line"/>
      <point x="549.1" y="163.9" type="line"/>
      <point x="555.6" y="196.4" type="line" smooth="yes"/>
      <point x="566.6" y="250.1"/>
      <point x="592.7" y="286.0"/>
      <point x="634.4" y="286.0" type="curve" smooth="yes"/>
      <point x="675.8" y="286.0"/>
      <point x="699.2" y="253.2"/>
      <point x="699.2" y="188.8" type="curve" smooth="yes"/>
      <point x="699.2" y="-26.6"/>
      <point x="572.5" y="-243.0"/>
      <point x="347.6" y="-243.0" type="curve" smooth="yes"/>
      <point x="167.2" y="-243.0"/>
      <point x="93.7" y="-99.5"/>
      <point x="93.7" y="122.0" type="curve" smooth="yes"/>
      <point x="93.7" y="377.4"/>
      <point x="259.5" y="798.0"/>
      <point x="434.6" y="798.0" type="curve" smooth="yes"/>
      <point x="494.6" y="798.0"/>
      <point x="517.1" y="766.1"/>
      <point x="517.1" y="723.9" type="curve" smooth="yes"/>
      <point x="517.1" y="691.1"/>
      <point x="496.9" y="659.0"/>
      <point x="465.1" y="659.0" type="curve" smooth="yes"/>
      <point x="444.1" y="659.0"/>
      <point x="433.3" y="678.0"/>
      <point x="433.6" y="710.4" type="curve" smooth="yes"/>
      <point x="434.5" y="785.1"/>
      <point x="486.1" y="850.0"/>
      <point x="568.0" y="850.0" type="curve" smooth="yes"/>
      <point x="626.7" y="850.0"/>
      <point x="661.1" y="817.3"/>
      <point x="661.1" y="767.2" type="curve" smooth="yes"/>
      <point x="661.1" y="720.7"/>
      <point x="632.6" y="682.6"/>
      <point x="600.6" y="651.0" type="curve"/>
      <point x="612.2" y="610.0" type="line"/>
      <point x="765.6" y="610.0" type="line"/>
      <point x="776.9" y="664.0" type="line"/>
      <point x="642.3" y="664.0" type="line"/>
      <point x="630.1" y="633.0" type="line"/>
      <point x="690.3" y="669.1"/>
      <point x="734.3" y="722.1"/>
      <point x="734.3" y="787.4" type="curve" smooth="yes"/>
      <point x="734.3" y="863.8"/>
      <point x="669.7" y="904.0"/>
      <point x="587.8" y="904.0" type="curve" smooth="yes"/>
      <point x="483.9" y="904.0"/>
      <point x="382.6" y="807.8"/>
      <point x="382.6" y="701.9" type="curve" smooth="yes"/>
      <point x="382.6" y="647.3"/>
      <point x="413.1" y="605.0"/>
      <point x="469.0" y="605.0" type="curve" smooth="yes"/>
      <point x="533.1" y="605.0"/>
      <point x="588.2" y="656.1"/>
      <point x="588.2" y="730.8" type="curve" smooth="yes"/>
      <point x="588.2" y="807.4"/>
      <point x="522.3" y="852.0"/>
      <point x="446.7" y="852.0" type="curve" smooth="yes"/>
      <point x="221.9" y="852.0"/>
      <point x="37.6" y="422.2"/>
      <point x="37.6" y="122.30000000000001" type="curve" smooth="yes"/>
      <point x="37.6" y="-129.9"/>
      <point x="131.5" y="-296.3"/>
    </contour>
    <contour>
      <point x="228.4" y="0.0" type="line"/>
      <point x="283.5" y="0.0" type="line"/>
      <point x="389.5" y="500.0" type="line"/>
      <point x="530.3" y="500.0" type="line"/>
      <point x="423.6" y="0.0" type="line"/>
      <point x="514.2" y="0.0" type="line"/>
      <point x="620.5" y="500.0" type="line"/>
      <point x="741.9" y="500.0" type="line"/>
      <point x="753.9" y="554.0" type="line"/>
      <point x="346.4" y="554.0" type="line"/>
    </contour>
  </outline>
</glyph>
<glyph name="number-tamil" format="2">
  <advance width="766.3"/>
  <unicode hex="0BFA"/>
  <note>
uni0BFA
</note>
  <anchor x="257.5" y="0.0" name="bottom"/>
  <anchor x="496.9" y="554.0" name="imatra"/>
  <anchor x="242.7" y="-181.0" name="nukta"/>
  <anchor x="378.6" y="554.0" name="top"/>
  <anchor x="388.6" y="554.0" name="vedic"/>
  <outline>
    <contour>
      <point x="664.0" y="500.0" type="line"/>
      <point x="812.2" y="500.0" type="line"/>
      <point x="823.9" y="554.0" type="line"/>
      <point x="702.8" y="554.0" type="line"/>
      <point x="704.1" y="528.0" type="line"/>
      <point x="785.1" y="596.9"/>
      <point x="849.3" y="676.3"/>
      <point x="849.3" y="783.8" type="curve" smooth="yes"/>
      <point x="849.3" y="883.0"/>
      <point x="783.9" y="939.0"/>
      <point x="693.5" y="939.0" type="curve" smooth="yes"/>
      <point x="579.3" y="939.0"/>
      <point x="491.3" y="825.1"/>
      <point x="491.3" y="703.6" type="curve" smooth="yes"/>
      <point x="491.3" y="644.2"/>
      <point x="521.6" y="599.2"/>
      <point x="584.5" y="599.2" type="curve" smooth="yes"/>
      <point x="655.3" y="599.2"/>
      <point x="709.5" y="656.9"/>
      <point x="709.5" y="735.1" type="curve" smooth="yes"/>
      <point x="709.5" y="813.5"/>
      <point x="651.5" y="858.2"/>
      <point x="569.2" y="858.2" type="curve" smooth="yes"/>
      <point x="464.1" y="858.2"/>
      <point x="377.3" y="763.9"/>
      <point x="377.3" y="658.8" type="curve" smooth="yes"/>
      <point x="377.3" y="579.4"/>
      <point x="423.6" y="517.5"/>
      <point x="488.9" y="513.5" type="curve"/>
      <point x="511.8" y="554.0" type="line"/>
      <point x="458.1" y="554.0"/>
      <point x="430.1" y="601.4"/>
      <point x="430.1" y="657.3" type="curve" smooth="yes"/>
      <point x="430.1" y="739.4"/>
      <point x="482.4" y="804.2"/>
      <point x="562.8" y="804.2" type="curve" smooth="yes"/>
      <point x="613.9" y="804.2"/>
      <point x="638.8" y="774.5"/>
      <point x="638.8" y="730.8" type="curve" smooth="yes"/>
      <point x="638.8" y="692.7"/>
      <point x="618.5" y="653.2"/>
      <point x="578.2" y="653.2" type="curve" smooth="yes"/>
      <point x="552.8" y="653.2"/>
      <point x="541.8" y="675.6"/>
      <point x="541.8" y="713.6" type="curve" smooth="yes"/>
      <point x="541.8" y="798.3"/>
      <point x="595.5" y="885.0"/>
      <point x="679.9" y="885.0" type="curve" smooth="yes"/>
      <point x="742.7" y="885.0"/>
      <point x="779.3" y="844.4"/>
      <point x="779.3" y="772.6" type="curve" smooth="yes"/>
      <point x="779.3" y="673.1"/>
      <point x="726.9" y="607.9"/>
      <point x="652.4" y="541.3" type="curve"/>
    </contour>
    <component base="na-tamil"/>
  </outline>
</glyph>
<glyph name="doubleSvarita-vedic" format="2">
  <unicode hex="1CDA"/>
  <note>
uni1CDA
</note>
  <anchor x="59.0" y="554.0" name="_vedic"/>
  <outline>
    <contour>
      <point x="61.3" y="915.5" type="line"/>
      <point x="111.8" y="915.5" type="line"/>
      <point x="152.8" y="1110.5" type="line"/>
      <point x="102.3" y="1110.5" type="line"/>
    </contour>
    <contour>
      <point x="160.6" y="915.5" type="line"/>
      <point x="210.8" y="915.5" type="line"/>
      <point x="252.1" y="1110.5" type="line"/>
      <point x="201.6" y="1110.5" type="line"/>
    </contour>
  </outline>
</glyph>
<glyph name="endash" format="2">
  <advance width="500.0"/>
  <unicode hex="2013"/>
  <outline>
    <contour>
      <point x="-11.3" y="239.7" type="line"/>
      <point x="499.0" y="239.7" type="line"/>
      <point x="512.7" y="297.3" type="line"/>
      <point x="0.7" y="297.3" type="line"/>
    </contour>
  </outline>
</glyph>
<glyph name="emdash" format="2">
  <advance width="1000.0"/>
  <unicode hex="2014"/>
  <outline>
    <contour>
      <point x="-11.3" y="239.7" type="line"/>
      <point x="999.0" y="239.7" type="line"/>
      <point x="1012.0" y="297.3" type="line"/>
      <point x="0.7" y="297.3" type="line"/>
    </contour>
  </outline>
</glyph>
<glyph name="quoteleft" format="2">
  <advance width="219.2"/>
  <unicode hex="2018"/>
  <outline>
    <contour>
      <point x="169.7" y="442.1" type="curve" smooth="yes"/>
      <point x="200.9" y="442.1"/>
      <point x="226.8" y="462.8"/>
      <point x="226.8" y="502.5" type="curve" smooth="yes"/>
      <point x="226.8" y="552.7"/>
      <point x="174.4" y="553.4"/>
      <point x="174.4" y="588.0" type="curve" smooth="yes"/>
      <point x="174.4" y="628.0"/>
      <point x="205.2" y="657.7"/>
      <point x="265.2" y="672.7" type="curve"/>
      <point x="270.6" y="714.0" type="line"/>
      <point x="157.1" y="688.3"/>
      <point x="103.6" y="610.2"/>
      <point x="103.6" y="520.6" type="curve" smooth="yes"/>
      <point x="103.6" y="470.7"/>
      <point x="133.3" y="442.1"/>
    </contour>
  </outline>
</glyph>
<glyph name="quoteright" format="2">
  <advance width="219.2"/>
  <unicode hex="2019"/>
  <outline>
    <contour>
      <point x="87.6" y="454.0" type="line"/>
      <point x="198.3" y="478.3"/>
      <point x="251.1" y="552.2"/>
      <point x="251.1" y="639.0" type="curve" smooth="yes"/>
      <point x="251.1" y="686.1"/>
      <point x="221.4" y="712.6"/>
      <point x="186.4" y="712.6" type="curve" smooth="yes"/>
      <point x="155.9" y="712.6"/>
      <point x="130.7" y="693.3"/>
      <point x="130.7" y="655.7" type="curve" smooth="yes"/>
      <point x="130.7" y="608.3"/>
      <point x="181.0" y="606.9"/>
      <point x="181.0" y="574.4" type="curve" smooth="yes"/>
      <point x="181.0" y="535.8"/>
      <point x="150.9" y="508.2"/>
      <point x="93.7" y="493.2" type="curve"/>
    </contour>
  </outline>
</glyph>
<glyph name="quotedblleft" format="2">
  <advance width="393.3"/>
  <unicode hex="201C"/>
  <outline>
    <contour>
      <point x="343.1" y="442.1" type="curve" smooth="yes"/>
      <point x="374.3" y="442.1"/>
      <point x="400.2" y="462.8"/>
      <point x="400.2" y="502.5" type="curve" smooth="yes"/>
      <point x="400.2" y="552.7"/>
      <point x="347.8" y="553.4"/>
      <point x="347.8" y="588.0" type="curve" smooth="yes"/>
      <point x="347.8" y="628.0"/>
      <point x="378.6" y="657.7"/>
      <point x="438.6" y="672.7" type="curve"/>
      <point x="444.7" y="714.0" type="line"/>
      <point x="330.5" y="688.3"/>
      <point x="277.0" y="610.2"/>
      <point x="277.0" y="520.6" type="curve" smooth="yes"/>
      <point x="277.0" y="470.7"/>
      <point x="306.7" y="442.1"/>
    </contour>
    <contour>
      <point x="169.7" y="442.1" type="curve" smooth="yes"/>
      <point x="200.9" y="442.1"/>
      <point x="226.8" y="462.8"/>
      <point x="226.8" y="502.5" type="curve" smooth="yes"/>
      <point x="226.8" y="552.7"/>
      <point x="174.4" y="553.4"/>
      <point x="174.4" y="588.0" type="curve" smooth="yes"/>
      <point x="174.4" y="628.0"/>
      <point x="205.2" y="657.7"/>
      <point x="265.2" y="672.7" type="curve"/>
      <point x="270.6" y="714.0" type="line"/>
      <point x="157.1" y="688.3"/>
      <point x="103.6" y="610.2"/>
      <point x="103.6" y="520.6" type="curve" smooth="yes"/>
      <point x="103.6" y="470.7"/>
      <point x="133.3" y="442.1"/>
    </contour>
  </outline>
</glyph>
<glyph name="quotedblright" format="2">
  <advance width="393.3"/>
  <unicode hex="201D"/>
  <outline>
    <contour>
      <point x="258.2" y="442.1" type="line"/>
      <point x="371.0" y="467.8"/>
      <point x="425.2" y="545.9"/>
      <point x="425.2" y="635.5" type="curve" smooth="yes"/>
      <point x="425.2" y="685.4"/>
      <point x="394.8" y="714.0"/>
      <point x="358.4" y="714.0" type="curve" smooth="yes"/>
      <point x="327.9" y="714.0"/>
      <point x="302.0" y="693.3"/>
      <point x="302.0" y="653.6" type="curve" smooth="yes"/>
      <point x="302.0" y="604.1"/>
      <point x="353.7" y="602.7"/>
      <point x="353.7" y="568.1" type="curve" smooth="yes"/>
      <point x="353.7" y="528.1"/>
      <point x="322.9" y="499.1"/>
      <point x="263.6" y="483.4" type="curve"/>
    </contour>
    <contour>
      <point x="84.8" y="442.1" type="line"/>
      <point x="198.3" y="467.8"/>
      <point x="251.8" y="545.9"/>
      <point x="251.8" y="635.5" type="curve" smooth="yes"/>
      <point x="251.8" y="685.4"/>
      <point x="222.1" y="714.0"/>
      <point x="185.0" y="714.0" type="curve" smooth="yes"/>
      <point x="155.2" y="714.0"/>
      <point x="129.3" y="693.3"/>
      <point x="129.3" y="653.6" type="curve" smooth="yes"/>
      <point x="129.3" y="604.1"/>
      <point x="180.3" y="602.7"/>
      <point x="180.3" y="568.1" type="curve" smooth="yes"/>
      <point x="180.3" y="528.1"/>
      <point x="149.5" y="499.1"/>
      <point x="90.2" y="483.4" type="curve"/>
    </contour>
  </outline>
</glyph>
<glyph name="ellipsis" format="2">
  <advance width="746.7"/>
  <unicode hex="2026"/>
  <outline>
    <contour>
      <point x="592.2" y="-8.0" type="curve" smooth="yes"/>
      <point x="620.7" y="-8.0"/>
      <point x="653.3" y="12.7"/>
      <point x="653.3" y="70.4" type="curve" smooth="yes"/>
      <point x="653.3" y="108.6"/>
      <point x="629.8" y="127.9"/>
      <point x="599.0" y="127.9" type="curve" smooth="yes"/>
      <point x="562.5" y="127.9"/>
      <point x="537.9" y="96.2"/>
      <point x="537.9" y="50.2" type="curve" smooth="yes"/>
      <point x="537.9" y="11.3"/>
      <point x="560.1" y="-8.0"/>
    </contour>
    <contour>
      <point x="93.4" y="-8.0" type="curve" smooth="yes"/>
      <point x="122.6" y="-8.0"/>
      <point x="154.5" y="12.7"/>
      <point x="154.5" y="70.4" type="curve" smooth="yes"/>
      <point x="154.5" y="108.6"/>
      <point x="131.7" y="128.6"/>
      <point x="100.9" y="128.6" type="curve" smooth="yes"/>
      <point x="64.4" y="128.6"/>
      <point x="39.8" y="96.9"/>
      <point x="39.8" y="50.2" type="curve" smooth="yes"/>
      <point x="39.8" y="11.3"/>
      <point x="62.0" y="-8.0"/>
    </contour>
    <contour>
      <point x="341.0" y="-8.0" type="curve" smooth="yes"/>
      <point x="370.2" y="-8.0"/>
      <point x="402.1" y="12.7"/>
      <point x="402.1" y="70.4" type="curve" smooth="yes"/>
      <point x="402.1" y="108.6"/>
      <point x="378.6" y="128.6"/>
      <point x="348.5" y="128.6" type="curve" smooth="yes"/>
      <point x="312.0" y="128.6"/>
      <point x="286.7" y="96.9"/>
      <point x="286.7" y="50.2" type="curve" smooth="yes"/>
      <point x="286.7" y="11.3"/>
      <point x="308.9" y="-8.0"/>
    </contour>
  </outline>
</glyph>
<glyph name="foursuperior" format="2">
  <advance width="344.0"/>
  <unicode hex="2074"/>
  <outline>
    <contour>
      <point x="133.4" y="387.0" type="line"/>
      <point x="322.6" y="387.0" type="line"/>
      <point x="330.3" y="420.3" type="line"/>
      <point x="313.1" y="420.3" type="line" smooth="yes"/>
      <point x="296.9" y="420.3"/>
      <point x="283.0" y="423.3"/>
      <point x="283.0" y="443.9" type="curve" smooth="yes"/>
      <point x="283.0" y="449.9"/>
      <point x="285.7" y="465.3"/>
      <point x="288.7" y="477.3" type="curve" smooth="yes"/>
      <point x="296.7" y="514.7" type="line"/>
      <point x="371.0" y="514.7" type="line"/>
      <point x="380.7" y="557.0" type="line"/>
      <point x="305.0" y="557.0" type="line"/>
      <point x="360.0" y="819.0" type="line"/>
      <point x="291.2" y="819.0" type="line"/>
      <point x="70.7" y="548.7" type="line"/>
      <point x="64.3" y="514.7" type="line"/>
      <point x="221.7" y="514.7" type="line"/>
      <point x="210.4" y="458.3" type="line" smooth="yes"/>
      <point x="203.4" y="424.3"/>
      <point x="184.8" y="420.3"/>
      <point x="164.2" y="420.3" type="curve" smooth="yes"/>
      <point x="140.4" y="420.3" type="line"/>
    </contour>
    <contour>
      <point x="125.0" y="557.0" type="line"/>
      <point x="239.2" y="699.2" type="line" smooth="yes"/>
      <point x="254.2" y="718.3"/>
      <point x="269.4" y="738.5"/>
      <point x="276.4" y="748.8" type="curve"/>
      <point x="269.4" y="724.8"/>
      <point x="258.9" y="686.9"/>
      <point x="253.3" y="661.1" type="curve" smooth="yes"/>
      <point x="231.4" y="557.0" type="line"/>
    </contour>
  </outline>
</glyph>
